<?xml version="1.0" standalone="no"?>
<!DOCTYPE svg PUBLIC "-//W3C//DTD SVG 1.1//EN" "http://www.w3.org/Graphics/SVG/1.1/DTD/svg11.dtd" >
<svg xmlns="http://www.w3.org/2000/svg">
<metadata>Generated by IcoMoon</metadata>
<defs>
<font id="icomoon" horiz-adv-x="1024">
<font-face units-per-em="1024" ascent="960" descent="-64" />
<missing-glyph horiz-adv-x="1024" />
<glyph unicode="&#x20;" horiz-adv-x="512" d="" />
<glyph unicode="&#xe900;" glyph-name="icon_01" horiz-adv-x="1029" d="M998.778 21.754l-211.862 211.862c60.532 75.665 100.887 176.552 100.887 282.483 0 247.172-196.729 443.901-443.901 443.901s-443.901-196.729-443.901-443.901 196.729-443.901 443.901-443.901c110.975 0 211.862 40.355 287.527 105.931l211.862-211.862c10.089-10.089 20.177-10.089 30.266-10.089s20.177 5.044 30.266 10.089c10.089 15.133 10.089 40.355-5.044 55.488zM80.709 516.099c0 201.773 161.419 363.192 363.192 363.192s363.192-161.419 363.192-363.192c0-201.773-161.419-363.192-363.192-363.192s-363.192 161.419-363.192 363.192z" />
<glyph unicode="&#xe901;" glyph-name="icon_02" d="M979.478 235.51c-4.047 8.095-12.142 16.19-24.285 20.237l-303.557 64.759c-12.142 4.047-20.237 0-28.332-8.095-20.237-20.237-36.427-44.522-48.569-72.854-121.423 52.617-222.609 149.755-275.225 271.178 28.332 12.142 52.617 28.332 72.854 48.569 8.095 8.095 12.142 20.237 8.095 28.332l-64.759 307.605c0 8.095-8.095 20.237-20.237 20.237-8.095 4.047-20.237 8.095-28.332 12.142-16.19 0-32.379 4.047-44.522 4.047h-4.047c-121.423 0-218.561-97.138-218.561-218.561v-4.047c4.047-424.98 356.174-769.012 777.107-773.059h8.095c12.142 0 28.332 4.047 40.474 4.047 56.664 12.142 105.233 48.569 133.565 97.138s40.474 109.281 28.332 165.945c0 12.142-4.047 24.285-8.095 32.379zM218.561 866.909c0 0 0 0 0 0 16.19 0 24.285 0 36.427-4.047 0 0 4.047 0 4.047 0l60.711-271.178c-20.237-16.19-40.474-24.285-64.759-32.379 0 0-4.047 0-4.047 0-16.19-4.047-24.285-24.285-20.237-40.474 60.711-165.945 190.229-295.462 356.174-352.126h4.047c16.19-4.047 32.379 8.095 36.427 24.285 4.047 24.285 16.19 44.522 32.379 64.759l267.13-56.664c0-4.047 0-4.047 0-8.095 4.047-12.142 4.047-24.285 4.047-36.427 0-40.474-16.19-80.949-44.522-109.281s-68.806-44.522-109.281-44.522c0 0 0 0 0 0-388.553 0-712.348 319.747-716.395 708.3h-8.095l8.095 4.047c4.047 84.996 72.854 153.802 157.85 153.802zM704.253 474.308v-8.095h64.759v12.142c0 125.47-101.186 226.656-226.656 226.656h-12.142v-68.806h8.095c89.043 0 161.897-72.854 165.945-161.897zM582.83 960h-8.095v-64.759h8.095c210.466 0 380.458-169.992 380.458-380.458v-8.095h64.759v12.142c-4.047 242.846-202.372 441.17-445.217 441.17z" />
<glyph unicode="&#xe902;" glyph-name="icon_03" horiz-adv-x="1126" d="M1125.975 335.402v0c0 4.249 0 4.249 0 8.498 0 0 0 4.249 0 4.249v0c0 0 0 0 0 0l-157.212 395.154c-4.249 12.747-16.996 21.245-29.743 21.245h-203.95v-59.485h-55.237v254.938h-229.444v-259.187h-59.485v63.734h-199.701c-12.747 0-25.494-8.498-29.743-21.245l-157.212-395.154c0 0 0 0 0 0v0c-4.249-4.249-4.249-8.498-4.249-12.747 0 0 0 0 0 0v0c0 0 0 0 0 0s0 0 0 0v-365.411c0-16.996 12.747-33.992 33.992-33.992h1057.992c8.498 0 16.996 4.249 21.245 8.498s8.498 12.747 8.498 21.245v369.66c4.249 0 4.249 0 4.249 0zM514.124 637.079v259.187h97.726v-259.187h67.983l-114.722-152.963-114.722 152.963h63.734zM560.863 373.643l246.44 322.921h106.224l131.718-327.17h-344.166c-12.747 0-25.494-8.498-29.743-21.245 0-4.249-4.249-8.498-4.249-12.747s0-12.747-4.249-16.996c-12.747-38.241-46.739-72.232-89.228-76.481-59.485-8.498-110.473 33.992-114.722 93.477 0 16.996-12.747 33.992-33.992 33.992h-344.166l131.718 327.17h106.224l242.191-322.921zM67.983 301.411h331.419c16.996-72.232 84.979-127.469 161.461-127.469 0 0 4.249 0 4.249 0 76.481 0 148.714 50.988 165.71 127.469h331.419v-301.676h-994.257v301.676z" />
<glyph unicode="&#xe903;" glyph-name="icon_04" horiz-adv-x="885" d="M440.102 328.17c174.298 0 318.094 143.796 318.094 318.094s-139.438 313.736-318.094 313.736c-174.298 0-318.094-143.796-318.094-318.094 4.357-174.298 143.796-313.736 318.094-313.736zM440.102 881.566c130.723 0 239.66-108.936 239.66-239.66s-108.936-239.66-239.66-239.66-239.66 108.936-239.66 239.66 108.936 239.66 239.66 239.66zM579.54 262.809c-8.715 0-17.43 0-30.502 0h-213.515c-174.298 8.715-322.451-122.009-335.523-300.664 0-8.715 0-17.43 0-30.502h78.434c0 165.583 126.366 239.66 252.732 239.66h213.515c126.366 0 252.732-74.077 252.732-239.66h78.434c13.072 178.655-122.009 326.809-296.306 331.166z" />
<glyph unicode="&#xe904;" glyph-name="icon_05" d="M1023.999 643.896l-115.756 115.756-391.791-391.791-400.696 391.791-115.756-115.756 516.452-507.548 507.548 507.548z" />
<glyph unicode="&#xe905;" glyph-name="icon_06" horiz-adv-x="1047" d="M1024 729.098c-3.346 6.693-10.039 10.039-20.078 10.039h-739.556l-20.078 80.314v3.346l-194.092 117.124c-10.039 6.693-23.425 3.346-30.118-6.693 0 0 0-3.346 0-3.346-3.346-6.693-3.346-13.386-3.346-20.078s6.693-13.386 10.039-16.732l174.013-107.085 143.895-619.085h525.386c13.386 0 23.425 13.386 23.425 30.118 0 13.386-10.039 23.425-23.425 23.425h-488.575l-16.732 76.967h528.732c10.039 0 20.078 6.693 23.425 16.732l113.778 391.529c0 6.693 0 16.732-6.693 23.425zM876.758 347.608h-525.386l-76.967 337.987h699.399l-97.046-337.987zM749.595 143.477c-53.542 0-97.046-43.503-97.046-97.046s43.503-97.046 97.046-97.046 97.046 43.503 97.046 97.046c0 0 0 0 0 0-3.346 56.889-43.503 97.046-97.046 97.046zM749.595 6.275c-23.425 0-43.503 20.078-43.503 43.503s20.078 43.503 43.503 43.503c23.425 0 43.503-20.078 43.503-43.503s-20.078-43.503-43.503-43.503zM471.843 143.477c-53.542 0-97.046-43.503-97.046-97.046s43.503-97.046 97.046-97.046c53.542 0 97.046 43.503 97.046 97.046 0 0 0 0 0 0 0 53.542-43.503 97.046-97.046 97.046zM471.843 6.275c-23.425 0-43.503 20.078-43.503 43.503s20.078 43.503 43.503 43.503c23.425 0 43.503-20.078 43.503-43.503s-20.078-43.503-43.503-43.503z" />
<glyph unicode="&#xe906;" glyph-name="icon_07" horiz-adv-x="1451" d="M0 960h1450.667v-170.667h-1450.667v170.667zM0 533.333h1450.667v-170.667h-1450.667v170.667zM0 106.667h1024v-170.667h-1024v170.667z" />
<glyph unicode="&#xe907;" glyph-name="icon_08" d="M1023.999 643.896l-115.756 115.756-391.791-391.791-400.696 391.791-115.756-115.756 516.452-507.548 507.548 507.548z" />
<glyph unicode="&#xe908;" glyph-name="icon_09" horiz-adv-x="711" d="M135.111 960l-135.111-120.889 440.889-391.111-440.889-391.111 135.111-120.889 576 512-576 512z" />
<glyph unicode="&#xe909;" glyph-name="icon_10" horiz-adv-x="711" d="M576-66.276l135.111 120.889-440.889 391.111 440.889 391.111-135.111 120.889-576-512 576-512z" />
<glyph unicode="&#xe90a;" glyph-name="icon_11" d="M1011.767 477.225v0l-209.508 209.508c-15.33 15.33-40.88 10.22-56.209-5.11s-15.33-35.77 0-51.099l137.968-137.968h-843.139c-20.44-5.11-40.88-20.44-40.88-45.989 0-20.44 20.44-40.88 40.88-40.88h848.249l-137.968-137.968c-15.33-15.33-15.33-40.88 5.11-56.209 15.33-15.33 35.77-15.33 51.099 0l209.508 209.508c10.22 15.33 10.22 40.88-5.11 56.209 0 0 0 0 0 0z" />
<glyph unicode="&#xe90b;" glyph-name="icon_12" d="M512 960c-281.971 0-512-230.029-512-512s230.029-512 512-512c281.971 0 512 230.029 512 512s-230.029 512-512 512v0zM437.797 195.71v0 0l-244.87 237.449 103.884 103.884 140.986-140.986 304.232 304.232 103.884-103.884-408.116-400.696z" />
<glyph unicode="&#xe90c;" glyph-name="icon_13" horiz-adv-x="1349" d="M1016.938 63.117c0 0 0 0 0 0 28.248 0 56.497 21.186 56.497 56.497 0 28.248-21.186 56.497-56.497 56.497-28.248 0-56.497-21.186-56.497-56.497 0-14.124 7.062-28.248 14.124-35.31 14.124-14.124 28.248-21.186 42.372-21.186zM324.855 63.117c28.248 0 56.497 21.186 56.497 56.497 0 28.248-21.186 56.497-56.497 56.497-28.248 0-56.497-21.186-56.497-56.497s21.186-56.497 56.497-56.497zM1341.793 324.414c0 7.062-7.062 49.434-7.062 98.869 0 28.248-7.062 63.559-7.062 98.869-21.186 56.497-42.372 105.931-77.683 155.366-84.745 141.241-91.807 141.241-112.993 141.241h-240.11c-28.248 0-56.497-21.186-56.497-56.497v-402.538h-35.31v529.655c0 35.31-28.248 63.559-63.559 63.559h-677.959c-35.31 7.062-63.559-21.186-63.559-56.497v-713.269c0-42.372 35.31-77.683 77.683-84.745h63.559c7.062-91.807 84.745-162.428 183.614-162.428v0c91.807 0 169.49 70.621 183.614 162.428h331.917c14.124-91.807 84.745-162.428 183.614-162.428s176.552 77.683 183.614 169.49c35.31 0 70.621 0 105.931 14.124 49.434 28.248 42.372 120.055 28.248 204.8zM1009.876 239.669v0c70.621 0 120.055-56.497 120.055-120.055s-56.497-120.055-120.055-120.055c-63.559 0-120.055 56.497-120.055 120.055 7.062 63.559 56.497 112.993 120.055 120.055zM1016.938 303.228c-84.745 0-162.428-63.559-176.552-141.241h-338.979c-21.186 77.683-91.807 141.241-176.552 141.241s-155.366-56.497-176.552-134.179h-63.559c-7.062 0-14.124 7.062-14.124 14.124v713.269h670.897v-564.966c0-7.062 7.062-14.124 7.062-21.186 7.062-7.062 14.124-7.062 21.186-7.062h98.869c21.186 0 35.31 14.124 35.31 35.31v423.724h218.924c28.248-42.372 127.117-218.924 134.179-247.172v-14.124c7.062-42.372 14.124-162.428 14.124-176.552 14.124-112.993 7.062-134.179 0-141.241-28.248-7.062-56.497-7.062-84.745-7.062-14.124 70.621-84.745 127.117-169.49 127.117zM317.793 239.669v0c70.621 0 120.055-56.497 120.055-120.055s-56.497-120.055-120.055-120.055-120.055 56.497-120.055 120.055c7.062 63.559 56.497 112.993 120.055 120.055zM1158.179 642.207c-42.372 77.683-49.434 84.745-70.621 84.745h-127.117c-21.186 0-42.372-21.186-42.372-42.372v-134.179c0-21.186 14.124-35.31 35.31-35.31h218.924c7.062 0 7.062 0 14.124 7.062 14.124 7.062 21.186 28.248 14.124 42.372-14.124 28.248-28.248 56.497-42.372 77.683zM981.628 663.393h91.807c14.124-14.124 28.248-49.434 42.372-77.683h-134.179v77.683z" />
<glyph unicode="&#xe90d;" glyph-name="icon_14" horiz-adv-x="1092" d="M1046.756 322.844v157.013c2.276 34.133-9.102 68.267-29.582 93.298s-54.613 40.96-88.747 45.511c-6.827 0-13.653 0-18.204 0h-179.769c-70.542 4.551-131.982-47.787-138.809-118.329 0-6.827 0-13.653 0-18.204v-159.289h-45.511v179.769c4.551 70.542-47.787 131.982-118.329 138.809-6.827 0-13.653 0-18.204 0h-179.769c-70.542 4.551-134.258-47.787-138.809-118.329 0-6.827 0-13.653 0-18.204v-182.044h-91.022v-45.511h93.298c9.102-63.716 54.613-79.644 88.747-86.471v-72.818c0-13.653 9.102-22.756 22.756-22.756h91.022v-113.778h-113.778v-45.511h273.067v45.511h-113.778v113.778h91.022c13.653 0 22.756 9.102 22.756 22.756v72.818c34.133 6.827 79.644 25.031 88.747 86.471h548.409v45.511h-45.511zM409.6 140.8h-182.044v341.333h182.044v-341.333zM500.622 300.089c0-38.684-13.653-54.613-45.511-63.716v268.516c0 13.653-9.102 22.756-22.756 22.756h-227.556c-13.653 0-22.756-9.102-22.756-22.756v-268.516c-31.858 9.102-45.511 22.756-45.511 63.716v207.076c0 4.551 0 9.102 0 13.653 4.551 45.511 43.236 79.644 91.022 77.369h184.32c4.551 0 9.102 0 13.653 0 22.756-2.276 43.236-11.378 56.889-29.582 13.653-15.929 20.48-38.684 20.48-61.44v-207.076zM910.222 482.133v-159.289h-182.044v159.289h-45.511v-159.289h-45.511v161.564c0 4.551 0 9.102 0 13.653 4.551 45.511 43.236 79.644 91.022 77.369h184.32c4.551 0 9.102 0 13.653 0 22.756-2.276 43.236-11.378 56.889-29.582 13.653-15.929 20.48-38.684 20.48-61.44v-159.289h-45.511v159.289h-47.787zM735.004 700.587c20.48-22.756 47.787-34.133 77.369-36.409 2.276 0 6.827 0 9.102 0s2.276 0 4.551 0c27.307 0 54.613 9.102 75.093 29.582 22.756 20.48 34.133 47.787 36.409 77.369 0 2.276 0 6.827 0 9.102v43.236c0 63.716-50.062 113.778-113.778 113.778s-113.778-50.062-113.778-113.778v-45.511c-6.827-27.307 4.551-56.889 25.031-77.369zM750.933 823.467c0 38.684 29.582 68.267 68.267 68.267s68.267-29.582 68.267-68.267v-45.511c0-2.276 0-4.551 0-6.827 0-18.204-9.102-34.133-20.48-45.511-13.653-11.378-29.582-18.204-45.511-15.929 0 0 0 0 0 0s0 0 0 0c-2.276 0-4.551 0-6.827 0-36.409 2.276-63.716 31.858-61.44 68.267v45.511zM234.382 723.342c20.48-22.756 47.787-34.133 77.369-36.409 2.276 0 6.827 0 9.102 0s2.276 0 4.551 0c27.307 0 54.613 9.102 75.093 29.582 22.756 20.48 34.133 47.787 36.409 77.369 0 2.276 0 6.827 0 9.102v43.236c0 63.716-50.062 113.778-113.778 113.778s-118.329-50.062-118.329-113.778v-45.511c-2.276-27.307 9.102-56.889 29.582-77.369zM250.311 846.222c0 38.684 29.582 68.267 68.267 68.267s68.267-29.582 68.267-68.267v-45.511c0-2.276 0-4.551 0-6.827 0-18.204-9.102-34.133-20.48-45.511-13.653-11.378-29.582-18.204-45.511-15.929 0 0 0 0 0 0s0 0 0 0c-2.276 0-4.551 0-6.827 0-18.204 0-34.133 9.102-45.511 20.48-13.653 13.653-18.204 29.582-18.204 47.787v45.511zM1024 254.578h45.511v-318.578h-45.511v318.578zM22.756 254.578h45.511v-318.578h-45.511v318.578z" />
<glyph unicode="&#xe90e;" glyph-name="icon_15" horiz-adv-x="1046" d="M247.172 165.517h136.828c13.241 0 22.069 8.828 22.069 22.069s-8.828 22.069-22.069 22.069h-114.759v706.207h445.793l79.448-77.241v-218.483c0-13.241 8.828-22.069 22.069-22.069s22.069 8.828 22.069 22.069v227.31c0 6.621-2.207 11.034-6.621 15.448l-90.483 90.483c-4.414 4.414-11.034 6.621-15.448 6.621h-478.897c-13.241 0-22.069-8.828-22.069-22.069v-750.345c0-13.241 11.034-22.069 22.069-22.069zM679.724 891.586c-13.241 0-22.069-8.828-22.069-22.069v-68.414c0-13.241 8.828-22.069 22.069-22.069h68.414c13.241 0 22.069 8.828 22.069 22.069s-8.828 22.069-22.069 22.069h-46.345v46.345c0 13.241-8.828 22.069-22.069 22.069zM300.138 110.345l-172.138-19.862-81.655 701.793 141.241 15.448c11.034 2.207 19.862 13.241 19.862 24.276-2.207 13.241-13.241 22.069-24.276 19.862l-163.31-17.655c-6.621 0-11.034-4.414-15.448-8.828s-4.414-11.034-4.414-15.448l86.069-745.931c2.207-11.034 11.034-19.862 22.069-19.862 0 0 2.207 0 2.207 0l194.207 22.069c11.034 2.207 19.862 13.241 19.862 24.276-2.207 13.241-11.034 22.069-24.276 19.862zM882.759 728.276l103.724-8.828-46.345-494.345c0-11.034 8.828-22.069 19.862-24.276 0 0 2.207 0 2.207 0 11.034 0 19.862 8.828 22.069 19.862l46.345 516.414c0 6.621-2.207 11.034-4.414 15.448s-6.621 8.828-13.241 8.828l-125.793 11.034c-11.034 0-22.069-8.828-24.276-19.862s6.621-22.069 19.862-24.276zM796.69 28.69l-399.448 37.517 4.414 52.966c2.207 11.034-8.828 22.069-19.862 24.276-13.241 2.207-22.069-8.828-24.276-19.862l-6.621-75.034c0-6.621 2.207-11.034 4.414-15.448 4.414-4.414 8.828-6.621 15.448-8.828l421.517-39.724c0 0 2.207 0 2.207 0 11.034 0 19.862 8.828 22.069 19.862 0 11.034-8.828 22.069-19.862 24.276zM657.655 505.379c-88.276 0-158.897-70.621-158.897-158.897 0-13.241 8.828-22.069 22.069-22.069s22.069 8.828 22.069 22.069c0 64 50.759 114.759 114.759 114.759 13.241 0 22.069 8.828 22.069 22.069s-11.034 22.069-22.069 22.069zM1026.207 55.172l-156.69 158.897c24.276 39.724 39.724 83.862 39.724 134.621 0 136.828-112.552 249.379-249.379 249.379s-249.379-112.552-249.379-249.379 112.552-249.379 249.379-249.379c37.517 0 72.828 8.828 103.724 22.069l165.517-165.517c13.241-13.241 30.897-19.862 50.759-19.862s37.517 6.621 50.759 19.862c13.241 13.241 19.862 30.897 19.862 50.759s-11.034 35.31-24.276 48.552zM452.414 346.483c0 112.552 92.69 205.241 205.241 205.241s205.241-92.69 205.241-205.241-92.69-205.241-205.241-205.241-205.241 92.69-205.241 205.241zM993.103-13.241c-8.828-8.828-26.483-8.828-37.517 0l-154.483 156.69c13.241 11.034 26.483 22.069 39.724 35.31l154.483-154.483c4.414-4.414 6.621-11.034 6.621-17.655s-2.207-15.448-8.828-19.862z" />
<glyph unicode="&#xe90f;" glyph-name="icon_16" horiz-adv-x="851" d="M686.321 122.381v815.692c0 13.156-8.771 21.927-21.927 21.927h-556.951c-6.578 0-10.964-2.193-15.349-6.578l-85.516-85.516c-4.385-4.385-6.578-8.771-6.578-15.349v-727.983c0-13.156 8.771-21.927 21.927-21.927h642.467c13.156-2.193 21.927 8.771 21.927 19.734zM642.467 144.308h-598.612v699.478l72.36 72.36h526.253v-771.837zM831.041 826.244l-94.287 8.771c-13.156 2.193-21.927-6.578-24.12-19.734-2.193-10.964 6.578-21.927 19.734-24.12l72.36-6.578-78.938-804.728-607.383 61.396 2.193 13.156c2.193 10.964-6.578 21.927-19.734 24.12-13.156 0-21.927-6.578-24.12-19.734l-4.385-35.084c-2.193-10.964 6.578-21.927 19.734-24.12l653.43-63.589c0 0 2.193 0 2.193 0 4.385 0 10.964 2.193 13.156 4.385 4.385 4.385 6.578 8.771 8.771 15.349l83.323 848.582c0 10.964-8.771 21.927-21.927 21.927zM87.709 832.822c-13.156 0-21.927-8.771-21.927-21.927s8.771-21.927 21.927-21.927h63.589c0 0 0 0 0 0 13.156 0 21.927 8.771 21.927 21.927v63.589c0 13.156-8.771 21.927-21.927 21.927 0 0 0 0 0 0-13.156 0-21.927-8.771-21.927-21.927v-41.662h-41.662c0 0 0 0 0 0zM190.767 571.889h306.981c13.156 0 21.927 8.771 21.927 21.927s-8.771 21.927-21.927 21.927h-306.981c-13.156 0-21.927-8.771-21.927-21.927s8.771-21.927 21.927-21.927zM497.747 528.034h-306.981c-13.156 0-21.927-8.771-21.927-21.927s8.771-21.927 21.927-21.927h306.981c13.156 0 21.927 8.771 21.927 21.927s-10.964 21.927-21.927 21.927zM410.039 462.253h-219.272c-13.156 0-21.927-8.771-21.927-21.927s8.771-21.927 21.927-21.927h219.272c13.156 0 21.927 8.771 21.927 21.927s-10.964 21.927-21.927 21.927z" />
<glyph unicode="&#xe910;" glyph-name="icon_17" horiz-adv-x="942" d="M473.296 477.857c4.423 4.423 11.058 6.635 17.693 8.847h24.328v2.212h148.181c0 0 0 0 0 0 17.693 0 33.175-4.423 46.445-13.27l11.058-6.635c22.117-13.27 46.445-22.117 70.773-22.117h150.393v44.233h-150.393c-17.693 0-33.175 4.423-46.445 13.27l-11.058 6.635c-22.117 13.27-46.445 22.117-70.773 22.117 0 0 0 0 0 0h-161.451c0 0 0 0 0 0-4.423 0-8.847 0-13.27-2.212h-66.35c-4.423 0-8.847 2.212-13.27 2.212h-103.948c-22.117 0-42.022-6.635-59.715-17.693l-22.117-13.27c-11.058-6.635-22.117-11.058-35.387-11.058h-187.991v-44.233h187.991c22.117 0 42.022 6.635 59.715 17.693l22.117 13.27c6.635 4.423 15.482 8.847 24.328 8.847v0h121.641c2.212 0 2.212-2.212 4.423-2.212l-35.387-37.598c0 0-30.963-33.175-64.138-66.35l-13.27-15.482 13.27-15.482c30.963-35.387 79.62-46.445 121.641-28.752 24.328 8.847 46.445 22.117 68.562 37.598h39.81l72.985-68.562c8.847-8.847 112.795-117.218 143.758-145.97 6.635-4.423 2.212-17.693-4.423-26.54-8.847-11.058-19.905-11.058-30.963-2.212-30.963 26.54-128.276 119.43-128.276 119.43l-30.963-30.963c4.423-4.423 97.313-92.89 130.488-121.641-6.635-8.847-15.482-17.693-26.54-19.905-4.423-2.212-13.27-2.212-26.54 6.635-30.963 26.54-92.89 86.255-95.102 86.255l-30.963-33.175c2.212-2.212 64.138-61.927 97.313-88.467 0 0 0 0 0 0-6.635-8.847-15.482-15.482-24.328-17.693s-17.693 0-26.54 8.847c-22.117 17.693-59.715 55.292-59.715 55.292l-30.963-30.963c2.212-2.212 35.387-35.387 59.715-55.292-4.423-6.635-11.058-11.058-17.693-13.27-8.847-2.212-15.482-2.212-22.117 2.212-11.058 6.635-26.54 17.693-37.598 26.54 0 15.482-4.423 33.175-17.693 46.445-6.635 6.635-13.27 11.058-22.117 15.482 4.423 19.905 0 39.81-15.482 57.503-11.058 11.058-26.54 17.693-42.022 19.905 0 0 0 0 0 0-2.212 11.058-6.635 22.117-15.482 30.963v0c-22.117 22.117-55.292 24.328-79.62 6.635-2.212 4.423-4.423 8.847-8.847 11.058-2.212 2.212-2.212 2.212-2.212 2.212-24.328 24.328-61.927 24.328-86.255 2.212l-11.058-11.058c-22.117 13.27-48.657 19.905-72.985 19.905l2.212-44.233c15.482 0 30.963-2.212 46.445-11.058-6.635-19.905-2.212-44.233 15.482-61.927 2.212-8.847 13.27-15.482 26.54-17.693 0-15.482 4.423-30.963 17.693-44.233 11.058-13.27 28.752-17.693 44.233-17.693 2.212 0 4.423 0 6.635 0 2.212-11.058 6.635-19.905 15.482-26.54 11.058-11.058 26.54-17.693 42.022-19.905 0 0 0 0 2.212 0 8.847 0 17.693 2.212 26.54 6.635 2.212-6.635 6.635-11.058 11.058-17.693 11.058-11.058 26.54-17.693 42.022-17.693 0 0 0 0 0 0 15.482 0 30.963 6.635 42.022 17.693l13.27 13.27c11.058-6.635 24.328-15.482 33.175-22.117 11.058-6.635 24.328-11.058 37.598-11.058 6.635 0 15.482 2.212 22.117 4.423 17.693 6.635 33.175 17.693 44.233 33.175 4.423 0 8.847-2.212 13.27-2.212s11.058 0 15.482 2.212c22.117 4.423 42.022 19.905 57.503 44.233 2.212 0 2.212 0 4.423 0 6.635 0 13.27 0 17.693 2.212 26.54 6.635 44.233 28.752 57.503 46.445 2.212 0 2.212 0 4.423 0 19.905 0 37.598 11.058 48.657 24.328 15.482 17.693 22.117 44.233 13.27 64.138 13.27 6.635 28.752 11.058 44.233 8.847l4.423 44.233c-26.54 2.212-55.292-4.423-77.408-19.905-17.693 17.693-46.445 44.233-70.773 70.773 8.847 0 15.482 2.212 24.328 4.423l-13.27 42.022c-24.328-6.635-50.868-2.212-70.773 15.482v0l-86.255 79.62h-70.773l-6.635-4.423c-19.905-15.482-42.022-26.54-64.138-35.387-19.905-6.635-39.81-4.423-57.503 4.423 24.328 26.54 46.445 48.657 46.445 48.657l59.715 64.138zM179.145 148.32l22.117 22.117c6.635 6.635 17.693 6.635 24.328 0l2.212-2.212c2.212-2.212 4.423-6.635 4.423-8.847 0-4.423-2.212-6.635-4.423-8.847l-24.328-24.328c-6.635-6.635-17.693-6.635-24.328 0-6.635 4.423-6.635 15.482 0 22.117zM227.801 64.276c-6.635 6.635-6.635 17.693 0 24.328l4.423 4.423c0 0 0 0 0 0v0l24.328 24.328c0 0 0 0 0 0l33.175 33.175c2.212 2.212 6.635 4.423 11.058 4.423s8.847-2.212 11.058-4.423v0c6.635-6.635 6.635-17.693 0-24.328l-53.080-50.868c0 0 0 0 0 0l-11.058-11.058c-2.212-6.635-13.27-6.635-19.905 0zM302.998 13.408c-4.423 0-8.847 2.212-11.058 4.423-6.635 6.635-6.635 17.693 0 24.328l53.080 50.868c0 0 2.212 2.212 2.212 2.212l2.212 2.212c2.212 2.212 8.847 4.423 11.058 4.423 4.423 0 8.847-2.212 11.058-4.423 6.635-6.635 6.635-17.693 0-24.328l-15.482-15.482c0 0 0 0 0 0v0 0 0 0l-15.482-15.482c0 0 0 0 0 0l-26.54-26.54c-2.212-2.212-6.635-4.423-11.058-2.212zM413.581 2.35l-15.482-13.27c-2.212-2.212-6.635-4.423-11.058-4.423s-8.847 2.212-11.058 4.423c-6.635 6.635-6.635 17.693 0 24.328l15.482 15.482c2.212 2.212 6.635 4.423 11.058 4.423s8.847-2.212 11.058-4.423c6.635-8.847 4.423-19.905 0-26.54zM636.959 307.559v0 0zM150.393 842.782l72.985 72.985h526.376v-362.713h44.233v406.946h-588.302l-99.525-99.525v-329.538h44.233zM192.415 831.724v-44.233h86.255v86.255h-44.233v-42.022zM316.268 729.987h309.633v-44.233h-309.633v44.233zM316.268 641.521h176.933v-44.233h-176.933v44.233z" />
<glyph unicode="&#xe911;" glyph-name="icon_18" horiz-adv-x="1117" d="M1014.691 773.818c-30.255 0-60.509-16.291-60.509-46.545v-46.545h-46.545v-46.545h46.545v-512c0-13.964 9.309-23.273 23.273-23.273 6.982 0 13.964 2.327 16.291 6.982 4.655 0 11.636 2.327 20.945 2.327 30.255 0 55.855-25.6 55.855-55.855 0-39.564-30.255-69.818-69.818-69.818h-884.364c-39.564 0-69.818 30.255-69.818 69.818 0 30.255 25.6 55.855 55.855 55.855 6.982 0 16.291 0 20.945-2.327 2.327-4.655 9.309-6.982 16.291-6.982 13.964 0 23.273 9.309 23.273 23.273v512h279.273v-395.636c0-34.909 9.309-67.491 27.927-97.745l65.164-109.382 65.164 109.382c18.618 30.255 27.927 62.836 27.927 97.745v395.636h46.545v-535.273c0-13.964 9.309-23.273 23.273-23.273h162.909c13.964 0 23.273 9.309 23.273 23.273v837.818c0 13.964-9.309 23.273-23.273 23.273h-162.909c-13.964 0-23.273-9.309-23.273-23.273v-256h-46.545v244.364l-9.309 6.982c-23.273 18.618-53.527 27.927-83.782 27.927s-60.509-9.309-83.782-27.927l-9.309-6.982v-244.364h-279.273v46.545c0 30.255-30.255 46.545-60.509 46.545-58.182 0-102.4-39.564-102.4-93.091v-628.364c0-65.164 51.2-116.364 116.364-116.364h884.364c65.164 0 116.364 51.2 116.364 116.364v628.364c0 53.527-44.218 93.091-102.4 93.091zM721.455 913.455h116.364v-69.818h-46.545v-46.545h46.545v-69.818h-69.818v-46.545h69.818v-69.818h-46.545v-46.545h46.545v-69.818h-46.545v-46.545h46.545v-69.818h-69.818v-46.545h69.818v-69.818h-46.545v-46.545h46.545v-93.091h-116.364v791.273zM488.727 261.818v535.273h93.091v-535.273h-93.091zM535.273 119.855l-25.6 44.218c-9.309 16.291-16.291 32.582-18.618 51.2h88.436c-2.327-18.618-9.309-34.909-18.618-51.2l-25.6-44.218zM535.273 913.455v0c16.291 0 32.582-4.655 46.545-11.636v-58.182h-93.091v58.182c13.964 6.982 30.255 11.636 46.545 11.636zM46.545 680.727c0 34.909 30.255 46.545 55.855 46.545 4.655 0 11.636-2.327 13.964-2.327v-570.182c-4.655 0-9.309 0-13.964 0-20.945 0-39.564-6.982-55.855-16.291v542.255zM1014.691 154.764c-4.655 0-9.309 0-13.964 0v570.182c2.327 2.327 9.309 2.327 13.964 2.327 25.6 0 55.855-11.636 55.855-46.545v-542.255c-16.291 9.309-34.909 16.291-55.855 16.291z" />
<glyph unicode="&#xe912;" glyph-name="icon_19" d="M536.172 806.18h-48.343v-360.378l8.79-17.579 188.979-175.794 30.764 35.159-180.189 171.399v347.193zM514.197 960c-285.665 0-514.197-228.532-514.197-514.197 0-281.27 228.532-514.197 514.197-514.197 281.27 0 514.197 228.532 514.197 514.197 0 0 0 0 0 0-4.395 285.665-232.927 514.197-514.197 514.197v0zM514.197-15.657c-254.901 0-465.854 206.558-465.854 465.854 0 254.901 206.558 465.854 465.854 465.854 254.901 0 465.854-206.558 465.854-465.854 0 0 0 0 0 0-4.395-259.296-210.953-465.854-465.854-465.854v0z" />
<glyph unicode="&#xe913;" glyph-name="icon_20" horiz-adv-x="974" d="M934.15 592.045l-91.276 82.719-24.245-28.524 82.719-74.162-413.593-365.103-413.593 365.103 82.719 72.735-24.245 27.097-96.981-85.571c-22.819-17.114-35.655-44.212-35.655-72.735v-483.476c0-52.769 42.786-95.554 95.554-95.554h781.549c52.769 0 95.554 42.786 95.554 95.554v483.476c1.426 31.376-12.836 59.9-38.507 78.44zM666.028 316.791l260.992 231.042c7.131-9.983 9.983-21.393 9.983-32.802v-483.476c0-7.131-1.426-12.836-2.852-18.54l-268.123 303.777zM39.933 13.014c-1.426 5.705-2.852 12.836-2.852 18.54v482.050c0 11.409 4.279 22.819 9.983 32.802l260.992-229.616-268.123-303.777zM95.554-28.345c-12.836 0-24.245 4.279-32.802 9.983l272.401 310.908 139.766-124.078c2.852-2.852 7.131-4.279 12.836-4.279 4.279 0 8.557 1.426 11.409 4.279l139.766 124.078 272.401-310.908c-9.983-7.131-21.393-9.983-32.802-9.983h-782.975zM235.32 922.919h503.443v-446.396h37.081v464.936c0 9.983-8.557 18.54-18.54 18.54h-540.524c-9.983 0-18.54-8.557-18.54-18.54v-464.936h37.081v446.396zM326.596 810.251h229.616v-37.081h-229.616v37.081zM326.596 677.616h320.891v-37.081h-320.891v37.081z" />
<glyph unicode="&#xe914;" glyph-name="icon_21" horiz-adv-x="1026" d="M983.704 229.926c-2.37 9.481-11.852 14.222-18.963 16.593l-305.778 66.37c-9.481 2.37-18.963 0-23.704-7.111-21.333-21.333-40.296-47.407-49.778-75.852-128 52.148-232.296 156.444-286.815 284.444 28.444 11.852 54.519 28.444 75.852 49.778 7.111 7.111 9.481 16.593 7.111 26.074l-68.741 308.148c-4.741 7.111-9.481 14.222-18.963 18.963s-18.963 7.111-30.815 9.481c-14.222 2.37-30.815 4.741-45.037 4.741h-2.37c-118.519 0-215.704-97.185-215.704-215.704v-4.741c4.741-426.667 355.556-775.111 782.222-775.111h2.37c16.593 0 33.185 2.37 47.407 4.741 116.148 26.074 187.259 142.222 161.185 258.37-2.37 11.852-7.111 21.333-9.481 30.815zM253.63 557.037c0 0-2.37 0-2.37 0-7.111-2.37-11.852-7.111-16.593-14.222-2.37-7.111-2.37-14.222 0-21.333 59.259-165.926 189.63-296.296 357.926-355.556 0 0 2.37 0 2.37 0 14.222-2.37 28.444 4.741 33.185 21.333 4.741 26.074 18.963 49.778 35.556 68.741l274.963-59.259c0-2.37 2.37-7.111 2.37-9.481 2.37-11.852 4.741-23.704 4.741-35.556 0-87.704-71.111-161.185-161.185-161.185 0 0 0 0 0 0-395.852 0-722.963 324.741-727.704 722.963v2.37c0 87.704 73.481 158.815 158.815 158.815 2.37 0 2.37 0 4.741 0 11.852 0 21.333 0 33.185-2.37 2.37 0 4.741-2.37 9.481-2.37l61.63-277.333c-21.333-16.593-45.037-28.444-71.111-35.556zM708.741 471.704v-4.741h54.519v7.111c0 125.63-101.926 225.185-225.185 225.185h-7.111v-54.519h4.741c97.185-2.37 173.037-78.222 173.037-173.037zM583.111 960h-4.741v-54.519h4.741c213.333 0 386.37-173.037 388.741-388.741v-4.741h54.519v7.111c0 241.778-199.111 440.889-443.259 440.889z" />
<glyph unicode="&#xe915;" glyph-name="icon_22" horiz-adv-x="479" d="M317.217-64h-189.217v512h-128v178.087h128v100.174c0 144.696 38.957 233.739 205.913 233.739h139.13v-178.087h-83.478c-66.783 0-66.783-22.261-66.783-72.348v-83.478h155.826l-16.696-178.087h-139.13l-5.565-512z" />
<glyph unicode="&#xe916;" glyph-name="icon_23" d="M1024 659.423c0 40.756-10.189 86.607-25.473 122.269s-35.662 66.229-61.134 91.701c-25.473 25.473-56.040 45.851-91.701 61.134-40.756 15.284-81.512 25.473-122.269 25.473-50.945 0-71.323 0-208.876 0s-157.93 0-213.97-5.095c-40.756 0-86.607-10.189-122.269-25.473-35.662-10.189-66.229-30.567-91.701-56.040s-45.851-56.040-61.134-91.701c-15.284-40.756-20.378-81.512-20.378-122.269-5.095-56.040-5.095-71.323-5.095-213.97s0-157.93 5.095-213.97c0-40.756 10.189-86.607 25.473-122.269s35.662-66.229 61.134-91.701c25.473-25.473 56.040-45.851 91.701-61.134 40.756-15.284 81.512-25.473 122.269-25.473 56.040 0 71.323-5.095 213.97-5.095s157.93 0 213.97 5.095c40.756 0 86.607 10.189 122.269 25.473 71.323 25.473 122.269 81.512 152.836 152.836 15.284 40.756 25.473 81.512 25.473 122.269 0 56.040 5.095 71.323 5.095 213.97s-15.284 157.93-15.284 213.97zM932.299 236.577c0-30.567-5.095-66.229-15.284-96.796-15.284-45.851-50.945-81.512-96.796-96.796-30.567-10.189-61.134-15.284-96.796-15.284-56.040 0-71.323-5.095-208.876-5.095s-152.836 0-208.876 5.095c-30.567 0-66.229 5.095-96.796 15.284-20.378 10.189-40.756 20.378-61.134 40.756-15.284 15.284-30.567 35.662-40.756 61.134-10.189 30.567-15.284 61.134-15.284 96.796 0 56.040-5.095 71.323-5.095 208.876s0 152.836 5.095 208.876c0 30.567 5.095 66.229 15.284 96.796 15.284 15.284 30.567 35.662 45.851 50.945s35.662 30.567 61.134 40.756c25.473 10.189 61.134 15.284 91.701 15.284 56.040 0 71.323 5.095 208.876 5.095s152.836 0 208.876-5.095c30.567 0 66.229-5.095 96.796-15.284 20.378-10.189 40.756-20.378 61.134-40.756 15.284-15.284 30.567-35.662 40.756-61.134 10.189-30.567 15.284-61.134 15.284-96.796 0-56.040 5.095-71.323 5.095-208.876s-10.189-147.741-10.189-203.781v0zM514.547 710.368c-147.741 0-264.915-117.174-264.915-264.915s117.174-264.915 264.915-264.915 264.915 117.174 264.915 264.915v0c0 147.741-122.269 264.915-264.915 264.915zM514.547 277.333c-96.796 0-173.214 76.418-173.214 173.214s76.418 173.214 173.214 173.214c96.796 0 173.214-76.418 173.214-173.214-5.095-96.796-81.512-173.214-173.214-173.214zM789.652 781.692c-35.662 0-61.134-25.473-61.134-61.134s25.473-61.134 61.134-61.134c35.662 0 61.134 25.473 61.134 61.134s-30.567 61.134-61.134 61.134z" />
<glyph unicode="&#xe917;" glyph-name="icon_24" d="M52.245 479.347v-73.143c0-20.898 20.898-31.347 31.347-31.347 0 0 0 0 0 0h355.265v-355.265c0-20.898 20.898-31.347 31.347-31.347 0 0 0 0 0 0h73.143c20.898 0 31.347 20.898 31.347 31.347 0 0 0 0 0 0v355.265h355.265c20.898 0 31.347 20.898 31.347 31.347 0 0 0 0 0 0v73.143c0 20.898-20.898 31.347-31.347 31.347h-355.265v355.265c0 20.898-20.898 31.347-31.347 31.347h-62.694c-20.898 0-31.347-20.898-31.347-31.347v-355.265h-355.265c-31.347 10.449-41.796-10.449-41.796-31.347z" />
<glyph unicode="&#xe918;" glyph-name="icon_26" horiz-adv-x="595" d="M107.163 960l-107.163-119.070 369.116-392.93-369.116-392.93 107.163-119.070 488.186 512-488.186 512z" />
<glyph unicode="&#xe919;" glyph-name="icon_27" d="M14.841 25.043l74.203-74.203c14.841-29.681 44.522-29.681 74.203 0 0 0 0 0 0 0l356.174 356.174 356.174-356.174c14.841-29.681 44.522-29.681 59.362 0 0 0 0 0 0 0l74.203 74.203c29.681 14.841 29.681 44.522 0 59.362 0 0 0 0 0 0l-341.333 356.174 356.174 356.174c14.841 29.681 14.841 59.362-14.841 74.203 0 0 0 0 0 0l-74.203 74.203c-14.841 14.841-44.522 14.841-59.362 0l-356.174-356.174-356.174 356.174c-29.681 14.841-59.362 14.841-74.203 0l-74.203-74.203c-14.841-14.841-14.841-44.522 0-74.203l356.174-356.174-356.174-356.174c-14.841-14.841-14.841-44.522 0-59.362z" />
<glyph unicode="&#xe91a;" glyph-name="icon_28" d="M0 960h292.571v-292.571h-292.571v292.571zM365.714 960h292.571v-292.571h-292.571v292.571zM731.429 960h292.571v-292.571h-292.571v292.571zM0 594.286h292.571v-292.571h-292.571v292.571zM365.714 594.286h292.571v-292.571h-292.571v292.571zM731.429 594.286h292.571v-292.571h-292.571v292.571zM0 228.571h292.571v-292.571h-292.571v292.571zM365.714 228.571h292.571v-292.571h-292.571v292.571zM731.429 228.571h292.571v-292.571h-292.571v292.571z" />
<glyph unicode="&#xe91b;" glyph-name="icon_29" horiz-adv-x="1170" d="M0 960h292.571v-292.571h-292.571v292.571zM438.857 960h731.429v-146.286h-731.429v146.286zM0 594.286h292.571v-292.571h-292.571v292.571zM0 228.571h292.571v-292.571h-292.571v292.571zM438.857 740.571h731.429v-73.143h-731.429v73.143zM438.857 594.286h731.429v-146.286h-731.429v146.286zM438.857 374.857h731.429v-73.143h-731.429v73.143zM438.857 228.571h731.429v-146.286h-731.429v146.286zM438.857 9.143h731.429v-73.143h-731.429v73.143z" />
<glyph unicode="&#xe91c;" glyph-name="icon_30" d="M512 163.556l-512 568.889h1024l-512-568.889z" />
<glyph unicode="&#xe91d;" glyph-name="icon_31" horiz-adv-x="647" d="M528.168-68.851l118.568 118.568-398.821 398.821 398.821 388.042-118.568 118.568-528.168-506.611 528.168-517.389z" />
<glyph unicode="&#xe91e;" glyph-name="icon_32" horiz-adv-x="647" d="M118.568 960l-118.568-118.568 398.821-398.821-398.821-388.042 118.568-118.568 528.168 506.611-528.168 517.389z" />
<glyph unicode="&#xe91f;" glyph-name="icon_33" horiz-adv-x="982" d="M981.53 738.212c-4.719 4.719-9.438 9.438-18.876 9.438h-721.991l-18.876 84.94v4.719l-188.756 122.691c-9.438 4.719-23.594 0-28.313-9.438 0 0 0-4.719 0-4.719-4.719-4.719-4.719-14.157-4.719-18.876s4.719-14.157 9.438-14.157l169.88-113.253 141.567-641.77h509.641c14.157 4.719 23.594 18.876 23.594 33.032 0 9.438-9.438 18.876-23.594 23.594h-476.608l-18.876 80.221h514.359c9.438 0 18.876 9.438 23.594 18.876l108.535 405.825c4.719 4.719 0 9.438 0 18.876zM835.244 346.544h-509.641l-75.502 349.198h679.521l-94.378-349.198zM707.834 134.194c-56.627 0-99.097-42.47-99.097-99.097s42.47-99.097 99.097-99.097c56.627 0 99.097 42.47 99.097 99.097s-47.189 99.097-99.097 99.097zM750.304 35.097c0-23.594-18.876-42.47-42.47-42.47 0 0 0 0 0 0-23.594 0-42.47 18.876-42.47 42.47s18.876 42.47 42.47 42.47c23.594 4.719 42.47-14.157 42.47-42.47 0 0 0 0 0 0zM443.576 134.194c-56.627 0-99.097-42.47-99.097-99.097s42.47-99.097 99.097-99.097c56.627 0 99.097 42.47 99.097 99.097s-47.189 99.097-99.097 99.097zM486.046 35.097c0-23.594-18.876-42.47-42.47-42.47 0 0 0 0 0 0-23.594 0-42.47 18.876-42.47 42.47s18.876 42.47 42.47 42.47c23.594 4.719 42.47-14.157 42.47-42.47 0 0 0 0 0 0z" />
<glyph unicode="&#xe920;" glyph-name="icon_35" d="M1024 504.889h-455.111v455.111h-113.778v-455.111h-455.111v-113.778h455.111v-455.111h113.778v455.111h455.111z" />
<glyph unicode="&#xe921;" glyph-name="icon_36" horiz-adv-x="1048" d="M326.16 296.177l336.54 336.54 47.591-47.591-336.54-336.54-47.591 47.591zM418.254 450.404c0 0 0 0 0 0 24.038 0 48.075 9.615 67.305 28.845s28.845 43.268 28.845 67.305c0 24.038-9.615 48.075-28.845 67.305-19.23 14.423-43.268 24.038-67.305 24.038 0 0 0 0 0 0-52.883 0-91.343-43.268-91.343-91.343 0-24.038 9.615-48.075 28.845-67.305 14.423-19.23 38.46-28.845 62.498-28.845zM437.484 522.516c-4.808-4.808-14.423-9.615-19.23-9.615 0 0 0 0 0 0-9.615 0-14.423 4.808-19.23 9.615s-9.615 14.423-9.615 19.23c0 9.615 4.808 14.423 9.615 19.23s14.423 9.615 19.23 9.615v0c0 0 0 0 0 0 4.808 0 14.423-4.808 19.23-9.615s9.615-14.423 9.615-19.23c0-4.808-4.808-14.423-9.615-19.23zM615.362 435.981c0 0 0 0 0 0-52.883 0-91.343-43.268-91.343-91.343 0-24.038 9.615-48.075 28.845-67.305s43.268-28.845 67.305-28.845c0 0 0 0 0 0 24.038 0 48.075 9.615 67.305 28.845s28.845 43.268 28.845 67.305c0 24.038-9.615 48.075-28.845 67.305-24.038 14.423-43.268 24.038-72.113 24.038zM634.592 325.408c-4.808-4.808-14.423-9.615-19.23-9.615-14.423 0-28.845 14.423-28.845 28.845 0 9.615 4.808 14.423 9.615 19.23s14.423 9.615 19.23 9.615 14.423-4.808 19.23-9.615c14.423-14.423 14.423-28.845 0-38.46zM995.155 373.484c24.038 19.23 52.883 43.268 52.883 76.92s-28.845 57.69-52.883 76.92c-4.808 4.808-24.038 19.23-24.038 24.038 0 14.423 4.808 24.038 14.423 33.653 19.23 24.038 24.038 57.69 14.423 91.343-19.23 28.845-57.69 38.46-86.535 43.268v0h-4.808c-4.808 0-14.423 0-19.23 0-14.423 4.808-24.038 24.038-14.423 43.268v4.808c4.808 33.653-4.808 62.498-24.038 86.535l-4.808 4.808c-28.845 14.423-62.498 19.23-91.343 4.808-9.615-4.808-24.038-4.808-38.46-4.808-4.808 4.808-14.423 24.038-19.23 33.653-9.615 24.038-24.038 57.69-57.69 67.305s-57.69-14.423-86.535-33.653c-9.615-4.808-24.038-19.23-33.653-19.23-4.808 0-24.038 14.423-33.653 19.23-19.23 19.23-48.075 38.46-76.92 33.653-33.653-9.615-48.075-43.268-62.498-67.305-4.808-9.615-14.423-28.845-19.23-33.653-14.423 0-24.038 0-38.46 4.808-28.845 9.615-62.498 9.615-91.343-4.808v-4.808c-24.038-24.038-33.653-52.883-28.845-86.535v-4.808c4.808-4.808 4.808-14.423 0-19.23 0-14.423-14.423-24.038-33.653-24.038v0h-4.808c-28.845-4.808-62.498-14.423-76.92-48.075-9.615-28.845-4.808-62.498 14.423-86.535 4.808-9.615 9.615-24.038 9.615-38.46 0-4.808-9.615-9.615-28.845-24.038s-48.075-38.46-48.075-72.113c0-33.653 28.845-57.69 52.883-76.92 4.808-4.808 24.038-19.23 24.038-24.038 0-14.423-4.808-24.038-14.423-33.653-14.423-28.845-19.23-62.498-9.615-96.15 14.423-28.845 52.883-38.46 81.728-43.268h9.615c4.808 0 14.423 0 19.23 0 9.615-4.808 14.423-9.615 14.423-19.23 4.808-9.615 4.808-14.423 0-24.038v-4.808c-4.808-33.653 4.808-62.498 24.038-86.535l4.808-4.808c28.845-14.423 62.498-19.23 91.343-4.808 9.615 4.808 24.038 4.808 38.46 4.808 4.808-4.808 14.423-24.038 19.23-33.653 14.423-28.845 28.845-62.498 62.498-67.305 4.808 0 9.615 0 14.423 0 28.845 0 48.075 19.23 72.113 38.46 9.615 4.808 24.038 19.23 28.845 19.23s24.038-14.423 28.845-19.23c19.23-19.23 43.268-33.653 72.113-38.46v0c4.808 0 9.615 0 14.423 0 33.653 9.615 48.075 43.268 62.498 67.305 4.808 9.615 14.423 24.038 19.23 28.845 14.423 0 24.038 0 38.46-4.808 28.845-14.423 62.498-9.615 91.343 4.808l4.808 4.808c19.23 24.038 28.845 57.69 24.038 86.535v4.808c-4.808 4.808-4.808 14.423 0 19.23 0 9.615 4.808 14.423 14.423 19.23 4.808 4.808 14.423 4.808 24.038 4.808h9.615c28.845 4.808 67.305 14.423 81.728 48.075 9.615 28.845 4.808 62.498-14.423 91.343-4.808 9.615-9.615 24.038-14.423 33.653-19.23 4.808-14.423 14.423 4.808 28.845zM812.469 123.493c0-9.615 0-28.845 0-33.653-9.615 0-28.845 4.808-33.653 4.808-24.038 9.615-52.883 9.615-81.728 0h-4.808c-24.038-14.423-38.46-38.46-48.075-62.498-9.615-19.23-14.423-28.845-19.23-33.653-9.615 4.808-24.038 14.423-28.845 19.23-14.423 14.423-33.653 24.038-52.883 33.653l9.615 9.615-33.653-4.808c-28.845-4.808-52.883-19.23-72.113-38.46-14.423-9.615-24.038-19.23-28.845-19.23-4.808 4.808-14.423 24.038-19.23 28.845-9.615 24.038-24.038 48.075-48.075 62.498h-4.808c-14.423 4.808-24.038 4.808-38.46 4.808s-28.845-4.808-43.268-9.615c-9.615 0-24.038-4.808-33.653-4.808 0 4.808 0 24.038 0 33.653 9.615 19.23 9.615 28.845 9.615 38.46 0 48.075-43.268 86.535-91.343 86.535 0 0 0 0 0 0-19.23 4.808-28.845 9.615-33.653 9.615 0 9.615 9.615 24.038 14.423 33.653 14.423 24.038 24.038 52.883 19.23 76.92v4.808c-9.615 24.038-28.845 48.075-48.075 62.498-4.808 4.808-24.038 19.23-28.845 24.038 0 4.808 19.23 19.23 28.845 24.038 14.423 9.615 33.653 33.653 43.268 57.69v4.808c0 28.845-4.808 57.69-19.23 76.92-4.808 4.808-9.615 24.038-14.423 33.653 9.615 0 24.038 4.808 33.653 9.615 9.615 0 19.23 0 28.845 4.808 24.038 4.808 43.268 24.038 57.69 43.268 9.615 19.23 9.615 43.268 4.808 67.305 0 9.615 0 28.845 0 33.653 9.615 0 28.845-4.808 33.653-4.808 24.038-9.615 52.883-9.615 81.728 0h4.808c24.038 14.423 38.46 38.46 48.075 62.498 9.615 19.23 14.423 28.845 19.23 33.653 4.808-4.808 19.23-14.423 28.845-19.23 4.808-4.808 9.615-14.423 19.23-19.23 19.23-14.423 43.268-19.23 72.113-19.23 24.038 4.808 43.268 14.423 62.498 33.653 14.423 9.615 24.038 19.23 28.845 19.23 4.808-4.808 14.423-24.038 19.23-28.845 9.615-24.038 24.038-48.075 48.075-62.498h4.808c24.038-9.615 52.883-9.615 81.728 0 4.808 0 28.845 4.808 33.653 4.808 0-4.808 0-24.038 0-33.653s-4.808-19.23-4.808-28.845c0-48.075 43.268-91.343 96.15-86.535 19.23-4.808 28.845-9.615 33.653-9.615 0-9.615-9.615-24.038-14.423-33.653-14.423-24.038-24.038-52.883-19.23-76.92v-4.808c9.615-24.038 28.845-48.075 48.075-62.498 4.808-4.808 24.038-19.23 28.845-24.038 0-4.808-24.038-19.23-28.845-24.038-24.038-14.423-43.268-33.653-52.883-62.498v-4.808c0-28.845 4.808-57.69 19.23-76.92 9.615-14.423 14.423-28.845 14.423-33.653-4.808-4.808-24.038-9.615-33.653-9.615s-19.23 0-28.845-4.808c-52.883-4.808-81.728-57.69-67.305-105.765z" />
<glyph unicode="&#xe922;" glyph-name="icon_37" horiz-adv-x="1127" d="M1121.251 387.933c0 0 0 5.721 0 0l-160.179 291.754c-5.721 11.441-17.162 17.162-34.324 17.162h-205.944v-62.927h183.061l125.855-223.106h-286.034l148.737 200.223h-177.341v348.961h-303.196v-348.961h-183.061l148.737-200.223h-286.034l120.134 223.106h183.061v62.927h-205.944c-5.721 0-22.883-5.721-28.603-22.883l-154.458-280.313c-5.721-5.721-5.721-11.441-5.721-17.162 0 0 0 0 0-5.721v-400.447c0-22.883 17.162-40.045 34.324-40.045h1052.603c22.883 0 34.324 17.162 34.324 40.045v400.447c5.721 5.721 0 11.441 0 17.162zM497.698 525.229v348.961h131.575v-348.961h91.531l-154.458-200.223c0 0 0 0 0 0s0 0 0 0l-160.179 200.223h91.531zM394.726 336.447c17.162-68.648 74.369-125.855 143.017-137.296 0 0 0 0 0 0l22.883-28.603 22.883 28.603c74.369 11.441 131.575 62.927 148.737 137.296h320.358v-320.358h-978.235v320.358h320.358z" />
<glyph unicode="&#xe923;" glyph-name="icon_38" d="M984.615 233.573c-4.376 8.752-13.128 17.504-21.88 17.504l-306.325 70.017c-8.752 4.376-21.88 0-30.632-8.752-21.88-21.88-39.385-43.761-48.137-74.393-122.53 52.513-218.803 148.786-275.692 271.316 30.632 13.128 52.513 30.632 74.393 48.137 8.752 8.752 13.128 21.88 8.752 30.632l-65.641 306.325c-4.376 8.752-13.128 17.504-21.88 21.88s-21.88 8.752-30.632 8.752c-13.128 4.376-30.632 4.376-43.761 4.376h-4.376c-118.154 0-218.803-96.274-218.803-218.803v-4.376c4.376-424.479 354.462-770.188 778.94-774.564v0 0c17.504 0 35.009 0 48.137 4.376 118.154 26.256 188.171 144.41 161.915 262.564 0 17.504-4.376 26.256-4.376 35.009zM253.812 561.778v0c-8.752-4.376-17.504-8.752-21.88-17.504s-4.376-17.504 0-26.256c61.265-166.291 188.171-293.197 354.462-354.462h4.376c17.504-4.376 35.009 8.752 39.385 26.256 4.376 21.88 17.504 43.761 30.632 61.265l266.94-56.889c0 0 0-4.376 0-4.376 4.376-13.128 4.376-21.88 4.376-35.009 0-39.385-17.504-78.769-43.761-109.402-30.632-30.632-65.641-43.761-109.402-43.761 0 0 0 0 0 0-389.47 0-708.923 319.453-713.299 708.923h-8.752l8.752 4.376c0 83.145 70.017 153.162 153.162 153.162 0 0 4.376 0 4.376 0 8.752 0 21.88 0 30.632-4.376 0 0 4.376 0 4.376 0l61.265-266.94c-17.504-17.504-39.385-30.632-65.641-35.009zM700.171 474.256v-8.752h65.641v13.128c0 126.906-105.026 227.556-227.556 227.556h-13.128v-65.641h8.752c96.274-4.376 166.291-78.769 166.291-166.291zM582.017 960h-8.752v-65.641h8.752c210.051 0 376.342-170.667 376.342-376.342v-8.752h65.641v8.752c0 245.060-196.923 441.983-441.983 441.983z" />
<glyph unicode="&#xe924;" glyph-name="icon_39" horiz-adv-x="1431" d="M1299.462 960h-1167.719c-71.86 0-131.743-59.883-131.743-131.743v-760.515c0-71.86 59.883-131.743 131.743-131.743h1167.719c71.86 0 131.743 59.883 131.743 131.743v760.515c0 71.86-59.883 131.743-131.743 131.743zM1275.509 870.175l-503.018-431.158c-35.93-29.942-83.836-29.942-119.766 0l-497.029 431.158c0 0 0 0 0 0v0c0 0 0 0 0 0h1119.813zM149.708 25.825l395.228 395.228c0 0 0 0 0 0s0 0 0 0l53.895-41.918c65.871-53.895 161.684-53.895 227.556 0l53.895 41.918c0 0 0 0 5.988 0l395.228-395.228c0 0 0 0 0 0v0c0 0 0 0 0 0h-1131.789c0 0 0 0 0 0zM946.152 474.947v0l395.228 341.333c0 0 0 0 0 0v-730.573c0 0 0 0 0 0v0l-395.228 389.24zM95.813 73.731l-11.977 5.988v730.573c0 0 0 0 5.988 0 0 0 0 0 0 0l389.24-329.357c0 0 0 0 0-5.988l-395.228-395.228 11.977-5.988z" />
<glyph unicode="&#xe925;" glyph-name="icon_40" horiz-adv-x="603" d="M369.778-64h-159.289c-39.822 0-73.956 34.133-73.956 73.956v324.267h-62.578c-39.822 0-73.956 34.133-73.956 73.956v147.911c0 39.822 34.133 73.956 73.956 73.956h62.578v51.2c0 73.956 22.756 142.222 73.956 199.111 56.889 51.2 125.156 79.644 204.8 79.644h119.467c22.756 0 39.822-5.689 51.2-22.756s22.756-34.133 22.756-51.2v-136.533c0-39.822-34.133-73.956-73.956-73.956h-85.333c-5.689 0-5.689 0-5.689 0s0-5.689 0-5.689v-28.444h79.644c11.378 0 22.756-5.689 34.133-11.378 22.756-11.378 39.822-39.822 39.822-68.267v-147.911c0-39.822-34.133-73.956-73.956-73.956h-79.644v-318.578c0-51.2-34.133-85.333-73.956-85.333zM73.956 578.844c-11.378 0-17.067-11.378-17.067-22.756v-147.911c0-11.378 5.689-17.067 17.067-17.067h119.467v-375.467c0-11.378 5.689-17.067 17.067-17.067h153.6c11.378 0 17.067 5.689 17.067 17.067v375.467h136.533c11.378 0 17.067 5.689 17.067 17.067v147.911c0 5.689-5.689 11.378-11.378 17.067 0 0-5.689 0-11.378 0 0 0 0 0 0 0h-125.156v91.022c0 22.756 5.689 39.822 11.378 45.511v0c11.378 11.378 28.444 17.067 51.2 17.067h79.644c11.378 0 17.067 5.689 17.067 17.067v142.222c0 5.689 0 11.378-5.689 11.378 0 5.689-5.689 5.689-11.378 5.689h-119.467c-56.889 0-119.467-22.756-159.289-62.578-39.822-45.511-62.578-102.4-56.889-159.289v-102.4h-119.467zM443.733 681.244v0 0z" />
<glyph unicode="&#xe926;" glyph-name="icon_41" horiz-adv-x="1085" d="M1042.395 610.491l-300.455 30.659c-18.395 0-36.79 12.263-42.922 30.659l-110.371 257.533c-12.263 24.527-36.79 36.79-67.449 24.527-12.263 0-18.395-12.263-24.527-24.527l-110.371-257.533c-6.132-18.395-24.527-30.659-42.922-36.79l-294.323-24.527c-30.659-6.132-49.054-30.659-49.054-55.186 0-12.263 6.132-24.527 18.395-36.79l226.874-196.216c12.263-12.263 18.395-30.659 18.395-49.054l-67.449-275.928c-6.132-30.659 12.263-55.186 36.79-61.317 12.263 0 24.527 0 36.79 6.132l251.401 147.162c18.395 12.263 36.79 12.263 55.186 0l251.401-147.162c24.527-12.263 55.186-6.132 73.581 18.395 6.132 12.263 6.132 24.527 6.132 36.79l-67.449 275.928c-6.132 18.395 0 36.79 18.395 49.054l226.874 196.216c18.395 18.395 24.527 55.186 0 73.581-18.395 12.263-30.659 18.395-42.922 18.395z" />
<glyph unicode="&#xe927;" glyph-name="icon_42" horiz-adv-x="768" d="M768 896c0 4.267 0 4.267 0 8.533 0 17.067-8.533 29.867-21.333 42.667s-29.867 17.067-42.667 17.067h-469.333c0 0 0 0-4.267 0 0 0 0 0-4.267 0 0-4.267-4.267-8.533-8.533-8.533l-213.333-213.333c0-4.267-4.267-8.533-4.267-12.8 0 0 0 0 0-4.267 0 0 0 0 0-4.267v-725.333c0-4.267 0-4.267 0-8.533 0-17.067 8.533-29.867 21.333-42.667 12.8-4.267 25.6-8.533 38.4-8.533 0 0 4.267 0 4.267 0h640c4.267 0 4.267 0 8.533 0 17.067 0 29.867 8.533 42.667 21.333s17.067 29.867 17.067 42.667l-4.267 896zM213.333 887.467v-119.467c0-12.8-8.533-21.333-21.333-21.333h-119.467l140.8 140.8zM721.067-17.067c-4.267-4.267-8.533-4.267-12.8-4.267h-4.267c0 0 0 0 0 0h-640c-4.267 0-8.533 0-12.8 4.267s-8.533 8.533-8.533 17.067v704h149.333c0 0 4.267 0 4.267 0s4.267 0 4.267 0c17.067 0 29.867 8.533 42.667 21.333 8.533 12.8 12.8 25.6 12.8 42.667v149.333h448c4.267 0 8.533 0 12.8-4.267s8.533-8.533 8.533-17.067v-896c0-4.267 0-12.8-4.267-17.067zM576 448h-341.333c-12.8 0-21.333-8.533-21.333-21.333s8.533-21.333 21.333-21.333h341.333c12.8 0 21.333 8.533 21.333 21.333s-8.533 21.333-21.333 21.333zM576 234.667h-341.333c-12.8 0-21.333-8.533-21.333-21.333s8.533-21.333 21.333-21.333h341.333c12.8 0 21.333 8.533 21.333 21.333s-8.533 21.333-21.333 21.333z" />
<glyph unicode="&#xe928;" glyph-name="icon_43" horiz-adv-x="609" d="M608.671 809.622c3.58 14.322-7.161 25.063-21.483 28.643l-93.091 17.902 103.832 57.287c10.741 3.58 14.322 17.902 10.741 28.643-3.58 14.322-17.902 21.483-32.224 17.902l-243.469-53.706c-10.741-3.58-17.902-10.741-25.063-17.902-7.161-17.902 0-39.385 14.322-46.545l25.063-14.322c0-3.58 0-7.161 0-10.741s0-7.161 0-10.741h-42.965c-132.476 0-239.888-107.413-239.888-239.888v-150.378h-7.161c-7.161 0-14.322-7.161-17.902-14.322l-39.385-311.497c0 0 0 0 0-3.58 0-10.741 7.161-17.902 17.902-17.902h125.315c0 0 0 0 3.58 0 10.741 0 17.902 10.741 14.322 17.902l-35.804 311.497c0 7.161-7.161 14.322-17.902 14.322h-7.161v150.378c0 114.573 93.091 204.084 204.084 204.084h7.161c-60.867-32.224-103.832-100.252-100.252-175.441v-576.448c0-46.545 35.804-82.35 82.35-82.35h225.566c46.545 0 82.35 35.804 82.35 82.35v580.028c0 0 0 3.58 0 3.58 0 78.769-46.545 143.217-114.573 175.441l96.671 10.741c14.322 3.58 25.063 10.741 25.063 25.063zM121.734 104.28h-85.93l35.804 275.692h17.902l32.224-275.692zM340.14 870.49c0 0 0 0 0 0v0l186.182 42.965-85.93-46.545c-10.741 7.161-21.483 10.741-32.224 10.741-17.902 0-32.224-7.161-42.965-17.902l-25.063 10.741zM404.587 795.301c-3.58 0-3.58 0-7.161 0-7.161 3.58-14.322 10.741-14.322 21.483 0 14.322 10.741 25.063 25.063 25.063s25.063-10.741 25.063-25.063v0c0-10.741-7.161-17.902-14.322-21.483-3.58-3.58-10.741 0-14.322 0zM569.287 197.371h-214.825v279.273h211.245v-279.273zM569.287 594.797v-82.35h-229.147c-10.741 0-17.902-7.161-17.902-17.902v-315.077c0-10.741 7.161-17.902 17.902-17.902h229.147v-143.217c0-25.063-21.483-46.545-46.545-46.545h-229.147c-25.063 0-46.545 21.483-46.545 46.545v576.448c0 89.51 71.608 161.119 161.119 161.119 0 0 0 0 0 0s0 0 0 0c89.51 0 161.119-71.608 161.119-161.119zM465.455 806.042c0 3.58 0 3.58 0 7.161s0 7.161 0 10.741l53.706-10.741-53.706-7.161z" />
<glyph unicode="&#xe929;" glyph-name="icon_44" horiz-adv-x="670" d="M334.844 270.844c66.19 0 120.7 54.51 120.7 120.7s-54.51 120.7-120.7 120.7c-66.19 0-120.7-54.51-120.7-120.7s54.51-120.7 120.7-120.7zM334.844 484.989c50.616 0 89.551-38.935 89.551-89.551s-38.935-89.551-89.551-89.551c-50.616 0-89.551 38.935-89.551 89.551 0 46.722 42.829 89.551 89.551 89.551zM654.114-28.958h-140.167v327.057h54.51v-50.616c0-7.787 7.787-15.574 15.574-15.574h58.403c7.787 0 15.574 7.787 15.574 15.574v292.015c0 7.787-7.787 15.574-15.574 15.574h-58.403c-7.787 0-15.574-7.787-15.574-15.574v-46.722h-54.51v116.806h31.148c7.787 0 15.574 7.787 15.574 15.574v73.977c0 7.787-7.787 15.574-15.574 15.574h-31.148v27.255c0 77.871-54.51 140.167-124.593 159.635v42.829c0 7.787-7.787 15.574-15.574 15.574h-77.871c-7.787 0-15.574-7.787-15.574-15.574v-42.829c-70.084-19.468-124.593-81.764-124.593-159.635v-27.255h-31.148c-7.787 0-15.574-7.787-15.574-15.574v-73.977c0-7.787 7.787-15.574 15.574-15.574h31.148v-116.806h-54.51v50.616c0 7.787-7.787 15.574-15.574 15.574h-58.403c-7.787 0-15.574-7.787-15.574-15.574v-292.015c0-7.787 7.787-15.574 15.574-15.574h58.403c7.787 0 15.574 7.787 15.574 15.574v46.722h54.51v-327.057h-140.167c-7.787 0-15.574-7.787-15.574-15.574s7.787-15.574 15.574-15.574h638.54c7.787 0 15.574 7.787 15.574 15.574s-7.787 15.574-15.574 15.574zM603.498 523.924h23.361v-260.867h-23.361v260.867zM572.35 457.734v-124.593h-54.51v124.593h54.51zM311.483 924.958h42.829v-19.468c0 0-3.894 0-3.894 0h-31.148c-3.894 0-3.894 0-7.787 0v19.468zM190.783 741.962c0 70.084 58.403 128.487 128.487 128.487h31.148c70.084 0 128.487-58.403 128.487-128.487v-27.255h-288.122v27.255zM144.061 679.665h385.46v-38.935h-385.46v38.935zM482.798 605.688v-638.54h-292.015v638.54h292.015zM42.829 263.057v260.867h23.361v-50.616c0 0 0 0 0 0v-159.635c0 0 0 0 0 0v-50.616h-23.361zM101.232 333.141v124.593h54.51v-124.593h-54.51z" />
<glyph unicode="&#xe92a;" glyph-name="icon_45" horiz-adv-x="918" d="M566.718 631.695c15.634-11.725 35.176-19.542 58.626-19.542 3.908 0 11.725 0 15.634 0 27.359 3.908 50.809 19.542 62.534 39.084 15.634 19.542 23.45 46.901 15.634 74.26-3.908 27.359-19.542 50.809-39.084 62.534-19.542 15.634-46.901 23.45-74.26 15.634-27.359-3.908-50.809-19.542-62.534-39.084-15.634-19.542-23.45-46.901-15.634-74.26 3.908-19.542 15.634-42.992 39.084-58.626zM574.534 745.038c7.817 11.725 23.45 23.45 39.084 23.45 3.908 0 7.817 0 7.817 0 11.725 0 23.45-3.908 35.176-11.725s23.45-23.45 23.45-39.084c3.908-15.634 0-31.267-11.725-42.992s-23.45-23.45-39.084-23.45c-15.634-3.908-31.267 0-42.992 11.725-11.725 7.817-23.45 23.45-23.45 39.084s3.908 31.267 11.725 42.992zM218.87 123.603c15.634 0 35.176 7.817 42.992 19.542l101.618 125.069 97.71-62.534v-144.611c0-31.267 27.359-58.626 54.718-58.626 31.267 0 58.626 27.359 58.626 58.626v175.878c0 19.542-7.817 35.176-27.359 46.901l-85.985 54.718 85.985 121.16 58.626-62.534c11.725-11.725 27.359-19.542 42.992-19.542 11.725 0 23.45 3.908 31.267 11.725l144.611 101.618c27.359 19.542 31.267 54.718 15.634 78.168-19.542 27.359-54.718 31.267-78.168 15.634l-101.618-70.351c-15.634 19.542-42.992 50.809-66.443 78.168-23.45 19.542-54.718 42.992-85.985 54.718-27.359 11.725-70.351 31.267-132.885 58.626-19.542 7.817-39.084 7.817-54.718-3.908l-152.427-105.527c-23.45-19.542-31.267-50.809-15.634-78.168 7.817-11.725 19.542-19.542 35.176-23.45s31.267 0 42.992 7.817l125.069 85.985 39.084-19.542-101.618-144.611c-15.634-23.45-19.542-50.809-11.725-78.168l-82.076-101.618-125.069 39.084c0 0-3.908 0-3.908 0-15.634 3.908-31.267 0-42.992-7.817s-23.45-19.542-27.359-31.267c-7.817-31.267 11.725-62.534 39.084-66.443l160.244-46.901c11.725-7.817 15.634-7.817 19.542-7.817zM39.084 233.038c0 3.908 3.908 7.817 7.817 11.725s7.817 3.908 15.634 0l136.794-42.992c7.817-3.908 15.634 0 19.542 7.817l97.71 121.16c3.908 7.817 3.908 15.634 3.908 19.542-7.817 15.634-3.908 39.084 3.908 54.718l117.252 164.153c0 0 0 0 0 0s0 0 0 0 0 0 0 3.908c0 0 0 3.908 0 3.908s0 3.908 0 3.908c0 0 0 3.908 0 3.908s0 3.908 0 3.908c0 0 0 0 0 3.908 0 0 0 3.908-3.908 3.908 0 0 0 0 0 0s0 0 0 0 0 0 0 0l-74.26 35.176c-3.908 0-11.725 0-19.542-3.908l-136.794-93.802c0-3.908-3.908-3.908-11.725-3.908-3.908 0-7.817 3.908-11.725 7.817-3.908 7.817-3.908 19.542 3.908 23.45l152.427 105.527c3.908 3.908 11.725 3.908 15.634 0 62.534-27.359 105.527-46.901 132.885-58.626s50.809-27.359 70.351-50.809c35.176-39.084 78.168-89.893 78.168-89.893 7.817-7.817 19.542-7.817 27.359-3.908l117.252 82.076c7.817 3.908 19.542 3.908 23.45-3.908s3.908-19.542-3.908-23.45l-144.611-101.618c-7.817-3.908-15.634-3.908-23.45 3.908l-78.168 82.076c0 0 0 0 0 0s0 0 0 0 0 0-3.908 0c0 0 0 0-3.908 0 0 0-3.908 0-3.908 0s-3.908 0-3.908 0c0 0-3.908 0-3.908 0s-3.908 0-3.908 0c0 0-3.908 0-3.908-3.908 0 0 0 0 0 0s0 0 0 0 0 0 0 0l-113.344-156.336c0 0 0 0 0 0s0 0 0 0 0-3.908 0-3.908c0 0 0-3.908 0-3.908s0-3.908 0-3.908c0 0 0-3.908 0-3.908s0-3.908 0-3.908c0 0 0-3.908 0-3.908s0-3.908 3.908-3.908c0 0 0 0 3.908-3.908 0 0 0 0 0 0s0 0 0 0l101.618-66.443c3.908-3.908 7.817-7.817 7.817-15.634v-168.061c0-7.817-7.817-19.542-19.542-19.542s-15.634 7.817-15.634 19.542v156.336c0 7.817-3.908 11.725-7.817 15.634l-117.252 78.168c0 0 0 0 0 0s0 0 0 0v0c0 0 0 0-3.908 0 0 0-3.908 0-3.908 0s-3.908 0-3.908 0c0 0 0 0 0 0-3.908 0-3.908 0-7.817-3.908 0 0 0 0 0 0-3.908 0-3.908-3.908-7.817-7.817 0 0 0 0 0 0l-109.435-128.977c-3.908-3.908-11.725-7.817-19.542-7.817l-164.153 46.901c-7.817 3.908-11.725 15.634-11.725 23.45zM898.931 960h-793.405c-11.725 0-19.542-7.817-19.542-19.542v-594.076c0-11.725 7.817-19.542 19.542-19.542s19.542 7.817 19.542 19.542v574.534h754.321v-945.832h-762.137v109.435c0 11.725-7.817 19.542-19.542 19.542s-19.542-7.817-19.542-19.542v-128.977c0-11.725 7.817-19.542 19.542-19.542h801.221c11.725 0 19.542 7.817 19.542 19.542v984.916c0 11.725-7.817 19.542-19.542 19.542z" />
<glyph unicode="&#xe92b;" glyph-name="icon_46" d="M896 832h-768v-768h768v768zM853.333 106.667h-682.667v682.667h682.667v-682.667zM512 247.467c119.467 0 213.333 93.867 213.333 213.333s-93.867 213.333-213.333 213.333-213.333-93.867-213.333-213.333c0-119.467 98.133-213.333 213.333-213.333zM512 631.467c93.867 0 170.667-76.8 170.667-170.667s-76.8-170.667-170.667-170.667c-93.867 0-170.667 76.8-170.667 170.667s76.8 170.667 170.667 170.667zM0 960v-1024h1024v1024h-1024zM981.333-21.333h-938.667v938.667h938.667v-938.667z" />
<glyph unicode="&#xe92c;" glyph-name="icon_47" horiz-adv-x="1243" d="M754.036 936.727c-256 0-460.8-209.455-460.8-465.455 0-116.364 41.891-218.764 111.709-297.891h-83.782v32.582c0 9.309-9.309 18.618-18.618 18.618h-65.164c-9.309 0-18.618-9.309-18.618-18.618v-37.236l-158.255-27.927v27.927c0 9.309-9.309 18.618-18.618 18.618s-18.618-9.309-18.618-18.618v-148.945c0-9.309 9.309-18.618 18.618-18.618 0 0 0 0 0 0 9.309 0 18.618 9.309 18.618 18.618v23.273l158.255-27.927v-37.236c0-9.309 9.309-18.618 18.618-18.618h65.164c9.309 0 18.618 9.309 18.618 18.618v37.236h414.255c9.309 0 13.964 0 23.273 0 256 0 460.8 209.455 460.8 465.455 0 251.345-209.455 456.145-465.455 456.145zM218.764 52.364l-158.255 27.927v27.927l158.255 27.927v-83.782zM283.927-3.491h-27.927v195.491h27.927v-195.491zM321.164 47.709v88.436h121.018c37.236-37.236 83.782-65.164 130.327-88.436h-251.345zM763.345 47.709c0 0-4.655 0-4.655 0h-23.273c-102.4 4.655-195.491 46.545-265.309 111.709 0 4.655-4.655 9.309-9.309 9.309-79.127 79.127-125.673 181.527-125.673 302.545 0 232.727 190.836 423.564 428.218 423.564 232.727 0 423.564-190.836 423.564-423.564 0 0 0 0 0 0-4.655-232.727-190.836-418.909-423.564-423.564zM758.691 792.436c-176.873 0-316.509-144.291-316.509-316.509 0-176.873 144.291-316.509 316.509-316.509 176.873 0 316.509 144.291 316.509 316.509s-144.291 316.509-316.509 316.509zM758.691 192c-153.6 0-279.273 125.673-279.273 279.273s125.673 279.273 279.273 279.273v0c153.6 0 279.273-125.673 279.273-279.273s-125.673-279.273-279.273-279.273zM758.691 634.182c-88.436 0-158.255-69.818-158.255-158.255s69.818-158.255 158.255-158.255c88.436 0 158.255 69.818 158.255 158.255s-69.818 158.255-158.255 158.255zM879.709 475.927c0-65.164-55.855-121.018-121.018-121.018s-121.018 55.855-121.018 121.018 55.855 121.018 121.018 121.018v0c65.164 0 121.018-55.855 121.018-121.018 0 0 0 0 0 0z" />
<glyph unicode="&#xe92d;" glyph-name="icon_48" horiz-adv-x="582" d="M564.245 555.973h-205.497v55.728c0 10.449-6.966 17.415-17.415 17.415h-17.415c0 0-3.483 0-3.483 0l-261.224-69.66c-6.966-3.483-13.932-10.449-13.932-17.415v-515.483c0-6.966 6.966-13.932 13.932-17.415l261.224-73.143c0 0 3.483 0 3.483 0h17.415c10.449 0 17.415 6.966 17.415 17.415v55.728h205.497c10.449 0 17.415 6.966 17.415 17.415v512c0 6.966-6.966 17.415-17.415 17.415zM323.918-29.17l-243.81 66.177v487.619l243.81 66.177v-619.973zM546.83 40.49h-188.082v480.653h188.082v-480.653zM250.776 322.612h34.83v-55.728h-34.83v55.728zM564.245 858.993h-344.816l-205.497 101.007-13.932-31.347 142.803-73.143c-6.966 0-13.932-6.966-13.932-13.932v-139.32c0-10.449 6.966-17.415 17.415-17.415h417.959c10.449 0 17.415 6.966 17.415 17.415v139.32c0 6.966-6.966 17.415-17.415 17.415zM546.83 719.673h-383.129v104.49h383.129v-104.49z" />
<glyph unicode="&#xe92e;" glyph-name="icon_49" horiz-adv-x="890" d="M0 781.913h44.522v-667.826h-44.522v-178.087h400.696v178.087h-44.522v667.826h44.522v178.087h-400.696v-178.087zM356.174-19.478h-311.652v89.043h311.652v-89.043zM311.652 114.087h-222.609v667.826h222.609v-667.826zM44.522 915.478h311.652v-89.043h-311.652v89.043zM890.435 781.913v178.087h-400.696v-178.087h44.522v-667.826h-44.522v-178.087h400.696v178.087h-44.522v667.826h44.522zM534.261 915.478h311.652v-89.043h-311.652v89.043zM845.913-19.478h-311.652v89.043h311.652v-89.043zM801.391 114.087h-222.609v667.826h222.609v-667.826z" />
<glyph unicode="&#xe92f;" glyph-name="icon_50" horiz-adv-x="1004" d="M988.279 840.93h-960.496c-7.938 0-15.876-7.938-15.876-15.876-3.969-11.907 3.969-23.814 15.876-23.814h436.589v-107.163h-55.566c-11.907 0-19.845-11.907-19.845-23.814s7.938-19.845 19.845-19.845h146.853c11.907 0 19.845 7.938 19.845 19.845s-7.938 19.845-19.845 19.845h-51.597v111.132h484.217c7.938 0 11.907 7.938 15.876 15.876 0 7.938-3.969 19.845-15.876 23.814zM27.783 920.31h960.496c7.938 0 11.907 7.938 15.876 15.876 3.969 11.907-3.969 23.814-15.876 27.783h-960.496c-7.938-3.969-15.876-11.907-15.876-19.845-3.969-11.907 3.969-23.814 15.876-23.814zM706.481 420.217c3.969-3.969 11.907-7.938 15.876-7.938 7.938 0 11.907 3.969 15.876 7.938 0 0 0 0 0 0 7.938 7.938 7.938 23.814 0 35.721 0 0 0 0 0 0-7.938 7.938-23.814 7.938-35.721 0-3.969-11.907-3.969-27.783 3.969-35.721v0zM654.884 483.721c7.938 0 11.907 3.969 15.876 7.938 7.938 7.938 7.938 23.814 0 35.721-7.938 7.938-23.814 7.938-35.721 0-7.938-7.938-7.938-23.814 0-35.721v0c3.969-3.969 11.907-7.938 19.845-7.938zM579.473 555.163c7.938 0 11.907 3.969 15.876 7.938 0 0 0 0 0 0 7.938 7.938 7.938 23.814 0 35.721 0 0 0 0 0 0-7.938 7.938-23.814 7.938-35.721 0 0 0 0 0 0 0-3.969-7.938-3.969-23.814 3.969-35.721v0c3.969-3.969 11.907-7.938 15.876-7.938zM853.333 309.085c-7.938-7.938-7.938-23.814 0-35.721v0c3.969-3.969 11.907-7.938 15.876-7.938 7.938 0 11.907 3.969 15.876 7.938 7.938 7.938 7.938 23.814 0 35.721s-23.814 11.907-31.752 0zM813.643 384.496c-7.938 7.938-23.814 7.938-35.721 0 0 0 0 0 0 0-7.938-7.938-7.938-23.814 0-35.721 3.969-3.969 11.907-7.938 15.876-7.938 7.938 0 11.907 3.969 15.876 7.938 0 0 0 0 0 0 15.876 7.938 15.876 23.814 3.969 35.721 0 0 0 0 0 0zM777.922 348.775v0 0zM924.775 237.643c-7.938-7.938-7.938-23.814 0-35.721 3.969-3.969 11.907-7.938 15.876-7.938 7.938 0 11.907 3.969 15.876 7.938 0 0 0 0 0 0 7.938 7.938 7.938 23.814 0 35.721s-23.814 11.907-31.752 0zM313.55 483.721c7.938 0 11.907 3.969 15.876 7.938 0 0 0 0 0 0 7.938 7.938 7.938 23.814 0 35.721-7.938 7.938-23.814 7.938-35.721 0-7.938-7.938-7.938-23.814 0-35.721v0c7.938-3.969 11.907-7.938 19.845-7.938zM222.264 420.217c3.969-3.969 11.907-7.938 15.876-7.938 7.938 0 11.907 3.969 15.876 7.938 0 0 0 0 0 0 7.938 7.938 7.938 23.814 0 35.721 0 0 0 0 0 0-7.938 7.938-23.814 7.938-35.721 0 0 0 0 0 0 0-3.969-11.907-3.969-27.783 3.969-35.721v0zM369.116 563.101c3.969-3.969 11.907-7.938 15.876-7.938 7.938 0 11.907 3.969 15.876 7.938 0 0 0 0 0 0 7.938 7.938 7.938 23.814 0 35.721 0 0 0 0 0 0-7.938 7.938-23.814 7.938-35.721 0 0 0 0 0 0 0-7.938-7.938-7.938-23.814 3.969-35.721v0zM115.101 309.085c-7.938 7.938-23.814 7.938-35.721 0 0 0 0 0 0 0-7.938-7.938-7.938-23.814 0-35.721v0c3.969-3.969 11.907-7.938 15.876-7.938 7.938 0 11.907 3.969 15.876 7.938 0 0 0 0 0 0 11.907 11.907 11.907 27.783 3.969 35.721 0 0 0 0 0 0zM7.938 237.643c-7.938-7.938-7.938-23.814 0-35.721 3.969-3.969 11.907-7.938 15.876-7.938 7.938 0 11.907 3.969 15.876 7.938 7.938 7.938 7.938 23.814 0 35.721s-23.814 11.907-31.752 0zM186.543 384.496c-7.938 7.938-23.814 7.938-35.721 0 0 0 0 0 0 0-7.938-7.938-7.938-23.814 0-35.721v0c3.969-3.969 11.907-7.938 15.876-7.938 7.938 0 11.907 3.969 15.876 7.938 11.907 7.938 11.907 23.814 3.969 35.721 0 0 0 0 0 0zM504.062-40.186c0-13.152-10.662-23.814-23.814-23.814s-23.814 10.662-23.814 23.814c0 13.152 10.662 23.814 23.814 23.814s23.814-10.662 23.814-23.814zM504.062 162.233c0-13.152-10.662-23.814-23.814-23.814s-23.814 10.662-23.814 23.814c0 13.152 10.662 23.814 23.814 23.814s23.814-10.662 23.814-23.814zM480.248 86.822c-11.907 0-23.814-11.907-23.814-23.814v0c0-11.907 11.907-23.814 23.814-23.814s23.814 11.907 23.814 23.814-11.907 23.814-23.814 23.814zM480.248 289.24c-11.907 0-23.814-11.907-23.814-23.814v0c0-11.907 11.907-23.814 23.814-23.814s23.814 11.907 23.814 23.814-11.907 23.814-23.814 23.814zM480.248 594.853c-11.907 0-23.814-11.907-23.814-23.814v0c0-11.907 11.907-23.814 23.814-23.814s23.814 11.907 23.814 23.814-11.907 23.814-23.814 23.814zM480.248 392.434c-11.907 0-23.814-11.907-23.814-23.814v0c0-11.907 11.907-23.814 23.814-23.814s23.814 11.907 23.814 23.814-11.907 23.814-23.814 23.814zM480.248 495.628c-11.907 0-23.814-11.907-23.814-23.814v0c0-11.907 11.907-23.814 23.814-23.814s23.814 11.907 23.814 23.814-11.907 23.814-23.814 23.814zM686.636 285.271c-3.969 11.907-19.845 19.845-31.752 11.907-11.907-3.969-19.845-19.845-11.907-31.752v0c3.969-7.938 11.907-15.876 23.814-15.876 3.969 0 7.938 0 11.907 3.969 7.938 3.969 15.876 15.876 7.938 31.752zM603.287 467.845c-3.969 11.907-19.845 19.845-31.752 11.907 0 0 0 0 0 0-11.907-3.969-19.845-19.845-11.907-31.752v0c3.969-7.938 11.907-15.876 23.814-15.876 3.969 0 7.938 0 11.907 3.969 7.938 7.938 11.907 19.845 7.938 31.752zM646.946 376.558c-3.969 11.907-19.845 19.845-31.752 11.907-11.907-3.969-19.845-19.845-11.907-31.752v0c3.969-7.938 11.907-15.876 23.814-15.876 3.969 0 7.938 0 11.907 3.969 7.938 3.969 11.907 19.845 7.938 31.752zM730.295 190.016c-3.969 11.907-19.845 19.845-31.752 11.907-11.907-3.969-19.845-19.845-11.907-31.752 3.969-7.938 11.907-15.876 23.814-15.876 3.969 0 7.938 0 11.907 3.969 7.938 3.969 11.907 19.845 7.938 31.752zM738.233 110.636c-11.907-3.969-19.845-19.845-11.907-31.752 3.969-7.938 11.907-15.876 23.814-15.876 3.969 0 7.938 0 11.907 3.969 0 0 0 0 0 0 11.907 3.969 19.845 19.845 11.907 31.752s-23.814 15.876-35.721 11.907zM357.209 388.465c-11.907 3.969-27.783 0-31.752-11.907s0-27.783 11.907-31.752v0c3.969 0 7.938-3.969 11.907-3.969 7.938 0 19.845 3.969 23.814 15.876 0 11.907-3.969 27.783-15.876 31.752zM230.202 110.636c-11.907 3.969-27.783 0-31.752-11.907s0-27.783 11.907-31.752c3.969 0 7.938-3.969 11.907-3.969 7.938 0 19.845 3.969 23.814 15.876 0 0 0 0 0 0 0 11.907-3.969 23.814-15.876 31.752zM396.899 483.721c-11.907 3.969-27.783 0-31.752-11.907s0-27.783 11.907-31.752v0c3.969 0 7.938-3.969 11.907-3.969 7.938 0 19.845 3.969 23.814 15.876 3.969 7.938 0 23.814-15.876 31.752zM313.55 297.178c0 0 0 0 0 0-11.907 3.969-27.783 0-31.752-11.907s0-27.783 11.907-31.752v0c3.969 0 7.938-3.969 11.907-3.969 7.938 0 19.845 3.969 23.814 15.876 0 0 0 0 0 0 3.969 11.907-3.969 23.814-15.876 31.752zM273.86 201.922c-11.907 3.969-27.783 0-31.752-11.907s0-27.783 11.907-31.752v0c3.969 0 7.938-3.969 11.907-3.969 7.938 0 19.845 3.969 23.814 15.876 0 0 0 0 0 0 0 11.907-3.969 27.783-15.876 31.752z" />
<glyph unicode="&#xe930;" glyph-name="icon_51" d="M601.65 529.681c0 95.626-75.704 171.331-171.331 171.331s-171.331-75.704-171.331-171.331 75.704-171.331 171.331-171.331c95.626 0 171.331 75.704 171.331 171.331zM430.319 394.21c-75.704 0-135.471 59.767-135.471 135.471s63.751 135.471 135.471 135.471c75.704 0 135.471-59.767 135.471-135.471s-59.767-135.471-135.471-135.471zM382.506 840.467c0 0 0 0 0 0 15.938 0 31.875 3.984 47.813 3.984 11.953 0 19.922 7.969 19.922 19.922s-7.969 15.938-19.922 15.938c-15.938 0-35.86 0-51.798-3.984-7.969 0-15.938-7.969-15.938-15.938 0-11.953 7.969-19.922 19.922-19.922zM294.848 832.498c-3.984 7.969-15.938 11.953-23.907 7.969-79.689-39.844-139.455-107.58-167.346-191.253 0 0 0-3.984 0-7.969 0-11.953 7.969-19.922 19.922-19.922 7.969 0 15.938 3.984 15.938 11.953 27.891 75.704 79.689 135.471 151.409 171.331 3.984 7.969 7.969 19.922 3.984 27.891zM430.319 609.37c-43.829 0-79.689-35.86-79.689-79.689s35.86-79.689 79.689-79.689 79.689 35.86 79.689 79.689c0 43.829-35.86 79.689-79.689 79.689zM430.319 485.852c-23.907 0-43.829 19.922-43.829 43.829s19.922 43.829 43.829 43.829c23.907 0 43.829-19.922 43.829-43.829s-19.922-43.829-43.829-43.829zM1024 525.696c0 3.984 0 3.984 0 0 0 3.984 0 3.984 0 0v39.844c0 27.891-19.922 47.813-47.813 47.813h-27.891c-27.891 0-47.813-19.922-47.813-47.813v-47.813c0-27.891 19.922-47.813 47.813-47.813h27.891c3.984 0 3.984 0 7.969 0-27.891-274.926-255.004-490.086-533.914-502.039v123.518c231.097 7.969 414.381 199.222 414.381 430.319 0 0 0 0 0 0 0 239.066-195.237 430.319-430.319 430.319-243.051 7.969-434.304-183.284-434.304-422.35 0-231.097 183.284-422.35 414.381-430.319v-143.44c0-11.953 7.969-19.922 19.922-19.922v0c322.739 0 585.712 258.988 589.696 581.728 0 0 0 0 0 3.984v3.984zM35.86 529.681c0 219.144 175.315 394.459 394.459 394.459s394.459-175.315 394.459-394.459c0-219.144-175.315-394.459-394.459-394.459-215.16-3.984-394.459 175.315-394.459 394.459zM976.187 509.759h-27.891c-7.969 0-11.953 3.984-11.953 11.953v47.813c0 7.969 3.984 11.953 11.953 11.953h27.891c7.969 0 11.953-3.984 11.953-11.953v-39.844c0-3.984 0-7.969 0-7.969-3.984-7.969-7.969-11.953-11.953-11.953z" />
<glyph unicode="&#xe931;" glyph-name="icon_52" horiz-adv-x="1202" d="M1081.69 801.352h-298.066v110.573c0 28.845-24.038 48.075-48.075 48.075h-264.413c-28.845 0-48.075-24.038-48.075-48.075v-110.573h-302.873c-67.305 0-120.188-52.883-120.188-120.188v-624.977c0-67.305 52.883-120.188 120.188-120.188h961.502c67.305 0 120.188 52.883 120.188 120.188v624.977c0 67.305-52.883 120.188-120.188 120.188zM471.136 911.925h264.413v-110.573h-269.221l4.808 110.573zM1153.803 56.188c0-38.46-33.653-72.113-72.113-72.113h-961.502c-38.46 0-72.113 33.653-72.113 72.113v624.977c0 38.46 33.653 72.113 72.113 72.113h961.502c38.46 0 72.113-33.653 72.113-72.113v-624.977zM759.587 435.981h-81.728v81.728c0 14.423-9.615 24.038-24.038 24.038h-105.765c-14.423 0-24.038-9.615-24.038-24.038v-81.728h-81.728c-14.423 0-24.038-9.615-24.038-24.038v-105.765c0-9.615 14.423-19.23 24.038-19.23h81.728v-81.728c0-14.423 9.615-24.038 24.038-24.038h105.765c14.423 0 24.038 9.615 24.038 24.038v81.728h81.728c14.423 0 24.038 9.615 24.038 24.038v105.765c0 9.615-14.423 19.23-24.038 19.23zM735.549 335.023h-81.728c-14.423 0-24.038-9.615-24.038-24.038v-81.728h-57.69v81.728c0 14.423-9.615 24.038-24.038 24.038h-81.728v57.69h81.728c14.423 0 24.038 9.615 24.038 24.038v76.92h57.69v-81.728c0-14.423 9.615-24.038 24.038-24.038h81.728v-52.883zM600.939 657.127c-173.070 0-312.488-129.803-312.488-288.451s139.418-288.451 312.488-288.451 312.488 129.803 312.488 288.451-139.418 288.451-312.488 288.451zM600.939 128.3c-144.225 0-264.413 105.765-264.413 240.376s120.188 240.376 264.413 240.376c144.225 0 264.413-105.765 264.413-240.376s-120.188-240.376-264.413-240.376z" />
</font>
</defs>
</svg>
