<?xml version="1.0" encoding="utf-8"?>
<!-- Generator: Adobe Illustrator 24.0.0, SVG Export Plug-In . SVG Version: 6.00 Build 0)  -->
<svg version="1.1" id="Group_820" xmlns="http://www.w3.org/2000/svg" xmlns:xlink="http://www.w3.org/1999/xlink" x="0px" y="0px"
	 viewBox="0 0 18 24" style="enable-background:new 0 0 18 24;" xml:space="preserve">
<g>
	<path d="M18,1.5c0-0.1,0-0.1,0-0.2c0-0.4-0.2-0.7-0.5-1c-0.3-0.3-0.7-0.4-1-0.4h-11c0,0,0,0-0.1,0c0,0,0,0-0.1,0
		C5.3,0,5.2,0.1,5.1,0.1l-5,5C0.1,5.2,0,5.3,0,5.4c0,0,0,0,0,0.1c0,0,0,0,0,0.1l0,17c0,0.1,0,0.1,0,0.2c0,0.4,0.2,0.7,0.5,1
		C0.8,23.9,1.1,24,1.4,24c0,0,0.1,0,0.1,0h15c0.1,0,0.1,0,0.2,0c0.4,0,0.7-0.2,1-0.5c0.3-0.3,0.4-0.7,0.4-1L18,1.5z M5,1.7l0,2.8
		C5,4.8,4.8,5,4.5,5H1.7L5,1.7z M16.9,22.9c-0.1,0.1-0.2,0.1-0.3,0.1h-0.1c0,0,0,0,0,0l-15,0c-0.1,0-0.2,0-0.3-0.1S1,22.7,1,22.5V6
		l3.5,0c0,0,0.1,0,0.1,0c0,0,0.1,0,0.1,0c0.4,0,0.7-0.2,1-0.5C5.9,5.2,6,4.9,6,4.5V1l10.5,0c0.1,0,0.2,0,0.3,0.1
		C16.9,1.2,17,1.3,17,1.5l0,21C17,22.6,17,22.8,16.9,22.9z"/>
	<path d="M13.5,12h-8C5.2,12,5,12.2,5,12.5S5.2,13,5.5,13h8c0.3,0,0.5-0.2,0.5-0.5S13.8,12,13.5,12z"/>
	<path d="M13.5,17h-8C5.2,17,5,17.2,5,17.5S5.2,18,5.5,18h8c0.3,0,0.5-0.2,0.5-0.5S13.8,17,13.5,17z"/>
</g>
</svg>
