<?xml version="1.0" encoding="utf-8"?>
<!-- Generator: Adobe Illustrator 24.0.0, SVG Export Plug-In . SVG Version: 6.00 Build 0)  -->
<svg version="1.1" id="Warstwa_1" xmlns="http://www.w3.org/2000/svg" xmlns:xlink="http://www.w3.org/1999/xlink" x="0px" y="0px"
	 viewBox="0 0 38.8 46.7" style="enable-background:new 0 0 38.8 46.7;" xml:space="preserve">
<g>
	<path d="M31.3,38.2V1c0-0.6-0.4-1-1-1H4.9C4.6,0,4.4,0.1,4.2,0.3L0.3,4.2C0.1,4.4,0,4.6,0,4.9v33.2c0,0.6,0.4,1,1,1h29.3
		C30.9,39.2,31.3,38.7,31.3,38.2z M29.3,37.2H2V5.3L5.3,2h24V37.2z"/>
	<path d="M37.9,6.1l-4.3-0.4c-0.6-0.1-1,0.3-1.1,0.9c-0.1,0.5,0.3,1,0.9,1.1l3.3,0.3l-3.6,36.7L5.4,41.9l0.1-0.6
		c0.1-0.5-0.3-1-0.9-1.1c-0.6,0-1,0.3-1.1,0.9l-0.2,1.6c-0.1,0.5,0.3,1,0.9,1.1L34,46.7c0,0,0.1,0,0.1,0c0.2,0,0.5-0.1,0.6-0.2
		c0.2-0.2,0.3-0.4,0.4-0.7l3.8-38.7C38.9,6.6,38.5,6.1,37.9,6.1z"/>
	<path d="M4,5.8c-0.6,0-1,0.4-1,1c0,0.6,0.4,1,1,1l2.9,0c0,0,0,0,0,0c0.6,0,1-0.4,1-1l0-2.9c0-0.6-0.4-1-1-1c0,0,0,0,0,0
		c-0.6,0-1,0.4-1,1l0,1.9L4,5.8C4,5.8,4,5.8,4,5.8z"/>
	<path d="M8.7,17.7h14c0.6,0,1-0.4,1-1s-0.4-1-1-1h-14c-0.6,0-1,0.4-1,1S8.1,17.7,8.7,17.7z"/>
	<path d="M22.7,19.7h-14c-0.6,0-1,0.4-1,1s0.4,1,1,1h14c0.6,0,1-0.4,1-1S23.2,19.7,22.7,19.7z"/>
	<path d="M18.7,22.7h-10c-0.6,0-1,0.4-1,1s0.4,1,1,1h10c0.6,0,1-0.4,1-1S19.2,22.7,18.7,22.7z"/>
</g>
</svg>
