<?xml version="1.0" encoding="utf-8"?>
<!-- Generator: Adobe Illustrator 24.0.0, SVG Export Plug-In . SVG Version: 6.00 Build 0)  -->
<svg version="1.1" id="Warstwa_1" xmlns="http://www.w3.org/2000/svg" xmlns:xlink="http://www.w3.org/1999/xlink" x="0px" y="0px"
	 viewBox="0 0 23.5 26.2" style="enable-background:new 0 0 23.5 26.2;" xml:space="preserve">
<g>
	<path d="M14.5,8.4c0.4,0.3,0.9,0.5,1.5,0.5c0.1,0,0.3,0,0.4,0c0.7-0.1,1.3-0.5,1.6-1c0.4-0.5,0.6-1.2,0.4-1.9
		c-0.1-0.7-0.5-1.3-1-1.6c-0.5-0.4-1.2-0.6-1.9-0.4c-0.7,0.1-1.3,0.5-1.6,1c-0.4,0.5-0.6,1.2-0.4,1.9C13.6,7.4,13.9,8,14.5,8.4z
		 M14.7,5.5c0.2-0.3,0.6-0.6,1-0.6c0.1,0,0.2,0,0.2,0c0.3,0,0.6,0.1,0.9,0.3c0.3,0.2,0.6,0.6,0.6,1c0.1,0.4,0,0.8-0.3,1.1
		s-0.6,0.6-1,0.6c-0.4,0.1-0.8,0-1.1-0.3c-0.3-0.2-0.6-0.6-0.6-1C14.4,6.2,14.5,5.8,14.7,5.5z"/>
	<path d="M5.6,21.4c0.4,0,0.9-0.2,1.1-0.5l2.6-3.2l2.5,1.6V23c0,0.8,0.7,1.5,1.4,1.5c0.8,0,1.5-0.7,1.5-1.5v-4.5
		c0-0.5-0.2-0.9-0.7-1.2l-2.2-1.4l2.2-3.1l1.5,1.6c0.3,0.3,0.7,0.5,1.1,0.5c0.3,0,0.6-0.1,0.8-0.3l3.7-2.6c0.7-0.5,0.8-1.4,0.4-2
		c-0.5-0.7-1.4-0.8-2-0.4l-2.6,1.8c-0.4-0.5-1.1-1.3-1.7-2C14.6,8.9,13.8,8.3,13,8c-0.7-0.3-1.8-0.8-3.4-1.5c-0.5-0.2-1-0.2-1.4,0.1
		L4.3,9.3c-0.6,0.5-0.8,1.3-0.4,2c0.2,0.3,0.5,0.5,0.9,0.6c0.4,0.1,0.8,0,1.1-0.2l3.2-2.2l1,0.5l-2.6,3.7c-0.4,0.6-0.5,1.3-0.3,2
		l-2.1,2.6l-3.2-1c0,0-0.1,0-0.1,0c-0.4-0.1-0.8,0-1.1,0.2C0.4,17.7,0.1,18,0,18.3c-0.2,0.8,0.3,1.6,1,1.7l4.1,1.2
		C5.4,21.4,5.5,21.4,5.6,21.4z M1,18.6c0-0.1,0.1-0.2,0.2-0.3c0.1-0.1,0.2-0.1,0.4,0l3.5,1.1c0.2,0.1,0.4,0,0.5-0.2l2.5-3.1
		c0.1-0.2,0.1-0.4,0.1-0.5c-0.2-0.4-0.1-1,0.1-1.4l3-4.2c0,0,0,0,0,0c0,0,0,0,0,0c0,0,0,0,0-0.1c0,0,0-0.1,0-0.1c0,0,0-0.1,0-0.1
		c0,0,0-0.1,0-0.1c0,0,0-0.1,0-0.1c0,0,0,0,0-0.1c0,0,0-0.1-0.1-0.1c0,0,0,0,0,0c0,0,0,0,0,0c0,0,0,0,0,0L9.3,8.4
		C9.2,8.4,9,8.4,8.8,8.5l-3.5,2.4C5.3,11,5.2,11,5,11c-0.1,0-0.2-0.1-0.3-0.2c-0.1-0.2-0.1-0.5,0.1-0.6l3.9-2.7
		c0.1-0.1,0.3-0.1,0.4,0c1.6,0.7,2.7,1.2,3.4,1.5c0.7,0.3,1.3,0.7,1.8,1.3c0.9,1,2,2.3,2,2.3c0.2,0.2,0.5,0.2,0.7,0.1l3-2.1
		c0.2-0.1,0.5-0.1,0.6,0.1c0.1,0.2,0.1,0.5-0.1,0.6l-3.7,2.6c-0.2,0.1-0.4,0.1-0.6-0.1l-2-2.1c0,0,0,0,0,0c0,0,0,0,0,0
		c0,0,0,0-0.1,0c0,0,0,0-0.1,0c0,0-0.1,0-0.1,0c0,0-0.1,0-0.1,0c0,0-0.1,0-0.1,0c0,0-0.1,0-0.1,0c0,0-0.1,0-0.1,0.1c0,0,0,0,0,0
		c0,0,0,0,0,0c0,0,0,0,0,0l-2.9,4c0,0,0,0,0,0c0,0,0,0,0,0c0,0,0,0.1,0,0.1c0,0,0,0.1,0,0.1c0,0,0,0.1,0,0.1c0,0,0,0.1,0,0.1
		c0,0,0,0.1,0,0.1c0,0,0,0.1,0,0.1c0,0,0,0.1,0.1,0.1c0,0,0,0,0.1,0.1c0,0,0,0,0,0c0,0,0,0,0,0l2.6,1.7c0.1,0.1,0.2,0.2,0.2,0.4V23
		c0,0.2-0.2,0.5-0.5,0.5s-0.4-0.2-0.4-0.5v-4c0-0.2-0.1-0.3-0.2-0.4l-3-2c0,0,0,0,0,0c0,0,0,0,0,0l0,0c0,0,0,0-0.1,0
		c0,0-0.1,0-0.1,0c0,0-0.1,0-0.1,0c0,0,0,0,0,0c-0.1,0-0.1,0-0.2,0.1c0,0,0,0,0,0c-0.1,0-0.1,0.1-0.2,0.2c0,0,0,0,0,0L6,20.2
		c-0.1,0.1-0.3,0.2-0.5,0.2l-4.2-1.2C1.1,19.1,1,18.8,1,18.6z"/>
	<path d="M23,0H2.7C2.4,0,2.2,0.2,2.2,0.5v15.2c0,0.3,0.2,0.5,0.5,0.5s0.5-0.2,0.5-0.5V1h19.3v24.2H3v-2.8c0-0.3-0.2-0.5-0.5-0.5
		S2,22.1,2,22.4v3.3c0,0.3,0.2,0.5,0.5,0.5H23c0.3,0,0.5-0.2,0.5-0.5V0.5C23.5,0.2,23.3,0,23,0z"/>
</g>
</svg>
