<?xml version="1.0" encoding="utf-8"?>
<!-- Generator: Adobe Illustrator 24.0.0, SVG Export Plug-In . SVG Version: 6.00 Build 0)  -->
<svg version="1.1" id="Warstwa_1" xmlns="http://www.w3.org/2000/svg" xmlns:xlink="http://www.w3.org/1999/xlink" x="0px" y="0px"
	 viewBox="0 0 25.3 25.8" style="enable-background:new 0 0 25.3 25.8;" xml:space="preserve">
<g>
	<path d="M24.9,3H0.7C0.5,3,0.3,3.2,0.3,3.4C0.2,3.7,0.4,4,0.7,4h11v2.7h-1.4C10,6.7,9.8,7,9.8,7.3c0,0.3,0.2,0.5,0.5,0.5H14
		c0.3,0,0.5-0.2,0.5-0.5c0-0.3-0.2-0.5-0.5-0.5h-1.3V4h12.2c0.2,0,0.3-0.2,0.4-0.4C25.3,3.4,25.2,3.1,24.9,3z"/>
	<path d="M0.7,1h24.2c0.2,0,0.3-0.2,0.4-0.4c0.1-0.3-0.1-0.6-0.4-0.7H0.7C0.5,0,0.3,0.2,0.3,0.4C0.2,0.7,0.4,1,0.7,1z"/>
	<path d="M17.8,13.6c0.1,0.1,0.3,0.2,0.4,0.2c0.2,0,0.3-0.1,0.4-0.2c0,0,0,0,0,0c0.2-0.2,0.2-0.6,0-0.9c0,0,0,0,0,0
		c-0.2-0.2-0.6-0.2-0.9,0C17.6,13,17.6,13.4,17.8,13.6L17.8,13.6z"/>
	<path d="M16.5,12c0.2,0,0.3-0.1,0.4-0.2c0.2-0.2,0.2-0.6,0-0.9c-0.2-0.2-0.6-0.2-0.9,0c-0.2,0.2-0.2,0.6,0,0.9l0,0
		C16.1,11.9,16.3,12,16.5,12z"/>
	<path d="M14.6,10.2c0.2,0,0.3-0.1,0.4-0.2c0,0,0,0,0,0c0.2-0.2,0.2-0.6,0-0.9c0,0,0,0,0,0c-0.2-0.2-0.6-0.2-0.9,0c0,0,0,0,0,0
		C14,9.3,14,9.7,14.2,10l0,0C14.3,10.1,14.5,10.2,14.6,10.2z"/>
	<path d="M21.5,16.4c-0.2,0.2-0.2,0.6,0,0.9v0c0.1,0.1,0.3,0.2,0.4,0.2c0.2,0,0.3-0.1,0.4-0.2c0.2-0.2,0.2-0.6,0-0.9
		C22.1,16.1,21.7,16.1,21.5,16.4z"/>
	<path d="M20.5,14.5c-0.2-0.2-0.6-0.2-0.9,0c0,0,0,0,0,0c-0.2,0.2-0.2,0.6,0,0.9c0.1,0.1,0.3,0.2,0.4,0.2c0.2,0,0.3-0.1,0.4-0.2
		c0,0,0,0,0,0C20.8,15.2,20.8,14.8,20.5,14.5C20.5,14.5,20.5,14.5,20.5,14.5z"/>
	<polygon points="19.6,15.4 19.6,15.4 19.6,15.4 	"/>
	<path d="M23.3,18.2c-0.2,0.2-0.2,0.6,0,0.9c0.1,0.1,0.3,0.2,0.4,0.2c0.2,0,0.3-0.1,0.4-0.2c0,0,0,0,0,0c0.2-0.2,0.2-0.6,0-0.9
		C23.9,17.9,23.5,17.9,23.3,18.2z"/>
	<path d="M7.9,12c0.2,0,0.3-0.1,0.4-0.2c0,0,0,0,0,0c0.2-0.2,0.2-0.6,0-0.9c-0.2-0.2-0.6-0.2-0.9,0c-0.2,0.2-0.2,0.6,0,0.9l0,0
		C7.6,11.9,7.7,12,7.9,12z"/>
	<path d="M5.6,13.6c0.1,0.1,0.3,0.2,0.4,0.2c0.2,0,0.3-0.1,0.4-0.2c0,0,0,0,0,0c0.2-0.2,0.2-0.6,0-0.9c0,0,0,0,0,0
		c-0.2-0.2-0.6-0.2-0.9,0c0,0,0,0,0,0C5.4,13,5.4,13.4,5.6,13.6L5.6,13.6z"/>
	<path d="M9.3,10c0.1,0.1,0.3,0.2,0.4,0.2c0.2,0,0.3-0.1,0.4-0.2c0,0,0,0,0,0c0.2-0.2,0.2-0.6,0-0.9c0,0,0,0,0,0
		c-0.2-0.2-0.6-0.2-0.9,0c0,0,0,0,0,0C9,9.3,9,9.7,9.3,10L9.3,10z"/>
	<path d="M2.9,16.4c-0.2-0.2-0.6-0.2-0.9,0c0,0,0,0,0,0c-0.2,0.2-0.2,0.6,0,0.9v0c0.1,0.1,0.3,0.2,0.4,0.2c0.2,0,0.3-0.1,0.4-0.2
		c0,0,0,0,0,0C3.1,17,3.1,16.6,2.9,16.4C2.9,16.4,2.9,16.4,2.9,16.4z"/>
	<path d="M0.2,18.2c-0.2,0.2-0.2,0.6,0,0.9c0.1,0.1,0.3,0.2,0.4,0.2c0.2,0,0.3-0.1,0.4-0.2c0.2-0.2,0.2-0.6,0-0.9
		C0.8,17.9,0.4,17.9,0.2,18.2z"/>
	<path d="M4.7,14.5c-0.2-0.2-0.6-0.2-0.9,0c0,0,0,0,0,0c-0.2,0.2-0.2,0.6,0,0.9l0,0c0.1,0.1,0.3,0.2,0.4,0.2c0.2,0,0.3-0.1,0.4-0.2
		C4.9,15.2,4.9,14.8,4.7,14.5C4.7,14.5,4.7,14.5,4.7,14.5z"/>
	<circle cx="12.1" cy="25.2" r="0.6"/>
	<circle cx="12.1" cy="20.1" r="0.6"/>
	<path d="M12.1,22c-0.3,0-0.6,0.3-0.6,0.6v0c0,0.3,0.3,0.6,0.6,0.6c0.3,0,0.6-0.3,0.6-0.6S12.4,22,12.1,22z"/>
	<path d="M12.1,16.9c-0.3,0-0.6,0.3-0.6,0.6v0c0,0.3,0.3,0.6,0.6,0.6c0.3,0,0.6-0.3,0.6-0.6S12.4,16.9,12.1,16.9z"/>
	<path d="M12.1,9.2c-0.3,0-0.6,0.3-0.6,0.6v0c0,0.3,0.3,0.6,0.6,0.6c0.3,0,0.6-0.3,0.6-0.6S12.4,9.2,12.1,9.2z"/>
	<path d="M12.1,14.3c-0.3,0-0.6,0.3-0.6,0.6v0c0,0.3,0.3,0.6,0.6,0.6c0.3,0,0.6-0.3,0.6-0.6S12.4,14.3,12.1,14.3z"/>
	<path d="M12.1,11.7c-0.3,0-0.6,0.3-0.6,0.6v0c0,0.3,0.3,0.6,0.6,0.6c0.3,0,0.6-0.3,0.6-0.6S12.4,11.7,12.1,11.7z"/>
	<path d="M17.3,17c-0.1-0.3-0.5-0.5-0.8-0.3c-0.3,0.1-0.5,0.5-0.3,0.8v0c0.1,0.2,0.3,0.4,0.6,0.4c0.1,0,0.2,0,0.3-0.1
		C17.3,17.7,17.5,17.4,17.3,17z"/>
	<path d="M15.2,12.4c-0.1-0.3-0.5-0.5-0.8-0.3c0,0,0,0,0,0c-0.3,0.1-0.5,0.5-0.3,0.8v0c0.1,0.2,0.3,0.4,0.6,0.4c0.1,0,0.2,0,0.3-0.1
		C15.2,13,15.3,12.7,15.2,12.4z"/>
	<path d="M16.3,14.7c-0.1-0.3-0.5-0.5-0.8-0.3c-0.3,0.1-0.5,0.5-0.3,0.8l0,0c0.1,0.2,0.3,0.4,0.6,0.4c0.1,0,0.2,0,0.3-0.1
		C16.3,15.4,16.4,15,16.3,14.7z"/>
	<path d="M18.4,19.4c-0.1-0.3-0.5-0.5-0.8-0.3c-0.3,0.1-0.5,0.5-0.3,0.8c0.1,0.2,0.3,0.4,0.6,0.4c0.1,0,0.2,0,0.3-0.1
		C18.4,20.1,18.5,19.7,18.4,19.4z"/>
	<path d="M18.6,21.4c-0.3,0.1-0.5,0.5-0.3,0.8c0.1,0.2,0.3,0.4,0.6,0.4c0.1,0,0.2,0,0.3-0.1c0,0,0,0,0,0c0.3-0.1,0.5-0.5,0.3-0.8
		C19.3,21.4,18.9,21.3,18.6,21.4z"/>
	<path d="M9,14.4c-0.3-0.1-0.7,0-0.8,0.3c-0.1,0.3,0,0.7,0.3,0.8l0,0c0.1,0,0.2,0.1,0.3,0.1c0.2,0,0.5-0.1,0.6-0.4
		C9.4,14.9,9.3,14.5,9,14.4z"/>
	<path d="M5.8,21.4c-0.3-0.1-0.7,0-0.8,0.3c-0.1,0.3,0,0.7,0.3,0.8c0.1,0,0.2,0.1,0.3,0.1c0.2,0,0.5-0.1,0.6-0.4c0,0,0,0,0,0
		C6.2,21.9,6.1,21.6,5.8,21.4z"/>
	<path d="M10,12c-0.3-0.1-0.7,0-0.8,0.3c-0.1,0.3,0,0.7,0.3,0.8l0,0c0.1,0,0.2,0.1,0.3,0.1c0.2,0,0.5-0.1,0.6-0.4
		C10.5,12.6,10.4,12.2,10,12z"/>
	<path d="M7.9,16.7C7.9,16.7,7.9,16.7,7.9,16.7c-0.3-0.1-0.7,0-0.8,0.3c-0.1,0.3,0,0.7,0.3,0.8l0,0c0.1,0,0.2,0.1,0.3,0.1
		c0.2,0,0.5-0.1,0.6-0.4c0,0,0,0,0,0C8.4,17.2,8.2,16.9,7.9,16.7z"/>
	<path d="M6.9,19.1c-0.3-0.1-0.7,0-0.8,0.3c-0.1,0.3,0,0.7,0.3,0.8l0,0c0.1,0,0.2,0.1,0.3,0.1c0.2,0,0.5-0.1,0.6-0.4c0,0,0,0,0,0
		C7.3,19.6,7.2,19.2,6.9,19.1z"/>
</g>
</svg>
