<?xml version="1.0" encoding="utf-8"?>
<!-- Generator: Adobe Illustrator 24.0.0, SVG Export Plug-In . SVG Version: 6.00 Build 0)  -->
<svg version="1.1" id="Warstwa_1" xmlns="http://www.w3.org/2000/svg" xmlns:xlink="http://www.w3.org/1999/xlink" x="0px" y="0px"
	 viewBox="0 0 68.3 71.8" style="enable-background:new 0 0 68.3 71.8;" xml:space="preserve">
<g>
	<path d="M65.5,25.8L59.1,20L57.4,22l5.8,5.2l-29,25.6l-29-25.6l5.8-5.1l-1.7-1.9l-6.8,6l0,0C0.9,27.4,0,29.3,0,31.3v33.9
		c0,3.7,3,6.7,6.7,6.7h54.8c3.7,0,6.7-3,6.7-6.7V31.3C68.3,29.1,67.3,27.1,65.5,25.8z M46.7,45.1L65,28.9c0.5,0.7,0.7,1.5,0.7,2.3
		v33.9c0,0.5-0.1,0.9-0.2,1.3L46.7,45.1z M2.8,66.4c-0.1-0.4-0.2-0.9-0.2-1.3V31.3c0-0.8,0.3-1.6,0.7-2.3l18.3,16.1L2.8,66.4z
		 M6.7,69.3c-0.9,0-1.7-0.3-2.3-0.7l19.1-21.8l9.8,8.7c0.2,0.2,0.5,0.3,0.9,0.3c0.3,0,0.6-0.1,0.8-0.3l9.8-8.7l19.1,21.8
		c-0.7,0.5-1.5,0.7-2.3,0.7H6.7z"/>
	<path d="M16.5,2.6h35.3v31.3h2.6V1.3c0-0.7-0.6-1.3-1.3-1.3H15.2c-0.7,0-1.3,0.6-1.3,1.3v32.6h2.6V2.6z"/>
	<rect x="22.9" y="10.5" width="16.1" height="2.6"/>
	<rect x="22.9" y="19.8" width="22.5" height="2.6"/>
</g>
</svg>
