<?xml version="1.0" encoding="utf-8"?>
<!-- Generator: Adobe Illustrator 24.0.0, SVG Export Plug-In . SVG Version: 6.00 Build 0)  -->
<svg version="1.1" id="Warstwa_1" xmlns="http://www.w3.org/2000/svg" xmlns:xlink="http://www.w3.org/1999/xlink" x="0px" y="0px"
	 viewBox="0 0 20.3 23.5" style="enable-background:new 0 0 20.3 23.5;" xml:space="preserve">
<g>
	<path d="M10.1,14.5c4,0,7.3-3.3,7.3-7.3S14.2,0,10.1,0c-4,0-7.3,3.3-7.3,7.3C2.9,11.3,6.1,14.5,10.1,14.5z M10.1,1.8
		c3,0,5.5,2.5,5.5,5.5s-2.5,5.5-5.5,5.5s-5.5-2.5-5.5-5.5S7.1,1.8,10.1,1.8z"/>
	<path d="M13.3,16c-0.2,0-0.4,0-0.7,0H7.7c-4-0.2-7.4,2.8-7.7,6.9c0,0.2,0,0.4,0,0.7h1.8c0-3.8,2.9-5.5,5.8-5.5h4.9
		c2.9,0,5.8,1.7,5.8,5.5h1.8C20.4,19.5,17.3,16.1,13.3,16z"/>
</g>
</svg>
