<?xml version="1.0" encoding="utf-8"?>
<!-- Generator: Adobe Illustrator 24.0.0, SVG Export Plug-In . SVG Version: 6.00 Build 0)  -->
<svg version="1.1" id="Warstwa_1" xmlns="http://www.w3.org/2000/svg" xmlns:xlink="http://www.w3.org/1999/xlink" x="0px" y="0px"
	 viewBox="0 0 19.1 14.5" style="enable-background:new 0 0 19.1 14.5;" xml:space="preserve">
<g>
	<path d="M14.4,12.7C14.4,12.7,14.4,12.7,14.4,12.7c0.4,0,0.8-0.3,0.8-0.8c0-0.4-0.3-0.8-0.8-0.8c-0.4,0-0.8,0.3-0.8,0.8
		c0,0.2,0.1,0.4,0.2,0.5C14,12.6,14.2,12.7,14.4,12.7z"/>
	<path d="M4.6,12.7c0.4,0,0.8-0.3,0.8-0.8c0-0.4-0.3-0.8-0.8-0.8c-0.4,0-0.8,0.3-0.8,0.8S4.1,12.7,4.6,12.7z"/>
	<path d="M19,9c0-0.1-0.1-0.7-0.1-1.4c0-0.4-0.1-0.9-0.1-1.4c-0.3-0.8-0.6-1.5-1.1-2.2C16.5,2,16.4,2,16.1,2h-3.4
		c-0.4,0-0.8,0.3-0.8,0.8v5.7l-0.5,0l0-7.5c0-0.5-0.4-0.9-0.9-0.9H0.9C0.4,0,0,0.4,0,0.9V11c0,0.6,0.5,1.1,1.1,1.2l0.9,0
		c0.1,1.3,1.2,2.3,2.6,2.3h0c1.3,0,2.4-1,2.6-2.3h4.7c0.2,1.3,1.2,2.3,2.6,2.3c1.4,0,2.5-1.1,2.6-2.4c0.5,0,1,0,1.5-0.2
		C19.3,11.5,19.2,10.2,19,9z M14.3,10.2L14.3,10.2c1,0,1.7,0.8,1.7,1.7c0,0.9-0.8,1.7-1.7,1.7c-0.9,0-1.7-0.8-1.7-1.7
		C12.7,11,13.4,10.3,14.3,10.2z M14.4,9.3c-1.2,0-2.3,0.9-2.5,2H7.1c-0.3-1.1-1.3-2-2.5-2c-1.2,0-2.2,0.8-2.5,1.9H1.2
		c-0.1,0-0.2-0.1-0.2-0.2l0-10.1l9.5,0l0,8c0,0.1,0.1,0.2,0.1,0.3c0.1,0.1,0.2,0.1,0.3,0.1l1.4,0c0.3,0,0.5-0.2,0.5-0.5v-6h3.1
		c0.4,0.6,1.8,3.1,1.9,3.5l0,0.2c0.1,0.6,0.2,2.3,0.2,2.5c0.2,1.6,0.1,1.9,0,2c-0.4,0.1-0.8,0.1-1.2,0.1
		C16.6,10.1,15.6,9.3,14.4,9.3z M4.5,10.2L4.5,10.2c1,0,1.7,0.8,1.7,1.7c0,0.9-0.8,1.7-1.7,1.7s-1.7-0.8-1.7-1.7
		C2.9,11,3.6,10.3,4.5,10.2z"/>
	<path d="M16.4,4.5c-0.6-1.1-0.7-1.2-1-1.2h-1.8c-0.3,0-0.6,0.3-0.6,0.6l0,1.9c0,0.3,0.2,0.5,0.5,0.5l3.1,0c0.1,0,0.1,0,0.2-0.1
		C17,6.1,17.1,5.8,17,5.6C16.8,5.2,16.6,4.8,16.4,4.5z M13.9,4.2h1.3c0.2,0.2,0.4,0.7,0.6,1.1l-1.9,0L13.9,4.2z"/>
</g>
</svg>
