<?xml version="1.0" encoding="utf-8"?>
<!-- Generator: Adobe Illustrator 24.0.0, SVG Export Plug-In . SVG Version: 6.00 Build 0)  -->
<svg version="1.1" id="Warstwa_1" xmlns="http://www.w3.org/2000/svg" xmlns:xlink="http://www.w3.org/1999/xlink" x="0px" y="0px"
	 viewBox="0 0 20 9.7" style="enable-background:new 0 0 20 9.7;" xml:space="preserve">
<g id="Group_3598" transform="translate(0 -132)">
	<g id="Group_3596" transform="translate(0 132)">
		<path id="Path_1942" d="M19.8,4.3L19.8,4.3l-4.1-4.1c-0.3-0.3-0.8-0.2-1.1,0.1c-0.3,0.3-0.3,0.7,0,1l2.7,2.7H0.8
			C0.4,4.1,0,4.4,0,4.9c0,0.4,0.4,0.8,0.8,0.8h16.6l-2.7,2.7c-0.3,0.3-0.3,0.8,0.1,1.1c0.3,0.3,0.7,0.3,1,0l4.1-4.1l0,0
			C20.1,5.1,20.1,4.6,19.8,4.3C19.8,4.3,19.8,4.3,19.8,4.3z"/>
	</g>
</g>
</svg>
