<?xml version="1.0" encoding="utf-8"?>
<!-- Generator: Adobe Illustrator 24.0.0, SVG Export Plug-In . SVG Version: 6.00 Build 0)  -->
<svg version="1.1" id="Warstwa_1" xmlns="http://www.w3.org/2000/svg" xmlns:xlink="http://www.w3.org/1999/xlink" x="0px" y="0px"
	 viewBox="0 0 20.4 20.3" style="enable-background:new 0 0 20.4 20.3;" xml:space="preserve">
<path d="M19.8,18.6l-4.2-4.2c1.2-1.5,2-3.5,2-5.6c0-4.9-3.9-8.8-8.8-8.8S0,3.9,0,8.8s3.9,8.8,8.8,8.8c2.2,0,4.2-0.8,5.7-2.1l4.2,4.2
	c0.2,0.2,0.4,0.2,0.6,0.2s0.4-0.1,0.6-0.2C20.1,19.4,20.1,18.9,19.8,18.6z M1.6,8.8c0-4,3.2-7.2,7.2-7.2c4,0,7.2,3.2,7.2,7.2
	c0,4-3.2,7.2-7.2,7.2C4.8,16,1.6,12.8,1.6,8.8z"/>
</svg>
