<?xml version="1.0" encoding="utf-8"?>
<!-- Generator: Adobe Illustrator 24.0.0, SVG Export Plug-In . SVG Version: 6.00 Build 0)  -->
<svg version="1.1" id="Warstwa_1" xmlns="http://www.w3.org/2000/svg" xmlns:xlink="http://www.w3.org/1999/xlink" x="0px" y="0px"
	 viewBox="0 0 23.4 23.4" style="enable-background:new 0 0 23.4 23.4;" xml:space="preserve">
<g>
	<path d="M22.5,16.6c-0.1-0.2-0.3-0.4-0.5-0.4L15,14.6c-0.2-0.1-0.5,0-0.7,0.2c-0.5,0.5-0.9,1-1.1,1.7c-2.8-1.2-5-3.4-6.3-6.2
		C7.6,10,8.1,9.6,8.6,9.2C8.8,9,8.9,8.7,8.8,8.5l-1.5-7C7.2,1.3,7,1.1,6.8,1C6.6,0.9,6.3,0.8,6.1,0.8c-0.3-0.1-0.7-0.1-1-0.1H5
		c-2.7,0-5,2.2-5,5v0.1c0.1,9.7,8.1,17.6,17.8,17.7l0,0l0,0c0.4,0,0.8,0,1.1-0.1c2.7-0.6,4.3-3.3,3.7-6C22.6,17,22.5,16.8,22.5,16.6
		z M5.8,9.1L5.8,9.1C5.6,9.2,5.4,9.3,5.3,9.5c-0.1,0.2-0.1,0.4,0,0.6c1.4,3.8,4.3,6.7,8.1,8.1l0.1,0c0.4,0.1,0.8-0.2,0.9-0.6
		c0.1-0.5,0.4-1,0.7-1.4l6.1,1.3c0,0,0,0.1,0,0.1c0.1,0.3,0.1,0.5,0.1,0.8c0,0.9-0.4,1.8-1,2.5c-0.7,0.7-1.5,1-2.5,1c0,0,0,0,0,0
		c-8.9,0-16.2-7.3-16.3-16.2l-0.2,0l0.2-0.1c0-1.9,1.6-3.5,3.5-3.5c0,0,0.1,0,0.1,0c0.2,0,0.5,0,0.7,0.1c0,0,0.1,0,0.1,0l1.4,6.1
		C6.9,8.7,6.4,9,5.8,9.1z"/>
	<path d="M16,11.1v0.2h1.5v-0.3c0-2.9-2.4-5.2-5.2-5.2l-0.3,0v1.5h0.2C14.4,7.4,16,9.1,16,11.1z"/>
	<path d="M13.3,0h-0.2v1.5h0.2c4.8,0,8.6,3.9,8.6,8.6v0.2h1.5v-0.2C23.4,4.5,18.9,0,13.3,0z"/>
</g>
</svg>
