<?xml version="1.0" encoding="utf-8"?>
<!-- Generator: Adobe Illustrator 24.0.0, SVG Export Plug-In . SVG Version: 6.00 Build 0)  -->
<svg version="1.1" id="Warstwa_1" xmlns="http://www.w3.org/2000/svg" xmlns:xlink="http://www.w3.org/1999/xlink" x="0px" y="0px"
	 viewBox="0 0 43.3 43.2" style="enable-background:new 0 0 43.3 43.2;" xml:space="preserve">
<g>
	<path d="M41.5,30.8c-0.1-0.4-0.5-0.6-0.8-0.7l-12.9-2.8c-0.4-0.1-0.8,0-1,0.3c-0.9,0.9-1.7,2-2.1,3.2c-5.4-2.2-9.8-6.6-12.1-12
		c1.2-0.5,2.3-1.2,3.2-2.1c0.3-0.3,0.4-0.7,0.3-1.1l-2.9-13C13,2.3,12.8,2,12.4,1.8c-0.4-0.2-0.8-0.3-1.3-0.4
		c-0.6-0.1-1.3-0.2-1.9-0.2H9.1c-5,0-9.1,4.1-9.1,9.1v0.2c0.2,18,15,32.7,33,32.7l0.1,0c0.7,0,1.4-0.1,2-0.2c4.9-1.1,7.9-6,6.8-10.9
		C41.8,31.6,41.6,31.2,41.5,30.8z M10.7,17c0,0-0.1,0-0.1,0c-0.3,0.1-0.5,0.3-0.7,0.6c-0.1,0.3-0.1,0.6,0,0.9c2.5,7,8,12.5,15.1,15
		c0,0,0.1,0,0.1,0c0.6,0.1,1.2-0.2,1.4-0.9c0.2-1.1,0.8-2.1,1.5-2.9l11.6,2.5c0,0.1,0.1,0.3,0.1,0.4c0.1,0.5,0.2,1,0.2,1.5
		c0,3.7-3,6.8-6.8,6.8c0,0,0,0,0,0c-16.7,0-30.5-13.7-30.7-30.5v-0.1c0-3.7,3.1-6.7,6.7-6.7c0.1,0,0.1,0,0.2,0c0.5,0,0.9,0,1.4,0.1
		c0.1,0,0.2,0.1,0.4,0.1l2.6,11.7C12.8,16.2,11.8,16.7,10.7,17z"/>
	<path d="M29.9,20.6v0.2h2.3v-0.3c0-5.3-4.3-9.5-9.5-9.5l-0.3,0v2.3l0.2,0C26.7,13.4,29.9,16.6,29.9,20.6z"/>
	<path d="M24.6,0l-0.2,0v2.3l0.2,0c9,0,16.3,7.3,16.4,16.4v0.2h2.3v-0.3C43.3,8.4,34.9,0,24.6,0z"/>
</g>
</svg>
