<?xml version="1.0" encoding="utf-8"?>
<!-- Generator: Adobe Illustrator 24.0.0, SVG Export Plug-In . SVG Version: 6.00 Build 0)  -->
<svg version="1.1" id="Warstwa_1" xmlns="http://www.w3.org/2000/svg" xmlns:xlink="http://www.w3.org/1999/xlink" x="0px" y="0px"
	 viewBox="0 0 47.4 46.4" style="enable-background:new 0 0 47.4 46.4;" xml:space="preserve">
<g>
	<path d="M11.2,36h6.2c0.6,0,1-0.4,1-1s-0.4-1-1-1h-5.2V2h20.2L36,5.5v9.9c0,0.6,0.4,1,1,1s1-0.4,1-1V5.1c0-0.3-0.1-0.5-0.3-0.7
		l-4.1-4.1C33.4,0.1,33.1,0,32.9,0H11.2c-0.6,0-1,0.4-1,1v34C10.2,35.6,10.7,36,11.2,36z"/>
	<path d="M30.8,3.1c-0.6,0-1,0.4-1,1v3.1c0,0.6,0.4,1,1,1h3.1c0.6,0,1-0.4,1-1s-0.4-1-1-1h-2.1V4.1C31.8,3.5,31.4,3.1,30.8,3.1z"/>
	<path d="M13.6,38.5l-7.8,0.9L2.1,7.6l6.4-0.7c0.5-0.1,0.9-0.6,0.9-1.1C9.3,5.2,8.8,4.8,8.3,4.9L0.9,5.7c-0.3,0-0.5,0.2-0.7,0.4
		C0,6.3,0,6.6,0,6.8l3.9,33.8c0.1,0.5,0.5,0.9,1,0.9c0,0,0.1,0,0.1,0l8.8-1c0.5-0.1,0.9-0.6,0.9-1.1C14.6,38.8,14.2,38.4,13.6,38.5z
		"/>
	<path d="M40,10.5l4.7,0.4l-2.1,22.4c0,0.5,0.4,1,0.9,1.1c0,0,0.1,0,0.1,0c0.5,0,0.9-0.4,1-0.9l2.1-23.4c0-0.3-0.1-0.5-0.2-0.7
		S46.2,9,45.9,9l-5.7-0.5c-0.5,0-1,0.4-1.1,0.9C39,9.9,39.4,10.4,40,10.5z"/>
	<path d="M36.1,42.2l-18.1-1.7l0.2-2.4c0.1-0.5-0.4-1-0.9-1.1c-0.6-0.1-1,0.4-1.1,0.9l-0.3,3.4c0,0.3,0.1,0.5,0.2,0.7
		c0.2,0.2,0.4,0.3,0.7,0.4l19.1,1.8c0,0,0.1,0,0.1,0c0.5,0,0.9-0.4,1-0.9C37,42.8,36.6,42.3,36.1,42.2z"/>
	<path d="M29.8,20.6c-4,0-7.2,3.2-7.2,7.2c0,0.6,0.4,1,1,1s1-0.4,1-1c0-2.9,2.3-5.2,5.2-5.2c0.6,0,1-0.4,1-1S30.3,20.6,29.8,20.6z"
		/>
	<path d="M46.5,41l-7.1-7.2c1.1-1.8,1.8-3.8,1.8-6.1c0-6.2-5.1-11.3-11.3-11.3c-6.2,0-11.3,5.1-11.3,11.3s5.1,11.3,11.3,11.3
		c1.7,0,3.3-0.4,4.7-1l7.5,7.5c0.6,0.6,1.4,0.9,2.3,0.9s1.7-0.3,2.3-0.9c0.6-0.6,0.9-1.4,0.9-2.3S47.1,41.6,46.5,41z M20.5,27.8
		c0-5.1,4.2-9.3,9.3-9.3s9.3,4.2,9.3,9.3s-4.2,9.3-9.3,9.3S20.5,32.9,20.5,27.8z M45,44.1c-0.4,0.4-1.2,0.4-1.7,0L36.3,37
		c0.6-0.5,1.2-1,1.8-1.6l7,7c0.2,0.2,0.3,0.5,0.3,0.8S45.3,43.9,45,44.1z"/>
</g>
</svg>
