<?xml version="1.0" encoding="utf-8"?>
<!-- Generator: Adobe Illustrator 24.0.0, SVG Export Plug-In . SVG Version: 6.00 Build 0)  -->
<svg version="1.1" id="Warstwa_1" xmlns="http://www.w3.org/2000/svg" xmlns:xlink="http://www.w3.org/1999/xlink" x="0px" y="0px"
	 viewBox="0 0 10.6 18" style="enable-background:new 0 0 10.6 18;" xml:space="preserve">
<path d="M6.5,18H3.7c-0.7,0-1.3-0.6-1.3-1.3V11H1.3C0.6,11,0,10.4,0,9.7V7.1c0-0.7,0.6-1.3,1.3-1.3h1.1V4.9C2.4,3.6,2.8,2.4,3.7,1.4
	C4.7,0.5,5.9,0,7.3,0l2.1,0c0.4,0,0.7,0.1,0.9,0.4c0.2,0.3,0.4,0.6,0.4,0.9v2.4c0,0.7-0.6,1.3-1.3,1.3H7.9c-0.1,0-0.1,0-0.1,0
	c0,0,0,0.1,0,0.1v0.5h1.4c0.2,0,0.4,0.1,0.6,0.2c0.4,0.2,0.7,0.7,0.7,1.2v2.6c0,0.7-0.6,1.3-1.3,1.3H7.8v5.6C7.8,17.4,7.2,18,6.5,18
	z M1.3,6.7C1.1,6.7,1,6.9,1,7.1v2.6C1,9.9,1.1,10,1.3,10h2.1v6.6c0,0.2,0.1,0.3,0.3,0.3h2.7c0.2,0,0.3-0.1,0.3-0.3V10h2.4
	c0.2,0,0.3-0.1,0.3-0.3V7.1c0-0.1-0.1-0.2-0.2-0.3c0,0-0.1,0-0.2,0c0,0,0,0,0,0H6.8V5.2c0-0.4,0.1-0.7,0.2-0.8l0,0
	c0.2-0.2,0.5-0.3,0.9-0.3h1.4c0.2,0,0.3-0.1,0.3-0.3V1.3c0-0.1,0-0.2-0.1-0.2C9.5,1,9.4,1,9.3,1H7.2c-1,0-2.1,0.4-2.8,1.1
	c-0.7,0.8-1.1,1.8-1,2.8l0,1.8H1.3z M7.8,4.9L7.8,4.9L7.8,4.9z"/>
</svg>
