<?xml version="1.0" encoding="utf-8"?>
<!-- Generator: Adobe Illustrator 24.0.0, SVG Export Plug-In . SVG Version: 6.00 Build 0)  -->
<svg version="1.1" id="Warstwa_1" xmlns="http://www.w3.org/2000/svg" xmlns:xlink="http://www.w3.org/1999/xlink" x="0px" y="0px"
	 viewBox="0 0 19.7 17.9" style="enable-background:new 0 0 19.7 17.9;" xml:space="preserve">
<path d="M19.6,10C19.6,10,19.6,9.9,19.6,10l-2.8-5.1c-0.1-0.2-0.3-0.3-0.6-0.3h-3.6v1.1h3.2L18,9.6l-5,0l2.6-3.5h-3.1V0H7.2v6.1H4
	l2.6,3.5l-5,0l2.1-3.9h3.2V4.6l-3.6,0C3.2,4.6,2.9,4.7,2.8,5L0.1,9.9C0,10,0,10.1,0,10.2c0,0,0,0,0,0.1v7c0,0.4,0.3,0.7,0.6,0.7H19
	h0c0.4,0,0.6-0.3,0.6-0.7v-7C19.7,10.2,19.6,10.1,19.6,10z M8.7,7.6V1.5H11v6.1h1.6l-2.7,3.5c0,0,0,0,0,0c0,0,0,0,0,0L7.1,7.6H8.7z
	 M6.9,10.9c0.3,1.2,1.3,2.2,2.5,2.4c0,0,0,0,0,0l0.4,0.5l0.4-0.5c1.3-0.2,2.3-1.1,2.6-2.4h5.6v5.6H1.3l0-5.6H6.9z"/>
</svg>
