<?xml version="1.0" encoding="utf-8"?>
<!-- Generator: Adobe Illustrator 24.0.0, SVG Export Plug-In . SVG Version: 6.00 Build 0)  -->
<svg version="1.1" id="Warstwa_1" xmlns="http://www.w3.org/2000/svg" xmlns:xlink="http://www.w3.org/1999/xlink" x="0px" y="0px"
	 viewBox="0 0 48 44" style="enable-background:new 0 0 48 44;" xml:space="preserve">
<path d="M43.6,8C42.3,8,41,8.7,41,10v2h-2v2h2v22c0,0.6,0.4,1,1,1c0.3,0,0.6-0.1,0.7-0.3c0.2,0,0.5-0.1,0.9-0.1
	c1.3,0,2.4,1.1,2.4,2.4c0,1.7-1.3,3-3,3H5c-1.7,0-3-1.3-3-3c0-1.3,1.1-2.4,2.4-2.4c0.3,0,0.7,0,0.9,0.1C5.4,36.9,5.7,37,6,37
	c0.6,0,1-0.4,1-1V14h12v17c0,1.5,0.4,2.9,1.2,4.2l2.8,4.7l2.8-4.7c0.8-1.3,1.2-2.7,1.2-4.2V14h2v23c0,0.6,0.4,1,1,1h7
	c0.6,0,1-0.4,1-1V1c0-0.6-0.4-1-1-1h-7c-0.6,0-1,0.4-1,1v11h-2V1.5l-0.4-0.3C25.6,0.4,24.3,0,23,0c-1.3,0-2.6,0.4-3.6,1.2L19,1.5V12
	H7v-2c0-1.3-1.3-2-2.6-2C1.9,8,0,9.7,0,12v27c0,2.8,2.2,5,5,5h38c2.8,0,5-2.2,5-5V12C48,9.7,46.1,8,43.6,8z M31,2h5v3h-2v2h2v3h-3v2
	h3v3h-2v2h2v3h-2v2h2v3h-3v2h3v3h-2v2h2v4h-5V2z M21,30V7h4v23H21z M23,36.1l-1.1-1.9c-0.4-0.7-0.7-1.4-0.8-2.2h3.8
	c-0.1,0.8-0.4,1.5-0.8,2.2L23,36.1z M23,2L23,2c0.7,0,1.4,0.2,2,0.5V5h-4V2.5C21.6,2.2,22.3,2,23,2z M2,12c0-1.5,1.3-2,2.4-2
	c0.2,0,0.5,0.1,0.6,0.1v24.5c-0.2,0-0.4,0-0.6,0c-0.9,0-1.7,0.3-2.4,0.7V12z M43.6,34.6c-0.2,0-0.4,0-0.6,0V10.1
	c0.1-0.1,0.4-0.1,0.6-0.1c1.1,0,2.4,0.5,2.4,2v23.3C45.3,34.9,44.5,34.6,43.6,34.6z"/>
</svg>
