<?xml version="1.0" encoding="utf-8"?>
<!-- Generator: Adobe Illustrator 24.0.0, SVG Export Plug-In . SVG Version: 6.00 Build 0)  -->
<svg version="1.1" id="Warstwa_1" xmlns="http://www.w3.org/2000/svg" xmlns:xlink="http://www.w3.org/1999/xlink" x="0px" y="0px"
	 viewBox="0 0 20.8 21.7" style="enable-background:new 0 0 20.8 21.7;" xml:space="preserve">
<g>
	<path d="M20.8,4.7c-0.1-0.1-0.2-0.2-0.4-0.2H5.1L4.7,2.7l0-0.1l-4-2.6C0.5-0.1,0.2,0,0.1,0.2c0,0,0,0.1,0,0.1C0,0.4,0,0.6,0,0.7
		c0,0.1,0.1,0.3,0.2,0.3l3.6,2.4L6.8,17h10.8c0.3-0.1,0.5-0.4,0.5-0.7c0-0.2-0.2-0.4-0.5-0.5H7.5l-0.4-1.7H18c0.2,0,0.4-0.2,0.5-0.4
		l2.3-8.6C20.9,5,20.8,4.9,20.8,4.7z M17.7,13H6.9L5.3,5.6h14.4L17.7,13z"/>
	<path d="M15,17.5c-1.2,0-2.1,0.9-2.1,2.1c0,1.2,0.9,2.1,2.1,2.1c1.2,0,2.1-0.9,2.1-2.1C17.1,18.4,16.1,17.5,15,17.5z M15.9,19.6
		c0,0.5-0.4,0.9-0.9,0.9c0,0,0,0,0,0c-0.5,0-0.9-0.4-0.9-0.9s0.4-0.9,0.9-0.9C15.5,18.6,15.9,19,15.9,19.6
		C15.9,19.6,15.9,19.6,15.9,19.6z"/>
	<path d="M9.4,17.5c-1.2,0-2.1,0.9-2.1,2.1c0,1.2,0.9,2.1,2.1,2.1c1.2,0,2.1-0.9,2.1-2.1C11.5,18.4,10.5,17.5,9.4,17.5z M10.3,19.6
		c0,0.5-0.4,0.9-0.9,0.9c0,0,0,0,0,0c-0.5,0-0.9-0.4-0.9-0.9c0-0.5,0.4-0.9,0.9-0.9C9.9,18.6,10.3,19,10.3,19.6
		C10.3,19.6,10.3,19.6,10.3,19.6z"/>
</g>
</svg>
