<?xml version="1.0" encoding="utf-8"?>
<!-- Generator: Adobe Illustrator 24.0.0, SVG Export Plug-In . SVG Version: 6.00 Build 0)  -->
<svg version="1.1" id="Warstwa_1" xmlns="http://www.w3.org/2000/svg" xmlns:xlink="http://www.w3.org/1999/xlink" x="0px" y="0px"
	 viewBox="0 0 25.7 25.7" style="enable-background:new 0 0 25.7 25.7;" xml:space="preserve">
<g>
	<path d="M15.1,10.8c0-2.4-1.9-4.3-4.3-4.3c-2.4,0-4.3,1.9-4.3,4.3s1.9,4.3,4.3,4.3C13.2,15.1,15.1,13.2,15.1,10.8z M10.8,14.2
		c-1.9,0-3.4-1.5-3.4-3.4S9,7.4,10.8,7.4c1.9,0,3.4,1.5,3.4,3.4C14.2,12.7,12.7,14.2,10.8,14.2z"/>
	<path d="M9.6,3C9.6,3,9.6,3,9.6,3C10,3,10.4,2.9,10.8,2.9c0.3,0,0.5-0.2,0.5-0.5S11.1,2,10.8,2c-0.4,0-0.9,0-1.3,0.1
		c-0.2,0-0.4,0.2-0.4,0.4C9.1,2.8,9.3,3,9.6,3z"/>
	<path d="M7.4,3.2C7.3,3,7,2.9,6.8,3c-2,1-3.5,2.7-4.2,4.8c0,0,0,0.1,0,0.2c0,0.3,0.2,0.5,0.5,0.5c0.2,0,0.4-0.1,0.4-0.3
		c0.7-1.9,2-3.4,3.8-4.3C7.4,3.7,7.5,3.4,7.4,3.2z"/>
	<path d="M10.8,8.8c-1.1,0-2,0.9-2,2c0,1.1,0.9,2,2,2s2-0.9,2-2C12.8,9.7,11.9,8.8,10.8,8.8z M10.8,11.9c-0.6,0-1.1-0.5-1.1-1.1
		s0.5-1.1,1.1-1.1c0.6,0,1.1,0.5,1.1,1.1C11.9,11.4,11.4,11.9,10.8,11.9z"/>
	<path d="M25.7,10.9C25.7,10.8,25.7,10.8,25.7,10.9C25.7,10.8,25.7,10.8,25.7,10.9v-1c0-0.7-0.5-1.2-1.2-1.2h-0.7
		c-0.7,0-1.2,0.5-1.2,1.2v1.2c0,0.7,0.5,1.2,1.2,1.2h0.7c0.1,0,0.1,0,0.2,0c-0.7,6.9-6.4,12.3-13.4,12.6v-3.1
		c5.8-0.2,10.4-5,10.4-10.8c0,0,0,0,0,0c0-6-4.9-10.8-10.8-10.8C4.8,0,0,4.8,0,10.8c0,5.8,4.6,10.6,10.4,10.8v3.6
		c0,0.3,0.2,0.5,0.5,0.5l0,0c8.1,0,14.7-6.5,14.8-14.6c0,0,0,0,0-0.1V10.9z M0.9,10.8c0-5.5,4.4-9.9,9.9-9.9c5.5,0,9.9,4.4,9.9,9.9
		c0,5.5-4.4,9.9-9.9,9.9C5.4,20.8,0.9,16.3,0.9,10.8z M24.5,11.3h-0.7c-0.2,0-0.3-0.1-0.3-0.3V9.8c0-0.2,0.1-0.3,0.3-0.3h0.7
		c0.2,0,0.3,0.1,0.3,0.3v1c0,0.1,0,0.2,0,0.2C24.7,11.2,24.6,11.3,24.5,11.3z"/>
</g>
</svg>
