<?xml version="1.0" encoding="utf-8"?>
<!-- Generator: Adobe Illustrator 24.0.0, SVG Export Plug-In . SVG Version: 6.00 Build 0)  -->
<svg version="1.1" id="Stra_-_review" xmlns="http://www.w3.org/2000/svg" xmlns:xlink="http://www.w3.org/1999/xlink" x="0px"
	 y="0px" viewBox="0 0 17.7 16.7" style="enable-background:new 0 0 17.7 16.7;" xml:space="preserve">
<path id="Path_75" d="M17,5.7l-4.9-0.5c-0.3,0-0.6-0.2-0.7-0.5L9.6,0.5C9.4,0.1,9-0.1,8.5,0.1C8.3,0.1,8.2,0.3,8.1,0.5L6.3,4.7
	C6.2,5,5.9,5.2,5.6,5.3L0.8,5.7C0.3,5.8,0,6.2,0,6.6C0,6.8,0.1,7,0.3,7.2L4,10.4c0.2,0.2,0.3,0.5,0.3,0.8l-1.1,4.5
	c-0.1,0.5,0.2,0.9,0.6,1c0.2,0,0.4,0,0.6-0.1l4.1-2.4c0.3-0.2,0.6-0.2,0.9,0l4.1,2.4c0.4,0.2,0.9,0.1,1.2-0.3
	c0.1-0.2,0.1-0.4,0.1-0.6l-1.1-4.5c-0.1-0.3,0-0.6,0.3-0.8l3.7-3.2c0.3-0.3,0.4-0.9,0-1.2C17.4,5.8,17.2,5.7,17,5.7z"/>
</svg>
