<?xml version="1.0" encoding="utf-8"?>
<!-- Generator: Adobe Illustrator 24.0.0, SVG Export Plug-In . SVG Version: 6.00 Build 0)  -->
<svg version="1.1" id="Warstwa_1" xmlns="http://www.w3.org/2000/svg" xmlns:xlink="http://www.w3.org/1999/xlink" x="0px" y="0px"
	 viewBox="0 0 42.6 46.3" style="enable-background:new 0 0 42.6 46.3;" xml:space="preserve">
<g>
	<path d="M21.4,21.8c0.2-0.2,0.5-0.3,0.8-0.4h1.1v-0.1H30c0,0,0,0,0,0c0.8,0,1.5,0.2,2.1,0.6l0.5,0.3c1,0.6,2.1,1,3.2,1h6.8v-2h-6.8
		c-0.8,0-1.5-0.2-2.1-0.6l-0.5-0.3c-1-0.6-2.1-1-3.2-1c0,0,0,0,0,0h-7.3c0,0,0,0,0,0c-0.2,0-0.4,0-0.6,0.1h-3
		c-0.2,0-0.4-0.1-0.6-0.1h-4.7c-1,0-1.9,0.3-2.7,0.8l-1,0.6c-0.5,0.3-1,0.5-1.6,0.5H0v2h8.5c1,0,1.9-0.3,2.7-0.8l1-0.6
		c0.3-0.2,0.7-0.4,1.1-0.4v0h5.5c0.1,0,0.1,0.1,0.2,0.1l-1.6,1.7c0,0-1.4,1.5-2.9,3l-0.6,0.7l0.6,0.7c1.4,1.6,3.6,2.1,5.5,1.3
		c1.1-0.4,2.1-1,3.1-1.7h1.8l3.3,3.1l0,0c0.4,0.4,5.1,5.3,6.5,6.6c0.3,0.2,0.1,0.8-0.2,1.2c-0.4,0.5-0.9,0.5-1.4,0.1
		c-1.4-1.2-5.8-5.4-5.8-5.4l-1.4,1.4c0.2,0.2,4.4,4.2,5.9,5.5c-0.3,0.4-0.7,0.8-1.2,0.9c-0.2,0.1-0.6,0.1-1.2-0.3
		c-1.4-1.2-4.2-3.9-4.3-3.9l-1.4,1.5c0.1,0.1,2.9,2.8,4.4,4c0,0,0,0,0,0c-0.3,0.4-0.7,0.7-1.1,0.8c-0.4,0.1-0.8,0-1.2-0.4
		c-1-0.8-2.7-2.5-2.7-2.5l-1.4,1.4c0.1,0.1,1.6,1.6,2.7,2.5c-0.2,0.3-0.5,0.5-0.8,0.6c-0.4,0.1-0.7,0.1-1-0.1
		c-0.5-0.3-1.2-0.8-1.7-1.2c0-0.7-0.2-1.5-0.8-2.1c-0.3-0.3-0.6-0.5-1-0.7c0.2-0.9,0-1.8-0.7-2.6c-0.5-0.5-1.2-0.8-1.9-0.9
		c0,0,0,0,0,0c-0.1-0.5-0.3-1-0.7-1.4l0,0c-1-1-2.5-1.1-3.6-0.3c-0.1-0.2-0.2-0.4-0.4-0.5c-0.1-0.1-0.1-0.1-0.1-0.1
		c-1.1-1.1-2.8-1.1-3.9-0.1l-0.5,0.5c-1-0.6-2.2-0.9-3.3-0.9l0.1,2c0.7,0,1.4,0.1,2.1,0.5c-0.3,0.9-0.1,2,0.7,2.8
		C7,39.6,7.5,39.9,8.1,40c0,0.7,0.2,1.4,0.8,2c0.5,0.6,1.3,0.8,2,0.8c0.1,0,0.2,0,0.3,0c0.1,0.5,0.3,0.9,0.7,1.2
		c0.5,0.5,1.2,0.8,1.9,0.9c0,0,0,0,0.1,0c0.4,0,0.8-0.1,1.2-0.3c0.1,0.3,0.3,0.5,0.5,0.8c0.5,0.5,1.2,0.8,1.9,0.8c0,0,0,0,0,0
		c0.7,0,1.4-0.3,1.9-0.8l0.6-0.6c0.5,0.3,1.1,0.7,1.5,1c0.5,0.3,1.1,0.5,1.7,0.5c0.3,0,0.7-0.1,1-0.2c0.8-0.3,1.5-0.8,2-1.5
		c0.2,0,0.4,0.1,0.6,0.1c0.2,0,0.5,0,0.7-0.1c1-0.2,1.9-0.9,2.6-2c0.1,0,0.1,0,0.2,0c0.3,0,0.6,0,0.8-0.1c1.2-0.3,2-1.3,2.6-2.1
		c0.1,0,0.1,0,0.2,0c0.9,0,1.7-0.5,2.2-1.1c0.7-0.8,1-2,0.6-2.9c0.6-0.3,1.3-0.5,2-0.4l0.2-2c-1.2-0.1-2.5,0.2-3.5,0.9
		c-0.8-0.8-2.1-2-3.2-3.2c0.4,0,0.7-0.1,1.1-0.2l-0.6-1.9c-1.1,0.3-2.3,0.1-3.2-0.7l0,0l-3.9-3.6h-3.2l-0.3,0.2
		c-0.9,0.7-1.9,1.2-2.9,1.6c-0.9,0.3-1.8,0.2-2.6-0.2c1.1-1.2,2.1-2.2,2.1-2.2L21.4,21.8z M8.1,36.7l1-1c0.3-0.3,0.8-0.3,1.1,0
		l0.1,0.1c0.1,0.1,0.2,0.3,0.2,0.4c0,0.2-0.1,0.3-0.2,0.4l-1.1,1.1c-0.3,0.3-0.8,0.3-1.1,0C7.8,37.5,7.8,37,8.1,36.7z M10.3,40.5
		c-0.3-0.3-0.3-0.8,0-1.1l0.2-0.2c0,0,0,0,0,0l0,0l1.1-1.1l0,0c0,0,0,0,0,0l1.5-1.5c0.1-0.1,0.3-0.2,0.5-0.2c0.2,0,0.4,0.1,0.5,0.2
		l0,0c0.3,0.3,0.3,0.8,0,1.1l-2.4,2.3l0,0c0,0,0,0,0,0l-0.5,0.5C11.1,40.8,10.6,40.8,10.3,40.5z M13.7,42.8c-0.2,0-0.4-0.1-0.5-0.2
		c-0.3-0.3-0.3-0.8,0-1.1l2.4-2.3c0,0,0.1-0.1,0.1-0.1l0.1-0.1c0.1-0.1,0.4-0.2,0.5-0.2c0.2,0,0.4,0.1,0.5,0.2
		c0.3,0.3,0.3,0.8,0,1.1l-0.7,0.7c0,0,0,0,0,0l0,0l0,0l0,0l0,0l-0.7,0.7l0,0c0,0,0,0,0,0l-1.2,1.2C14.1,42.8,13.9,42.9,13.7,42.8z
		 M18.7,43.3L18,43.9c-0.1,0.1-0.3,0.2-0.5,0.2c-0.2,0-0.4-0.1-0.5-0.2c-0.3-0.3-0.3-0.8,0-1.1l0.4-0.4l0,0l0.3-0.3
		c0.1-0.1,0.3-0.2,0.5-0.2c0.2,0,0.4,0.1,0.5,0.2C19,42.5,18.9,43,18.7,43.3z M28.8,29.5L28.8,29.5l0.2-0.2L28.8,29.5z"/>
	<polygon points="6.8,5.3 10.1,2 33.9,2 33.9,18.4 35.9,18.4 35.9,0 9.3,0 4.8,4.5 4.8,19.4 6.8,19.4 	"/>
	<polygon points="8.7,5.8 8.7,7.8 12.6,7.8 12.6,3.9 10.6,3.9 10.6,5.8 	"/>
	<rect x="14.3" y="10.4" width="14" height="2"/>
	<rect x="14.3" y="14.4" width="8" height="2"/>
</g>
</svg>
