<?xml version="1.0" encoding="utf-8"?>
<!-- Generator: Adobe Illustrator 24.0.0, SVG Export Plug-In . SVG Version: 6.00 Build 0)  -->
<svg version="1.1" id="Warstwa_1" xmlns="http://www.w3.org/2000/svg" xmlns:xlink="http://www.w3.org/1999/xlink" x="0px" y="0px"
	 viewBox="0 0 21.8 21.3" style="enable-background:new 0 0 21.8 21.3;" xml:space="preserve">
<g>
	<rect x="5.8" y="10.1" transform="matrix(0.7071 -0.7071 0.7071 0.7071 -4.4585 10.7675)" width="9.9" height="1.4"/>
	<path d="M8.7,10.6C8.7,10.6,8.7,10.6,8.7,10.6c0.5,0,1-0.2,1.4-0.6c0.4-0.4,0.6-0.9,0.6-1.4c0-0.5-0.2-1-0.6-1.4
		C9.7,6.9,9.2,6.7,8.7,6.7c0,0,0,0,0,0c-1.1,0-1.9,0.9-1.9,1.9c0,0.5,0.2,1,0.6,1.4C7.7,10.4,8.2,10.6,8.7,10.6z M9.1,9.1
		C9,9.2,8.8,9.3,8.7,9.3c0,0,0,0,0,0c-0.2,0-0.3-0.1-0.4-0.2C8.2,9,8.1,8.8,8.1,8.7c0-0.2,0.1-0.3,0.2-0.4c0.1-0.1,0.3-0.2,0.4-0.2
		l0,0c0,0,0,0,0,0c0.1,0,0.3,0.1,0.4,0.2c0.1,0.1,0.2,0.3,0.2,0.4C9.3,8.8,9.2,9,9.1,9.1z"/>
	<path d="M12.8,10.9C12.8,10.9,12.8,10.9,12.8,10.9c-1.1,0-1.9,0.9-1.9,1.9c0,0.5,0.2,1,0.6,1.4c0.4,0.4,0.9,0.6,1.4,0.6
		c0,0,0,0,0,0c0.5,0,1-0.2,1.4-0.6c0.4-0.4,0.6-0.9,0.6-1.4c0-0.5-0.2-1-0.6-1.4C13.8,11.1,13.4,10.9,12.8,10.9z M13.2,13.2
		c-0.1,0.1-0.3,0.2-0.4,0.2c-0.3,0-0.6-0.3-0.6-0.6c0-0.2,0.1-0.3,0.2-0.4c0.1-0.1,0.3-0.2,0.4-0.2s0.3,0.1,0.4,0.2
		C13.5,12.7,13.5,13,13.2,13.2z"/>
	<path d="M20.7,12.2c0.5-0.4,1.1-0.9,1.1-1.6c0-0.7-0.6-1.2-1.1-1.6c-0.1-0.1-0.5-0.4-0.5-0.5c0-0.3,0.1-0.5,0.3-0.7
		c0.4-0.5,0.5-1.2,0.3-1.9C20.4,5.3,19.6,5.1,19,5L19,5l-0.1,0c-0.1,0-0.3,0-0.4,0c-0.3-0.1-0.5-0.5-0.3-0.9l0-0.1
		c0.1-0.7-0.1-1.3-0.5-1.8l-0.1-0.1c-0.6-0.3-1.3-0.4-1.9-0.1c-0.2,0.1-0.5,0.1-0.8,0.1c-0.1-0.1-0.3-0.5-0.4-0.7
		C14.3,0.9,14,0.2,13.3,0c-0.7-0.2-1.2,0.3-1.8,0.7c-0.2,0.1-0.5,0.4-0.7,0.4c-0.1,0-0.5-0.3-0.7-0.4C9.7,0.3,9.1-0.1,8.5,0
		c-0.7,0.2-1,0.9-1.3,1.4C7.1,1.6,6.9,2,6.8,2.1C6.5,2.1,6.3,2.1,6,2C5.4,1.8,4.7,1.8,4.1,2.1L4.1,2.2C3.6,2.7,3.4,3.3,3.5,4l0,0.1
		c0.1,0.1,0.1,0.3,0,0.4C3.5,4.8,3.2,5,2.8,5L2.8,5L2.7,5C2.1,5.1,1.4,5.3,1.1,6C0.9,6.6,1,7.3,1.4,7.8C1.5,8,1.6,8.3,1.6,8.6
		c0,0.1-0.2,0.2-0.6,0.5C0.6,9.4,0,9.9,0,10.6c0,0.7,0.6,1.2,1.1,1.6c0.1,0.1,0.5,0.4,0.5,0.5c0,0.3-0.1,0.5-0.3,0.7
		C1,14,0.9,14.7,1.1,15.4c0.3,0.6,1.1,0.8,1.7,0.9l0.1,0l0.1,0c0.1,0,0.3,0,0.4,0c0.2,0.1,0.3,0.2,0.3,0.4c0.1,0.2,0.1,0.3,0,0.5
		l0,0.1c-0.1,0.7,0.1,1.3,0.5,1.8l0.1,0.1c0.6,0.3,1.3,0.4,1.9,0.1c0.2-0.1,0.5-0.1,0.8-0.1c0.1,0.1,0.3,0.5,0.4,0.7
		c0.3,0.6,0.6,1.3,1.3,1.4c0.1,0,0.2,0,0.3,0c0.6,0,1-0.4,1.5-0.8c0.2-0.1,0.5-0.4,0.6-0.4c0.1,0,0.5,0.3,0.6,0.4
		c0.4,0.4,0.9,0.7,1.5,0.8l0,0c0.1,0,0.2,0,0.3,0c0.7-0.2,1-0.9,1.3-1.4c0.1-0.2,0.3-0.5,0.4-0.6c0.3,0,0.5,0,0.8,0.1
		c0.6,0.3,1.3,0.2,1.9-0.1l0.1-0.1c0.4-0.5,0.6-1.2,0.5-1.8l0-0.1c-0.1-0.1-0.1-0.3,0-0.4c0-0.2,0.1-0.3,0.3-0.4
		c0.1-0.1,0.3-0.1,0.5-0.1l0.1,0l0.1,0c0.6-0.1,1.4-0.3,1.7-1c0.2-0.6,0.1-1.3-0.3-1.9c-0.1-0.2-0.2-0.5-0.3-0.7
		C20.2,12.7,20.3,12.5,20.7,12.2z M16.9,17.4c0,0.2,0,0.6,0,0.7c-0.2,0-0.6-0.1-0.7-0.1c-0.5-0.2-1.1-0.2-1.7,0l-0.1,0
		c-0.5,0.3-0.8,0.8-1,1.3c-0.2,0.4-0.3,0.6-0.4,0.7c-0.2-0.1-0.5-0.3-0.6-0.4c-0.3-0.3-0.7-0.5-1.1-0.7l0.2-0.2l-0.7,0.1
		c-0.6,0.1-1.1,0.4-1.5,0.8c-0.3,0.2-0.5,0.4-0.6,0.4c-0.1-0.1-0.3-0.5-0.4-0.6c-0.2-0.5-0.5-1-1-1.3l-0.1,0
		c-0.3-0.1-0.5-0.1-0.8-0.1c-0.3,0-0.6,0.1-0.9,0.2c-0.2,0-0.5,0.1-0.7,0.1c0-0.1,0-0.5,0-0.7C5,17.2,5,17,5,16.8
		c0-1-0.9-1.8-1.9-1.8c0,0,0,0,0,0c-0.4-0.1-0.6-0.2-0.7-0.2c0-0.2,0.2-0.5,0.3-0.7c0.3-0.5,0.5-1.1,0.4-1.6l0-0.1
		c-0.2-0.5-0.6-1-1-1.3c-0.1-0.1-0.5-0.4-0.6-0.5c0-0.1,0.4-0.4,0.6-0.5C2.4,9.9,2.8,9.4,3,8.9l0-0.1c0-0.6-0.1-1.2-0.4-1.6
		C2.5,7.1,2.4,6.7,2.3,6.5C2.5,6.5,2.8,6.4,3,6.3c0.2,0,0.4,0,0.6-0.1c0.5-0.1,0.9-0.5,1.2-0.9C5,4.9,5,4.4,4.9,3.9
		c0-0.2,0-0.6,0-0.7c0.2,0,0.6,0.1,0.7,0.1c0.5,0.2,1.1,0.2,1.7,0l0.1,0c0.5-0.3,0.8-0.8,1-1.3c0.2-0.4,0.3-0.6,0.4-0.7
		c0.1,0.1,0.4,0.3,0.6,0.4c0.1,0.1,0.2,0.3,0.4,0.4c0.4,0.3,0.9,0.4,1.5,0.4c0.5-0.1,0.9-0.3,1.3-0.7c0.3-0.2,0.5-0.4,0.6-0.4
		c0.1,0.1,0.3,0.5,0.4,0.6c0.2,0.5,0.5,1,1,1.3l0.1,0c0.5,0.2,1.1,0.2,1.7,0c0.1,0,0.6-0.1,0.7-0.1c0,0.1,0,0.5,0,0.7
		c0,0.2-0.1,0.4-0.1,0.6c0,1,0.9,1.9,2,1.8c0.4,0.1,0.6,0.2,0.7,0.2c0,0.2-0.2,0.5-0.3,0.7c-0.3,0.5-0.5,1.1-0.4,1.6l0,0.1
		c0.2,0.5,0.6,1,1,1.3c0.1,0.1,0.5,0.4,0.6,0.5c0,0.1-0.5,0.4-0.6,0.5c-0.5,0.3-0.9,0.7-1.1,1.3l0,0.1c0,0.6,0.1,1.2,0.4,1.6
		c0.2,0.3,0.3,0.6,0.3,0.7c-0.1,0.1-0.5,0.2-0.7,0.2c-0.2,0-0.4,0-0.6,0.1C17.2,15.3,16.6,16.4,16.9,17.4z"/>
</g>
</svg>
