<?xml version="1.0" encoding="utf-8"?>
<!-- Generator: Adobe Illustrator 24.0.0, SVG Export Plug-In . SVG Version: 6.00 Build 0)  -->
<svg version="1.1" id="icon_11" xmlns="http://www.w3.org/2000/svg" xmlns:xlink="http://www.w3.org/1999/xlink" x="0px" y="0px"
	 viewBox="0 0 20.1 20.1" style="enable-background:new 0 0 20.1 20.1;" xml:space="preserve">
<g>
	<path d="M20.1,5.9c0-0.8-0.2-1.7-0.5-2.4c-0.3-0.7-0.7-1.3-1.2-1.8c-0.5-0.5-1.1-0.9-1.8-1.2c-0.8-0.3-1.6-0.5-2.4-0.5
		C13.2,0,12.8,0,10.1,0S7,0,5.9,0.1c-0.8,0-1.7,0.2-2.4,0.5C2.8,0.8,2.2,1.2,1.7,1.7C1.2,2.2,0.8,2.8,0.5,3.5
		C0.2,4.3,0.1,5.1,0.1,5.9C0,7,0,7.3,0,10.1s0,3.1,0.1,4.2c0,0.8,0.2,1.7,0.5,2.4c0.3,0.7,0.7,1.3,1.2,1.8c0.5,0.5,1.1,0.9,1.8,1.2
		c0.8,0.3,1.6,0.5,2.4,0.5c1.1,0,1.4,0.1,4.2,0.1s3.1,0,4.2-0.1c0.8,0,1.7-0.2,2.4-0.5c1.4-0.5,2.4-1.6,3-3c0.3-0.8,0.5-1.6,0.5-2.4
		c0-1.1,0.1-1.4,0.1-4.2S20.1,7,20.1,5.9z M18.3,14.2c0,0.6-0.1,1.3-0.3,1.9c-0.3,0.9-1,1.6-1.9,1.9c-0.6,0.2-1.2,0.3-1.9,0.3
		c-1.1,0-1.4,0.1-4.1,0.1s-3,0-4.1-0.1c-0.6,0-1.3-0.1-1.9-0.3c-0.4-0.2-0.8-0.4-1.2-0.8c-0.3-0.3-0.6-0.7-0.8-1.2
		c-0.2-0.6-0.3-1.2-0.3-1.9c0-1.1-0.1-1.4-0.1-4.1s0-3,0.1-4.1c0-0.6,0.1-1.3,0.3-1.9C2.4,3.7,2.7,3.3,3,3c0.3-0.3,0.7-0.6,1.2-0.8
		C4.7,2,5.4,1.9,6,1.9c1.1,0,1.4-0.1,4.1-0.1s3,0,4.1,0.1c0.6,0,1.3,0.1,1.9,0.3c0.4,0.2,0.8,0.4,1.2,0.8c0.3,0.3,0.6,0.7,0.8,1.2
		c0.2,0.6,0.3,1.2,0.3,1.9c0,1.1,0.1,1.4,0.1,4.1S18.3,13.1,18.3,14.2L18.3,14.2z"/>
	<path d="M10.1,4.9c-2.9,0-5.2,2.3-5.2,5.2c0,2.9,2.3,5.2,5.2,5.2s5.2-2.3,5.2-5.2v0C15.3,7.2,12.9,4.9,10.1,4.9z M10.1,13.4
		c-1.9,0-3.4-1.5-3.4-3.4c0-1.9,1.5-3.4,3.4-3.4c1.9,0,3.4,1.5,3.4,3.4C13.4,11.9,11.9,13.4,10.1,13.4z"/>
	<path d="M15.5,3.5c-0.7,0-1.2,0.5-1.2,1.2c0,0.7,0.5,1.2,1.2,1.2c0.7,0,1.2-0.5,1.2-1.2C16.7,4,16.1,3.5,15.5,3.5z"/>
</g>
</svg>
