<?xml version="1.0" encoding="utf-8"?>
<!-- Generator: Adobe Illustrator 24.0.0, SVG Export Plug-In . SVG Version: 6.00 Build 0)  -->
<svg version="1.1" id="Warstwa_1" xmlns="http://www.w3.org/2000/svg" xmlns:xlink="http://www.w3.org/1999/xlink" x="0px" y="0px"
	 viewBox="0 0 25 21.3" style="enable-background:new 0 0 25 21.3;" xml:space="preserve">
<g>
	<path d="M22.5,3.3h-6.2V1c0-0.6-0.5-1-1-1H9.8c-0.6,0-1,0.5-1,1v2.3H2.5C1.1,3.3,0,4.4,0,5.8v13c0,1.4,1.1,2.5,2.5,2.5h20
		c1.4,0,2.5-1.1,2.5-2.5v-13C25,4.4,23.9,3.3,22.5,3.3z M9.8,1l5.5,0v2.3H9.7L9.8,1z M24,18.8c0,0.8-0.7,1.5-1.5,1.5h-20
		c-0.8,0-1.5-0.7-1.5-1.5v-13C1,5,1.7,4.3,2.5,4.3h20C23.3,4.3,24,5,24,5.8V18.8z"/>
	<path d="M15.8,10.9h-1.7V9.2c0-0.3-0.2-0.5-0.5-0.5h-2.2c-0.3,0-0.5,0.2-0.5,0.5v1.7H9.2c-0.3,0-0.5,0.2-0.5,0.5v2.2
		C8.7,13.8,9,14,9.2,14h1.7v1.7c0,0.3,0.2,0.5,0.5,0.5h2.2c0.3,0,0.5-0.2,0.5-0.5V14h1.7c0.3,0,0.5-0.2,0.5-0.5v-2.2
		C16.3,11.1,16,10.9,15.8,10.9z M15.3,13h-1.7c-0.3,0-0.5,0.2-0.5,0.5v1.7h-1.2v-1.7c0-0.3-0.2-0.5-0.5-0.5H9.7v-1.2h1.7
		c0.3,0,0.5-0.2,0.5-0.5V9.7h1.2v1.7c0,0.3,0.2,0.5,0.5,0.5h1.7V13z"/>
	<path d="M12.5,6.3C8.9,6.3,6,9,6,12.3s2.9,6,6.5,6s6.5-2.7,6.5-6S16.1,6.3,12.5,6.3z M12.5,17.3c-3,0-5.5-2.2-5.5-5
		c0-2.8,2.5-5,5.5-5c3,0,5.5,2.2,5.5,5C18,15.1,15.5,17.3,12.5,17.3z"/>
</g>
</svg>
