<?xml version="1.0" encoding="utf-8"?>
<!-- Generator: Adobe Illustrator 24.0.0, SVG Export Plug-In . SVG Version: 6.00 Build 0)  -->
<svg version="1.1" id="Warstwa_1" xmlns="http://www.w3.org/2000/svg" xmlns:xlink="http://www.w3.org/1999/xlink" x="0px" y="0px"
	 viewBox="0 0 16.7 29.4" style="enable-background:new 0 0 16.7 29.4;" xml:space="preserve">
<g>
	<path d="M16.2,11.6h-5.9v-1.6c0-0.3-0.2-0.5-0.5-0.5H9.3c0,0-0.1,0-0.1,0l-7.5,2c-0.2,0.1-0.4,0.3-0.4,0.5v14.8
		c0,0.2,0.2,0.4,0.4,0.5l7.5,2.1c0,0,0.1,0,0.1,0h0.5c0.3,0,0.5-0.2,0.5-0.5v-1.6h5.9c0.3,0,0.5-0.2,0.5-0.5V12.1
		C16.7,11.9,16.5,11.6,16.2,11.6z M9.3,28.4l-7-1.9v-14l7-1.9V28.4z M15.7,26.4h-5.4V12.6h5.4V26.4z"/>
	<rect x="7.2" y="18.3" width="1" height="1.6"/>
	<path d="M16.2,2.9H6.3L0.4,0L0,0.9L4.1,3C3.9,3,3.7,3.2,3.7,3.4v4c0,0.3,0.2,0.5,0.5,0.5h12c0.3,0,0.5-0.2,0.5-0.5v-4
		C16.7,3.2,16.5,2.9,16.2,2.9z M15.7,6.9h-11v-3h11V6.9z"/>
</g>
</svg>
