<?xml version="1.0" encoding="utf-8"?>
<!-- Generator: Adobe Illustrator 24.0.0, SVG Export Plug-In . SVG Version: 6.00 Build 0)  -->
<svg version="1.1" id="Warstwa_1" xmlns="http://www.w3.org/2000/svg" xmlns:xlink="http://www.w3.org/1999/xlink" x="0px" y="0px"
	 viewBox="0 0 31.3 30.6" style="enable-background:new 0 0 31.3 30.6;" xml:space="preserve">
<g>
	<path d="M30.6,6.9c-0.1-0.2-0.3-0.3-0.6-0.3H7.9L7.3,4.2l0-0.1L1.5,0.6C1.2,0.4,0.8,0.5,0.6,0.8c0,0,0,0.1,0,0.1
		C0.5,1.1,0.5,1.3,0.5,1.5c0,0.2,0.2,0.4,0.3,0.5l5.2,3.2l4.3,18.5h15.7c0.4,0,0.7-0.4,0.7-0.9c0-0.4-0.3-0.7-0.7-0.7H11.4l-0.5-2.3
		h15.8c0.3,0,0.6-0.2,0.7-0.5l3.4-11.7C30.8,7.4,30.8,7.1,30.6,6.9z M26.2,18.3H10.5L8.2,8.2h20.9L26.2,18.3z"/>
	<path d="M22.4,24.4c-1.6,0-2.9,1.3-2.9,2.9s1.3,2.9,2.9,2.9s2.9-1.3,2.9-2.9c0,0,0,0,0,0C25.2,25.6,24,24.4,22.4,24.4z M22.4,28.5
		c-0.7,0-1.3-0.6-1.3-1.3c0-0.7,0.6-1.3,1.3-1.3c0.7,0,1.3,0.6,1.3,1.3C23.7,27.9,23.1,28.5,22.4,28.5z"/>
	<path d="M14.1,24.4c-1.6,0-2.9,1.3-2.9,2.9s1.3,2.9,2.9,2.9c1.6,0,2.9-1.3,2.9-2.9c0,0,0,0,0,0C17,25.7,15.7,24.4,14.1,24.4z
		 M14.1,28.5c-0.7,0-1.3-0.6-1.3-1.3c0-0.7,0.6-1.3,1.3-1.3c0.7,0,1.3,0.6,1.3,1.3C15.4,27.9,14.8,28.5,14.1,28.5z"/>
</g>
</svg>
