<?xml version="1.0" encoding="utf-8"?>
<!-- Generator: Adobe Illustrator 24.0.0, SVG Export Plug-In . SVG Version: 6.00 Build 0)  -->
<svg version="1.1" id="Warstwa_1" xmlns="http://www.w3.org/2000/svg" xmlns:xlink="http://www.w3.org/1999/xlink" x="0px" y="0px"
	 viewBox="0 0 17 28.6" style="enable-background:new 0 0 17 28.6;" xml:space="preserve">
<path d="M17,4.2c0.1-0.4-0.2-0.7-0.6-0.8l-2.6-0.5l2.9-1.6C17,1.2,17.1,0.8,17,0.5c-0.1-0.4-0.5-0.6-0.9-0.5L9.3,1.5
	C9,1.6,8.8,1.8,8.6,2C8.4,2.5,8.6,3.1,9,3.3l0.7,0.4c0,0.1,0,0.2,0,0.3c0,0.1,0,0.2,0,0.3H8.5c-3.7,0-6.7,3-6.7,6.7v4.2H1.6
	c-0.2,0-0.4,0.2-0.5,0.4L0,24.3c0,0,0,0,0,0.1c0,0.3,0.2,0.5,0.5,0.5h3.5c0,0,0,0,0.1,0c0.3,0,0.5-0.3,0.4-0.5l-1-8.7
	c0-0.2-0.2-0.4-0.5-0.4H2.8v-4.2c0-3.2,2.6-5.7,5.7-5.7h0.2c-1.7,0.9-2.9,2.8-2.8,4.9v16.1c0,1.3,1,2.3,2.3,2.3h6.3
	c1.3,0,2.3-1,2.3-2.3V10.2c0,0,0-0.1,0-0.1c0-2.2-1.3-4-3.2-4.9l2.7-0.3C16.7,4.8,17,4.6,17,4.2z M3.4,23.9H1l1-7.7h0.5L3.4,23.9z
	 M9.5,2.5C9.5,2.5,9.5,2.5,9.5,2.5L9.5,2.5l5.2-1.2l-2.4,1.3c-0.3-0.2-0.6-0.3-0.9-0.3c-0.5,0-0.9,0.2-1.2,0.5L9.5,2.5z M11.3,4.6
	c-0.1,0-0.1,0-0.2,0c-0.2-0.1-0.4-0.3-0.4-0.6c0-0.4,0.3-0.7,0.7-0.7c0.4,0,0.7,0.3,0.7,0.7v0c0,0.3-0.2,0.5-0.4,0.6
	C11.6,4.7,11.4,4.6,11.3,4.6z M15.9,21.3H9.9v-7.8h5.9V21.3z M15.9,10.2v2.3H9.5C9.2,12.5,9,12.7,9,13v8.8c0,0.3,0.2,0.5,0.5,0.5
	h6.4v4c0,0.7-0.6,1.3-1.3,1.3H8.2c-0.7,0-1.3-0.6-1.3-1.3V10.2c0-2.5,2-4.5,4.5-4.5c0,0,0,0,0,0c0,0,0,0,0,0
	C13.9,5.7,15.9,7.7,15.9,10.2z M13,4.3c0-0.1,0-0.1,0-0.2c0-0.1,0-0.2,0-0.3l1.5,0.3L13,4.3z"/>
</svg>
