<?xml version="1.0" encoding="utf-8"?>
<!-- Generator: Adobe Illustrator 24.0.0, SVG Export Plug-In . SVG Version: 6.00 Build 0)  -->
<svg version="1.1" id="Warstwa_1" xmlns="http://www.w3.org/2000/svg" xmlns:xlink="http://www.w3.org/1999/xlink" x="0px" y="0px"
	 viewBox="0 0 24 24" style="enable-background:new 0 0 24 24;" xml:space="preserve">
<g>
	<path d="M21,3H3v18h18V3z M20,20H4V4h16V20z"/>
	<path d="M12,16.7c2.8,0,5-2.2,5-5c0-2.8-2.2-5-5-5s-5,2.2-5,5C7,14.5,9.3,16.7,12,16.7z M12,7.7c2.2,0,4,1.8,4,4s-1.8,4-4,4
		c-2.2,0-4-1.8-4-4S9.8,7.7,12,7.7z"/>
	<path d="M0,0v24h24V0H0z M23,23H1V1h22V23z"/>
</g>
</svg>
