<?xml version="1.0" encoding="utf-8"?>
<!-- Generator: Adobe Illustrator 24.0.0, SVG Export Plug-In . SVG Version: 6.00 Build 0)  -->
<svg version="1.1" id="Warstwa_1" xmlns="http://www.w3.org/2000/svg" xmlns:xlink="http://www.w3.org/1999/xlink" x="0px" y="0px"
	 viewBox="0 0 25.3 25.3" style="enable-background:new 0 0 25.3 25.3;" xml:space="preserve">
<g>
	<path d="M24.2,17.9c-0.1-0.2-0.3-0.4-0.6-0.5l-7.5-1.6c-0.3-0.1-0.5,0-0.7,0.2c-0.5,0.5-0.9,1.1-1.2,1.8c-3-1.3-5.5-3.7-6.8-6.7
		c0.7-0.3,1.3-0.7,1.8-1.2c0.2-0.2,0.3-0.5,0.2-0.7L7.8,1.6C7.8,1.4,7.6,1.1,7.3,1.1C7.1,1,6.8,0.9,6.6,0.8C6.2,0.8,5.8,0.7,5.5,0.7
		H5.4C2.4,0.7,0,3.1,0,6.1v0.1c0.1,10.5,8.8,19,19.2,19.1l0.2,0l0,0c0.3,0,0.7-0.1,1-0.1c1.4-0.3,2.6-1.2,3.3-2.4s1-2.7,0.7-4.1
		C24.4,18.4,24.3,18.1,24.2,17.9z M5.4,2.3C5.4,2.3,5.4,2.3,5.4,2.3c0.4,0,0.6,0,0.9,0.1c0,0,0.1,0,0.1,0l1.5,6.7
		c-0.5,0.4-1,0.6-1.6,0.8c0,0-0.1,0-0.1,0c-0.4,0.1-0.6,0.6-0.5,1c1.5,4.1,4.7,7.3,8.8,8.7l0.1,0c0.4,0.1,0.8-0.2,0.9-0.6
		c0.1-0.6,0.4-1.1,0.8-1.6l6.6,1.4c0,0.1,0,0.1,0,0.2c0.1,0.3,0.1,0.6,0.1,0.9c0,1-0.4,2-1.1,2.7c-0.7,0.7-1.7,1.1-2.7,1.1
		c0,0,0,0,0,0c-9.6,0-17.6-7.9-17.7-17.5l-0.2,0l0.2-0.1C1.6,4,3.3,2.3,5.4,2.3z"/>
	<path d="M17.4,12v0.2h1.6l0-0.3c0-3.1-2.5-5.6-5.6-5.6l-0.3,0V8l0.2,0C15.5,8,17.3,9.8,17.4,12z"/>
	<path d="M14.4,0l-0.2,0v1.6l0.2,0c5.2,0,9.4,4.2,9.4,9.4v0.2h1.6v-0.3C25.3,4.9,20.4,0,14.4,0z"/>
</g>
</svg>
