<?xml version="1.0" encoding="utf-8"?>
<!-- Generator: Adobe Illustrator 24.0.0, SVG Export Plug-In . SVG Version: 6.00 Build 0)  -->
<svg version="1.1" id="Warstwa_1" xmlns="http://www.w3.org/2000/svg" xmlns:xlink="http://www.w3.org/1999/xlink" x="0px" y="0px"
	 viewBox="0 0 20 23" style="enable-background:new 0 0 20 23;" xml:space="preserve">
<style type="text/css">
	.st0{fill:#3D3D3C;}
</style>
<g>
	<path class="st0" d="M0,4h1v15H0v4h9v-4H8V4h1V0H0V4z M8,22H1v-2h7V22z M7,19H2V4h5V19z M1,1h7v2H1V1z"/>
	<path class="st0" d="M20,4V0h-9v4h1v15h-1v4h9v-4h-1V4H20z M12,1h7v2h-7V1z M19,22h-7v-2h7V22z M18,19h-5V4h5V19z"/>
</g>
</svg>
