<?xml version="1.0" encoding="utf-8"?>
<!-- Generator: Adobe Illustrator 24.0.0, SVG Export Plug-In . SVG Version: 6.00 Build 0)  -->
<svg version="1.1" id="Warstwa_1" xmlns="http://www.w3.org/2000/svg" xmlns:xlink="http://www.w3.org/1999/xlink" x="0px" y="0px"
	 viewBox="0 0 48 45" style="enable-background:new 0 0 48 45;" xml:space="preserve">
<g>
	<path d="M46,28l0-6.9c0.1-1.5-0.4-3-1.3-4.1s-2.4-1.8-3.9-2c-0.3,0-0.6,0-0.8,0l-7.9,0c-3.1-0.2-5.8,2.1-6.1,5.2c0,0.3,0,0.6,0,0.8
		v7h-2l0-7.9c0.2-3.1-2.1-5.8-5.2-6.1c-0.3,0-0.6,0-0.8,0l-7.9,0C7,13.8,4.2,16.1,4,19.2c0,0.3,0,0.6,0,0.8v8H0v2h4.1
		c0.4,2.8,2.4,3.5,3.9,3.8V37c0,0.6,0.4,1,1,1h4v5H8v2h12v-2h-5v-5h4c0.6,0,1-0.4,1-1v-3.2c1.5-0.3,3.5-1.1,3.9-3.8H48v-2H46z
		 M18,36h-8V21h8V36z M22,29c0,1.7-0.6,2.4-2,2.8V20c0-0.6-0.4-1-1-1H9c-0.6,0-1,0.4-1,1v11.8c-1.4-0.4-2-1-2-2.8l0-9.1
		c0-0.2,0-0.4,0-0.6c0.2-2,1.9-3.5,4-3.4l8.1,0c0.2,0,0.4,0,0.6,0c1,0.1,1.9,0.5,2.5,1.3c0.6,0.7,0.9,1.7,0.9,2.7V29z M40,21v7h-8
		v-7h-2v7h-2l0-7.1c0-0.2,0-0.4,0-0.6c0.2-2,1.9-3.5,4-3.4l8.1,0c0.2,0,0.4,0,0.6,0c1,0.1,1.9,0.5,2.5,1.3c0.6,0.7,0.9,1.7,0.9,2.7
		v7h-2v-7H40z"/>
	<path d="M32.3,11.4c0.9,1,2.1,1.5,3.4,1.6c0.1,0,0.3,0,0.4,0c0.1,0,0.1,0,0.2,0c1.2,0,2.4-0.4,3.3-1.3c1-0.9,1.5-2.1,1.6-3.4
		c0-0.1,0-0.3,0-0.4V6c0-2.8-2.2-5-5-5s-5,2.2-5,5l0,2C30.9,9.2,31.4,10.5,32.3,11.4z M33,6c0-1.7,1.3-3,3-3s3,1.3,3,3l0,2
		c0,0.1,0,0.2,0,0.3c0,0.8-0.4,1.5-0.9,2c-0.6,0.5-1.3,0.8-2,0.7c0,0,0,0,0,0s0,0,0,0c-0.1,0-0.2,0-0.3,0c-1.6-0.1-2.8-1.4-2.7-3V6z
		"/>
	<path d="M10.3,10.4c0.9,1,2.1,1.5,3.4,1.6c0.1,0,0.3,0,0.4,0c0.1,0,0.1,0,0.2,0c1.2,0,2.4-0.4,3.3-1.3c1-0.9,1.5-2.1,1.6-3.4
		c0-0.1,0-0.3,0-0.4V5c0-2.8-2.2-5-5-5S9,2.2,9,5l0,2C8.9,8.2,9.4,9.5,10.3,10.4z M11,5c0-1.7,1.3-3,3-3s3,1.3,3,3l0,2
		c0,0.1,0,0.2,0,0.3c0,0.8-0.4,1.5-0.9,2c-0.6,0.5-1.3,0.8-2,0.7c0,0,0,0,0,0s0,0,0,0c-0.1,0-0.2,0-0.3,0c-0.8,0-1.5-0.4-2-0.9
		C11.2,8.5,11,7.8,11,7V5z"/>
	<rect x="45" y="31" width="2" height="14"/>
	<rect x="1" y="31" width="2" height="14"/>
</g>
</svg>
