<?xml version="1.0" encoding="utf-8"?>
<!-- Generator: Adobe Illustrator 24.0.0, SVG Export Plug-In . SVG Version: 6.00 Build 0)  -->
<svg version="1.1" id="Warstwa_1" xmlns="http://www.w3.org/2000/svg" xmlns:xlink="http://www.w3.org/1999/xlink" x="0px" y="0px"
	 viewBox="0 0 17.2 26.3" style="enable-background:new 0 0 17.2 26.3;" xml:space="preserve">
<g>
	<path d="M8.6,17.7c1.7,0,3.1-1.4,3.1-3.1c0-1.7-1.4-3.1-3.1-3.1c-1.7,0-3.1,1.4-3.1,3.1S6.9,17.7,8.6,17.7z M8.6,12.2
		c1.3,0,2.3,1,2.3,2.3c0,1.3-1,2.3-2.3,2.3c-1.3,0-2.3-1-2.3-2.3C6.3,13.3,7.4,12.2,8.6,12.2z"/>
	<path d="M16.8,25.4h-3.6V17h1.4v1.3c0,0.2,0.2,0.4,0.4,0.4h1.5c0.2,0,0.4-0.2,0.4-0.4v-7.5c0-0.2-0.2-0.4-0.4-0.4h-1.5
		c-0.2,0-0.4,0.2-0.4,0.4V12h-1.4v-3H14c0.2,0,0.4-0.2,0.4-0.4V6.7c0-0.2-0.2-0.4-0.4-0.4h-0.8V5.6c0-2-1.4-3.6-3.2-4.1V0.4v0
		C10,0.2,9.8,0,9.6,0h-2C7.4,0,7.2,0.2,7.2,0.4v1.1C5.4,2,4,3.6,4,5.6v0.7H3.2C3,6.3,2.8,6.5,2.8,6.7v1.9c0,0.2,0.2,0.4,0.4,0.4H4v3
		H2.6v-1.3c0-0.2-0.2-0.4-0.4-0.4H0.7c-0.2,0-0.4,0.2-0.4,0.4v7.5c0,0.2,0.2,0.4,0.4,0.4h1.5c0.2,0,0.4-0.2,0.4-0.4V17H4v8.4H0.4
		c-0.2,0-0.4,0.2-0.4,0.4s0.2,0.4,0.4,0.4h16.4c0.2,0,0.4-0.2,0.4-0.4S17,25.4,16.8,25.4z M15.5,11.2h0.6v6.7h-0.6v-1.3v-4.1V11.2z
		 M14.7,12.9v3.2h-1.4v-3.2H14.7z M8,0.9h1.1v0.5c0,0-0.1,0-0.1,0H8.2c-0.1,0-0.1,0-0.2,0V0.9z M4.9,5.6c0-1.8,1.5-3.3,3.3-3.3H9
		c1.8,0,3.3,1.5,3.3,3.3v0.7H4.9V5.6z M3.7,7.2h0.8h8.3h0.8v1h-0.8H4.5H3.7V7.2z M12.4,9.1v16.4H4.9V9.1H12.4z M1.1,17.9v-6.7h0.6
		v1.3c0,0,0,0,0,0v4.1c0,0,0,0,0,0v1.3H1.1z M2.6,16.1v-3.2H4v3.2H2.6z"/>
</g>
</svg>
