<?xml version="1.0" encoding="utf-8"?>
<!-- Generator: Adobe Illustrator 24.0.0, SVG Export Plug-In . SVG Version: 6.00 Build 0)  -->
<svg version="1.1" id="Warstwa_1" xmlns="http://www.w3.org/2000/svg" xmlns:xlink="http://www.w3.org/1999/xlink" x="0px" y="0px"
	 viewBox="0 0 23.3 23.3" style="enable-background:new 0 0 23.3 23.3;" xml:space="preserve">
<path id="Path_2726" d="M12.2,3.5h-1.1v8.2l0.2,0.4l4.3,4l0.7-0.8l-4.1-3.9L12.2,3.5z M11.7,0C5.2,0,0,5.2,0,11.7
	c0,6.4,5.2,11.7,11.7,11.7c6.4,0,11.7-5.2,11.7-11.7c0,0,0,0,0,0C23.3,5.2,18.1,0,11.7,0L11.7,0z M11.7,22.2
	c-5.8,0-10.6-4.7-10.6-10.6c0-5.8,4.7-10.6,10.6-10.6c5.8,0,10.6,4.7,10.6,10.6c0,0,0,0,0,0C22.2,17.5,17.5,22.2,11.7,22.2
	L11.7,22.2z"/>
</svg>
