<?xml version="1.0" encoding="utf-8"?>
<!-- Generator: Adobe Illustrator 24.0.0, SVG Export Plug-In . SVG Version: 6.00 Build 0)  -->
<svg version="1.1" id="Warstwa_1" xmlns="http://www.w3.org/2000/svg" xmlns:xlink="http://www.w3.org/1999/xlink" x="0px" y="0px"
	 viewBox="0 0 26.7 22" style="enable-background:new 0 0 26.7 22;" xml:space="preserve">
<g>
	<path d="M16.2,0.5c-5.5,0-9.9,4.5-9.9,10c0,2.5,0.9,4.7,2.4,6.4H6.9v-0.7c0-0.2-0.2-0.4-0.4-0.4H5.1c-0.2,0-0.4,0.2-0.4,0.4v0.8
		l-3.4,0.6V17c0-0.2-0.2-0.4-0.4-0.4c-0.2,0-0.4,0.2-0.4,0.4v3.2c0,0.2,0.2,0.4,0.4,0.4c0,0,0,0,0,0c0.2,0,0.4-0.2,0.4-0.4v-0.5
		l3.4,0.6v0.8c0,0.2,0.2,0.4,0.4,0.4h1.4c0.2,0,0.4-0.2,0.4-0.4v-0.8h8.9c0.2,0,0.3,0,0.5,0c5.5,0,9.9-4.5,9.9-10
		C26.2,4.9,21.7,0.5,16.2,0.5z M4.7,19.5l-3.4-0.6v-0.6l3.4-0.6V19.5z M6.1,20.7H5.5v-4.2h0.6V20.7z M6.9,19.6v-1.9h2.6
		c0.8,0.8,1.8,1.4,2.8,1.9H6.9z M16.4,19.6c0,0-0.1,0-0.1,0h-0.5c-2.2-0.1-4.2-1-5.7-2.4c0-0.1-0.1-0.2-0.2-0.2
		c-1.7-1.7-2.7-3.9-2.7-6.5c0-5,4.1-9.1,9.2-9.1c5,0,9.1,4.1,9.1,9.1c0,0,0,0,0,0C25.4,15.5,21.4,19.5,16.4,19.6z"/>
	<path d="M16.3,3.6c-3.8,0-6.8,3.1-6.8,6.8c0,3.8,3.1,6.8,6.8,6.8c3.8,0,6.8-3.1,6.8-6.8C23.1,6.7,20,3.6,16.3,3.6z M16.3,16.5
		c-3.3,0-6-2.7-6-6c0-3.3,2.7-6,6-6v0c3.3,0,6,2.7,6,6C22.3,13.8,19.6,16.5,16.3,16.5z"/>
	<path d="M16.3,7c-1.9,0-3.4,1.5-3.4,3.4c0,1.9,1.5,3.4,3.4,3.4c1.9,0,3.4-1.5,3.4-3.4C19.7,8.5,18.2,7,16.3,7z M18.9,10.4
		c0,1.4-1.2,2.6-2.6,2.6c-1.4,0-2.6-1.2-2.6-2.6s1.2-2.6,2.6-2.6v0C17.7,7.8,18.9,9,18.9,10.4C18.9,10.4,18.9,10.4,18.9,10.4z"/>
</g>
</svg>
