<?xml version="1.0" encoding="utf-8"?>
<!-- Generator: Adobe Illustrator 24.0.0, SVG Export Plug-In . SVG Version: 6.00 Build 0)  -->
<svg version="1.1" id="Warstwa_1" xmlns="http://www.w3.org/2000/svg" xmlns:xlink="http://www.w3.org/1999/xlink" x="0px" y="0px"
	 viewBox="0 0 26.5 24.1" style="enable-background:new 0 0 26.5 24.1;" xml:space="preserve">
<path d="M26.5,14.7L26.5,14.7c0-0.1,0-0.1,0-0.2c0,0,0-0.1,0-0.1l0,0c0,0,0,0,0,0l-3.7-9.3c-0.1-0.3-0.4-0.5-0.7-0.5h-4.8v1.4h-1.3
	V0h-5.4v6.1H9.2V4.6H4.5c-0.3,0-0.6,0.2-0.7,0.5l-3.7,9.3c0,0,0,0,0,0l0,0C0,14.5,0,14.6,0,14.7c0,0,0,0,0,0v0c0,0,0,0,0,0
	c0,0,0,0,0,0v8.6c0,0.4,0.3,0.8,0.8,0.8h24.9h0c0.2,0,0.4-0.1,0.5-0.2s0.2-0.3,0.2-0.5V14.7C26.5,14.7,26.5,14.7,26.5,14.7z
	 M12.1,7.6V1.5h2.3v6.1h1.6l-2.7,3.6l-2.7-3.6H12.1z M13.2,13.8L19,6.2h2.5l3.1,7.7h-8.1c-0.3,0-0.6,0.2-0.7,0.5
	c0,0.1-0.1,0.2-0.1,0.3c0,0.1,0,0.3-0.1,0.4c-0.3,0.9-1.1,1.7-2.1,1.8c-1.4,0.2-2.6-0.8-2.7-2.2c0-0.4-0.3-0.8-0.8-0.8H1.9L5,6.2
	h2.5L13.2,13.8z M1.6,15.5h7.8c0.4,1.7,2,3,3.8,3c0,0,0.1,0,0.1,0c1.8,0,3.5-1.2,3.9-3h7.8v7.1H1.6V15.5z"/>
</svg>
