<?xml version="1.0" encoding="utf-8"?>
<!-- Generator: Adobe Illustrator 24.0.0, SVG Export Plug-In . SVG Version: 6.00 Build 0)  -->
<svg version="1.1" id="Warstwa_1" xmlns="http://www.w3.org/2000/svg" xmlns:xlink="http://www.w3.org/1999/xlink" x="0px" y="0px"
	 viewBox="0 0 9.8 9.8" style="enable-background:new 0 0 9.8 9.8;" xml:space="preserve">
<path id="x" d="M0.5,4.6l0,0.7c0,0.2,0.2,0.3,0.3,0.3c0,0,0,0,0,0h3.4l0,3.4c0,0.2,0.2,0.3,0.3,0.3c0,0,0,0,0,0h0.7
	c0.2,0,0.3-0.2,0.3-0.3c0,0,0,0,0,0V5.6l3.4,0c0.2,0,0.3-0.2,0.3-0.3c0,0,0,0,0,0l0-0.7c0-0.2-0.2-0.3-0.3-0.3l-3.4,0l0-3.4
	c0-0.2-0.2-0.3-0.3-0.3H4.6c-0.2,0-0.3,0.2-0.3,0.3v3.4l-3.4,0C0.6,4.2,0.5,4.4,0.5,4.6z"/>
</svg>
