<svg xmlns="http://www.w3.org/2000/svg" width="161.291" height="63.282" viewBox="0 0 161.291 63.282">
  <g id="ogo" transform="translate(3 6.578)">
    <g id="Group_3590" data-name="Group 3590" transform="translate(-18.755 -48.87)">
      <path id="Path_1932" data-name="Path 1932" d="M85.439,43.933h21.744v6.212H94.2v3.845h10.947V60.2H94.2v4.179h13.5v6.212H85.439Zm-29.288,0H69.057c4.622,0,7.691.665,9.208,2.033a6.992,6.992,0,0,1,2.292,5.548A6.907,6.907,0,0,1,79.3,55.84a6.22,6.22,0,0,1-3.217,2.183,8.126,8.126,0,0,1,3.476,2.144c.665.777,1,2.441,1,4.955v2.07c0,1.738.332,2.626.925,2.626v.777h-8.8a10.583,10.583,0,0,1-.3-1.553,19.956,19.956,0,0,1-.111-2.181c0-.777-.037-1.443-.074-2.035a15.107,15.107,0,0,0-.259-1.553,2.141,2.141,0,0,0-1.479-1.59,15.934,15.934,0,0,0-4.29-.407H64.878v9.319H56.151Zm8.727,6.212v5.287h3.66c2.626,0,3.921-.814,3.921-2.441v-.147a2.362,2.362,0,0,0-.925-2,3.947,3.947,0,0,0-2.478-.7ZM42.319,43.933h8.765V70.595H42.319Zm-24.775,0H38.289v6.212H26.308v4.844h9.5V61.2h-9.5v9.394H17.544Z" transform="translate(0.665 0.61)" fill="#111"/>
      <path id="Path_1933" data-name="Path 1933" d="M91.448,42.531c-5.252,1.062-4.157,7.592-4.157,11.53V93.426c0,1.985-.224,6.176.154,7.91,1.147,5.256,7.551,4.138,11.519,4.138h39.366c1.856,0,6.264.221,7.834-.13,5.334-1.192,4.216-7.359,4.216-11.447,0-3.824.229-45.494-.117-47.219-1.087-5.409-7.355-4.29-11.462-4.29H99.434c-2.052,0-6.169-.226-7.986.143" transform="translate(26.57 0)" fill="#3d3d3c" fill-rule="evenodd"/>
      <path id="Path_1934" data-name="Path 1934" d="M136.467,77.554c1.439-.209,3.262.181,4.538-.654a4.143,4.143,0,0,0,1.928-3.346c0-2.821-2.546-4.442-4.326-6.275-.9-.926-5.167-4.49-5.353-5.337-.4-1.788.343-9.432-.159-10.486a33.631,33.631,0,0,0-7.166,0c-.451,1.018.228,2.249-.255,3.273-.552.081-4.114-3.608-4.789-4.234-2.03-1.888-3.881-2.925-6.466-.962-1.676,1.272-7.038,6.82-9.575,9.082-3.221,2.873-6.3,6.091-9.491,9.014-1.646,1.509-3.625,3.068-3.813,5.466-.269,3.427,2.083,4.452,5.051,4.363,1.945-.059,1.25,1.539,1.257,3.308.005,1.569,0,3.139,0,4.707,0,2.483-.556,6.161,1.236,7.991,1.777,1.815,5.547,1.264,8,1.264h18.664c2.033,0,7.083.386,8.65-.6,2.631-1.65,2.065-4.442,2.065-7.245,0-3.08-.08-6.27.01-9.335" transform="translate(28.178 2.302)" fill-rule="evenodd"/>
      <path id="Path_1935" data-name="Path 1935" d="M99,75.389c.767,2.008-.944,14.836.905,16.492,1.254,1.125,6.16.664,7.982.664h17.408c1.773,0,6.994.454,8.157-.643,1.07-1.012.852-2.069.851-3.453-.007-4.188-.091-9.024.015-13.084,1.877-.274,4.877.708,6.078-1.139,1.251-1.928-.719-3.512-1.867-4.655-2.442-2.426-4.968-4.8-7.454-7.139l-.008-9.848-3.985-.036-.019,5.946c-1.335-.612-8.234-8.454-9.982-8.7-1.971-.281-4.021,2.519-5.367,3.747-1.553,1.417-3.382,3.081-4.843,4.568-3.055,3.107-6.419,6.067-9.573,9.088-1.216,1.162-4.031,3.507-4.412,5-1.14,4.463,4.308,2.622,6.115,3.2" transform="translate(28.628 2.782)" fill="#fff" fill-rule="evenodd"/>
      <path id="Path_1936" data-name="Path 1936" d="M109.651,57.58c.125.471.687.873.842,1.943.233,1.612-.51,3.083-1.076,4.451l-.96,1.825c-.713,1.2-1.372,2.343-2.066,3.5-1.2,2.011-3.508,5.313-3.738,7.5,0,.041-.007.082-.011.123v1.173c.233,2.57,2,4.483,3.992,5.838.69.469,2.926,1.763,3.881,1.783-.111-.479-.218-.429-.5-.745-.162-.178-.145-.2-.3-.377-.133-.158-.178-.184-.314-.357-2.616-3.32-2-6.142.095-9.62.336-.556.661-1.06,1.032-1.561a30.084,30.084,0,0,0,3.122-4.847,4.364,4.364,0,0,0,.1-4.167c-.469-1.173-2.955-5.691-4.1-6.46" transform="translate(32.315 5.686)" fill="#0094cb" fill-rule="evenodd"/>
      <path id="Path_1937" data-name="Path 1937" d="M120.41,66.841a8.154,8.154,0,0,1-.925,3.2c-1.048,2.05-4.643,6.049-4.643,8.031a4.639,4.639,0,0,0,1.2,3.121c.237.27.008.2.434.239-.726-1.372.069-2.992.849-4.049,2.546-3.444,5.866-6.7,3.312-11.25-.122-.217-.126-.2-.25-.423a.936.936,0,0,0-.14-.244c-.144-.17.012-.082-.219-.166a3.973,3.973,0,0,1,.384,1.537" transform="translate(36.853 8.559)" fill="#d21113" fill-rule="evenodd"/>
      <path id="Path_1938" data-name="Path 1938" d="M106.794,59.165a8.132,8.132,0,0,1-.927,3.2c-1.047,2.05-4.643,6.05-4.643,8.031a4.647,4.647,0,0,0,1.2,3.122c.236.27.008.2.434.239-.727-1.375.069-2.994.849-4.049,2.546-3.444,5.868-6.7,3.312-11.25-.123-.22-.126-.2-.25-.424-.075-.139-.051-.14-.14-.244-.145-.17.012-.082-.218-.166a4,4,0,0,1,.384,1.537" transform="translate(31.787 5.704)" fill="#0094cb" fill-rule="evenodd"/>
      <path id="Path_1939" data-name="Path 1939" d="M116.194,57.6c.126.471.687.873.842,1.943.233,1.612-.51,3.084-1.074,4.451L115,65.823c-.715,1.2-1.373,2.343-2.067,3.5-1.2,2.01-3.507,5.313-3.738,7.495,0,.043-.008.084-.011.125v1.173c.233,2.57,2,4.483,3.992,5.837.69.468,2.926,1.763,3.881,1.784-.111-.477-.217-.429-.5-.746-.161-.178-.144-.2-.3-.376-.133-.158-.178-.184-.314-.357-2.616-3.32-1.995-6.142.1-9.62.335-.557.66-1.061,1.032-1.561a30.237,30.237,0,0,0,3.122-4.847,4.371,4.371,0,0,0,.1-4.167c-.472-1.174-2.955-5.692-4.1-6.46" transform="translate(34.748 5.695)" fill="#d21113" fill-rule="evenodd"/>
      <path id="Path_1940" data-name="Path 1940" d="M20.23,75.944l-1.006-1.681a1.491,1.491,0,0,0-.58,1.13,1,1,0,0,0,.188.66.651.651,0,0,0,.534.219,1.622,1.622,0,0,0,.864-.329m-.708-4.8a2.132,2.132,0,0,0,.534-1.3.892.892,0,0,0-.156-.486.49.49,0,0,0-.44-.22.465.465,0,0,0-.376.156.9.9,0,0,0-.125.517A1.924,1.924,0,0,0,19.522,71.139Zm4.789,2.183V75.41l-.879.549,1.082,2.073H21.658l-.377-.691a5.049,5.049,0,0,1-2.731.958,2.531,2.531,0,0,1-2.072-.911,3.3,3.3,0,0,1-.723-2.15,2.607,2.607,0,0,1,.424-1.586,2.933,2.933,0,0,1,1.288-.943,2.776,2.776,0,0,1-1.225-2.386,2.654,2.654,0,0,1,.878-2.088,3.485,3.485,0,0,1,2.4-.785,3.013,3.013,0,0,1,2.168.77,2.64,2.64,0,0,1,.8,1.977,3.092,3.092,0,0,1-.973,2.231l1.1,1.977Z" transform="translate(0 9.357)" fill="#3d3d3c" fill-rule="evenodd"/>
      <path id="Path_1941" data-name="Path 1941" d="M96.525,75.66c-.217-1.512-1.4-2.231-3.49-2.231-1.656,0-2.519.466-2.627,1.4V74.9a1.579,1.579,0,0,0,.827,1.331,8.378,8.378,0,0,0,2.375.971l2.843.72a16.44,16.44,0,0,1,6.729,2.878,6.317,6.317,0,0,1,2.122,5.038v.071a7.91,7.91,0,0,1-1.692,5.146,9.248,9.248,0,0,1-4.426,2.878,19.713,19.713,0,0,1-5.936.863,13.278,13.278,0,0,1-8.024-2.446,9.429,9.429,0,0,1-2.59-2.807,6.845,6.845,0,0,1-.936-3.489h8.168a2.731,2.731,0,0,0,1.51,2.158,5.751,5.751,0,0,0,2.483.612,4.706,4.706,0,0,0,2.375-.468,1.692,1.692,0,0,0,.936-1.3v-.217a1.647,1.647,0,0,0-1.115-1.51A22.182,22.182,0,0,0,92.1,84.115a34.852,34.852,0,0,1-5.254-1.692,7.635,7.635,0,0,1-3.309-2.59,7.245,7.245,0,0,1-1.261-4.354v-.144a6.812,6.812,0,0,1,3.1-5.685c1.98-1.475,4.714-2.194,8.2-2.194a16.342,16.342,0,0,1,5.109.756,8.883,8.883,0,0,1,3.922,2.662,8.549,8.549,0,0,1,2.015,4.787ZM63.853,85.231h5.361L66.48,75.948ZM62.27,68.139h8.636l9.282,25.943H71.733l-1.043-3.454H62.27l-1.007,3.454H52.987ZM38.557,85.446V79.833H50.252V94.155H44.746l-.359-2.519a9.721,9.721,0,0,1-7.7,3.165,15.021,15.021,0,0,1-3.707-.431A11.873,11.873,0,0,1,29.814,93,10.914,10.914,0,0,1,25.5,88.217a15.177,15.177,0,0,1-1.475-6.657,14.7,14.7,0,0,1,3.489-10.04A11.353,11.353,0,0,1,31.793,68.5a14.746,14.746,0,0,1,5.794-1.043h.288a14.4,14.4,0,0,1,4.246.576,10.872,10.872,0,0,1,3.706,1.87,9.186,9.186,0,0,1,1.476,1.4,7.734,7.734,0,0,1,1.151,1.619,11.105,11.105,0,0,1,1.439,4.138H41.8a4.067,4.067,0,0,0-4.354-3.273,4.082,4.082,0,0,0-3.6,1.943,9.992,9.992,0,0,0-1.331,5.685,9.2,9.2,0,0,0,1.259,5.038,4.55,4.55,0,0,0,4.173,2.014,4.807,4.807,0,0,0,2.771-.9A3.77,3.77,0,0,0,42.3,85.446Z" transform="translate(3.075 9.359)" fill="#111" fill-rule="evenodd"/>
    </g>
  </g>
</svg>
